<ttFont>
<head>
    <!-- Most of this table will be recalculated by the compiler -->
    <tableVersion value="1.0"/>
    <fontRevision value="5.0"/>
    <checkSumAdjustment value="0xa22a997a"/>
    <magicNumber value="0x5f0f3cf5"/>
    <flags value="00000000 00001011"/>
    <unitsPerEm value="2048"/>
    <created value="Sun May 15 08:57:39 2005"/>
    <modified value="Fri Apr 15 06:01:59 2011"/>
    <xMin value="-27"/>
    <yMin value="-1200"/>
    <xMax value="7674"/>
    <yMax value="2182"/>
    <macStyle value="00000000 00000000"/>
    <lowestRecPPEM value="8"/>
    <fontDirectionHint value="2"/>
    <indexToLocFormat value="1"/>
    <glyphDataFormat value="0"/>
  </head>
    <TTGlyph name=".notdef" xMin="142" yMin="226" xMax="842" yMax="1588">
      <contour>
        <pt x="142" y="226" on="1"/>
        <pt x="142" y="1588" on="1"/>
        <pt x="842" y="1588" on="1"/>
        <pt x="842" y="226" on="1"/>
      </contour>
      <contour>
        <pt x="284" y="368" on="1"/>
        <pt x="700" y="368" on="1"/>
        <pt x="700" y="1447" on="1"/>
        <pt x="284" y="1447" on="1"/>
      </contour>
    </TTGlyph>
    <TTGlyph name=".null" xMin="142" yMin="226" xMax="842" yMax="1588">
      <contour>
        <pt x="142" y="226" on="1"/>
        <pt x="142" y="1588" on="1"/>
        <pt x="842" y="1588" on="1"/>
        <pt x="842" y="226" on="1"/>
      </contour>
      <contour>
        <pt x="284" y="368" on="1"/>
        <pt x="700" y="368" on="1"/>
        <pt x="700" y="1447" on="1"/>
        <pt x="284" y="1447" on="1"/>
      </contour>
    </TTGlyph>
    <TTGlyph name="afii57381" xMin="142" yMin="226" xMax="842" yMax="1588">
      <contour>
        <pt x="142" y="226" on="1"/>
        <pt x="142" y="1588" on="1"/>
        <pt x="842" y="1588" on="1"/>
        <pt x="842" y="226" on="1"/>
      </contour>
      <contour>
        <pt x="284" y="368" on="1"/>
        <pt x="700" y="368" on="1"/>
        <pt x="700" y="1447" on="1"/>
        <pt x="284" y="1447" on="1"/>
      </contour>
    </TTGlyph>
    <TTGlyph name="afii57388" xMin="142" yMin="226" xMax="842" yMax="1588">
      <contour>
        <pt x="142" y="226" on="1"/>
        <pt x="142" y="1588" on="1"/>
        <pt x="842" y="1588" on="1"/>
        <pt x="842" y="226" on="1"/>
      </contour>
      <contour>
        <pt x="284" y="368" on="1"/>
        <pt x="700" y="368" on="1"/>
        <pt x="700" y="1447" on="1"/>
        <pt x="284" y="1447" on="1"/>
      </contour>
    </TTGlyph>
    <TTGlyph name="afii57396" xMin="142" yMin="226" xMax="842" yMax="1588">
      <contour>
        <pt x="142" y="226" on="1"/>
        <pt x="142" y="1588" on="1"/>
        <pt x="842" y="1588" on="1"/>
        <pt x="842" y="226" on="1"/>
      </contour>
      <contour>
        <pt x="284" y="368" on="1"/>
        <pt x="700" y="368" on="1"/>
        <pt x="700" y="1447" on="1"/>
        <pt x="284" y="1447" on="1"/>
      </contour>
    </TTGlyph>
    <TTGlyph name="afii57397" xMin="142" yMin="226" xMax="842" yMax="1588">
      <contour>
        <pt x="142" y="226" on="1"/>
        <pt x="142" y="1588" on="1"/>
        <pt x="842" y="1588" on="1"/>
        <pt x="842" y="226" on="1"/>
      </contour>
      <contour>
        <pt x="284" y="368" on="1"/>
        <pt x="700" y="368" on="1"/>
        <pt x="700" y="1447" on="1"/>
        <pt x="284" y="1447" on="1"/>
      </contour>
    </TTGlyph>
    <TTGlyph name="afii57398" xMin="142" yMin="226" xMax="842" yMax="1588">
      <contour>
        <pt x="142" y="226" on="1"/>
        <pt x="142" y="1588" on="1"/>
        <pt x="842" y="1588" on="1"/>
        <pt x="842" y="226" on="1"/>
      </contour>
      <contour>
        <pt x="284" y="368" on="1"/>
        <pt x="700" y="368" on="1"/>
        <pt x="700" y="1447" on="1"/>
        <pt x="284" y="1447" on="1"/>
      </contour>
    </TTGlyph>
    <TTGlyph name="afii57403" xMin="142" yMin="226" xMax="842" yMax="1588">
      <contour>
        <pt x="142" y="226" on="1"/>
        <pt x="142" y="1588" on="1"/>
        <pt x="842" y="1588" on="1"/>
        <pt x="842" y="226" on="1"/>
      </contour>
      <contour>
        <pt x="284" y="368" on="1"/>
        <pt x="700" y="368" on="1"/>
        <pt x="700" y="1447" on="1"/>
        <pt x="284" y="1447" on="1"/>
      </contour>
    </TTGlyph>
    <TTGlyph name="afii57407" xMin="142" yMin="226" xMax="842" yMax="1588">
      <contour>
        <pt x="142" y="226" on="1"/>
        <pt x="142" y="1588" on="1"/>
        <pt x="842" y="1588" on="1"/>
        <pt x="842" y="226" on="1"/>
      </contour>
      <contour>
        <pt x="284" y="368" on="1"/>
        <pt x="700" y="368" on="1"/>
        <pt x="700" y="1447" on="1"/>
        <pt x="284" y="1447" on="1"/>
      </contour>
    </TTGlyph>
    <TTGlyph name="afii57440" xMin="142" yMin="226" xMax="842" yMax="1588">
      <contour>
        <pt x="142" y="226" on="1"/>
        <pt x="142" y="1588" on="1"/>
        <pt x="842" y="1588" on="1"/>
        <pt x="842" y="226" on="1"/>
      </contour>
      <contour>
        <pt x="284" y="368" on="1"/>
        <pt x="700" y="368" on="1"/>
        <pt x="700" y="1447" on="1"/>
        <pt x="284" y="1447" on="1"/>
      </contour>
    </TTGlyph>
    <TTGlyph name="afii57451" xMin="142" yMin="226" xMax="842" yMax="1588">
      <contour>
        <pt x="142" y="226" on="1"/>
        <pt x="142" y="1588" on="1"/>
        <pt x="842" y="1588" on="1"/>
        <pt x="842" y="226" on="1"/>
      </contour>
      <contour>
        <pt x="284" y="368" on="1"/>
        <pt x="700" y="368" on="1"/>
        <pt x="700" y="1447" on="1"/>
        <pt x="284" y="1447" on="1"/>
      </contour>
    </TTGlyph>
    <TTGlyph name="afii57452" xMin="142" yMin="226" xMax="842" yMax="1588">
      <contour>
        <pt x="142" y="226" on="1"/>
        <pt x="142" y="1588" on="1"/>
        <pt x="842" y="1588" on="1"/>
        <pt x="842" y="226" on="1"/>
      </contour>
      <contour>
        <pt x="284" y="368" on="1"/>
        <pt x="700" y="368" on="1"/>
        <pt x="700" y="1447" on="1"/>
        <pt x="284" y="1447" on="1"/>
      </contour>
    </TTGlyph>
    <TTGlyph name="afii57453" xMin="142" yMin="226" xMax="842" yMax="1588">
      <contour>
        <pt x="142" y="226" on="1"/>
        <pt x="142" y="1588" on="1"/>
        <pt x="842" y="1588" on="1"/>
        <pt x="842" y="226" on="1"/>
      </contour>
      <contour>
        <pt x="284" y="368" on="1"/>
        <pt x="700" y="368" on="1"/>
        <pt x="700" y="1447" on="1"/>
        <pt x="284" y="1447" on="1"/>
      </contour>
    </TTGlyph>
    <TTGlyph name="afii57454" xMin="142" yMin="226" xMax="842" yMax="1588">
      <contour>
        <pt x="142" y="226" on="1"/>
        <pt x="142" y="1588" on="1"/>
        <pt x="842" y="1588" on="1"/>
        <pt x="842" y="226" on="1"/>
      </contour>
      <contour>
        <pt x="284" y="368" on="1"/>
        <pt x="700" y="368" on="1"/>
        <pt x="700" y="1447" on="1"/>
        <pt x="284" y="1447" on="1"/>
      </contour>
    </TTGlyph>
    <TTGlyph name="afii57455" xMin="142" yMin="226" xMax="842" yMax="1588">
      <contour>
        <pt x="142" y="226" on="1"/>
        <pt x="142" y="1588" on="1"/>
        <pt x="842" y="1588" on="1"/>
        <pt x="842" y="226" on="1"/>
      </contour>
      <contour>
        <pt x="284" y="368" on="1"/>
        <pt x="700" y="368" on="1"/>
        <pt x="700" y="1447" on="1"/>
        <pt x="284" y="1447" on="1"/>
      </contour>
    </TTGlyph>
    <TTGlyph name="afii57456" xMin="142" yMin="226" xMax="842" yMax="1588">
      <contour>
        <pt x="142" y="226" on="1"/>
        <pt x="142" y="1588" on="1"/>
        <pt x="842" y="1588" on="1"/>
        <pt x="842" y="226" on="1"/>
      </contour>
      <contour>
        <pt x="284" y="368" on="1"/>
        <pt x="700" y="368" on="1"/>
        <pt x="700" y="1447" on="1"/>
        <pt x="284" y="1447" on="1"/>
      </contour>
    </TTGlyph>
    <TTGlyph name="afii57457" xMin="142" yMin="226" xMax="842" yMax="1588">
      <contour>
        <pt x="142" y="226" on="1"/>
        <pt x="142" y="1588" on="1"/>
        <pt x="842" y="1588" on="1"/>
        <pt x="842" y="226" on="1"/>
      </contour>
      <contour>
        <pt x="284" y="368" on="1"/>
        <pt x="700" y="368" on="1"/>
        <pt x="700" y="1447" on="1"/>
        <pt x="284" y="1447" on="1"/>
      </contour>
    </TTGlyph>
    <TTGlyph name="afii57458" xMin="142" yMin="226" xMax="842" yMax="1588">
      <contour>
        <pt x="142" y="226" on="1"/>
        <pt x="142" y="1588" on="1"/>
        <pt x="842" y="1588" on="1"/>
        <pt x="842" y="226" on="1"/>
      </contour>
      <contour>
        <pt x="284" y="368" on="1"/>
        <pt x="700" y="368" on="1"/>
        <pt x="700" y="1447" on="1"/>
        <pt x="284" y="1447" on="1"/>
      </contour>
    </TTGlyph>
    <TTGlyph name="afii57505" xMin="142" yMin="226" xMax="842" yMax="1588">
      <contour>
        <pt x="142" y="226" on="1"/>
        <pt x="142" y="1588" on="1"/>
        <pt x="842" y="1588" on="1"/>
        <pt x="842" y="226" on="1"/>
      </contour>
      <contour>
        <pt x="284" y="368" on="1"/>
        <pt x="700" y="368" on="1"/>
        <pt x="700" y="1447" on="1"/>
        <pt x="284" y="1447" on="1"/>
      </contour>
    </TTGlyph>
    <TTGlyph name="afii57506" xMin="142" yMin="226" xMax="842" yMax="1588">
      <contour>
        <pt x="142" y="226" on="1"/>
        <pt x="142" y="1588" on="1"/>
        <pt x="842" y="1588" on="1"/>
        <pt x="842" y="226" on="1"/>
      </contour>
      <contour>
        <pt x="284" y="368" on="1"/>
        <pt x="700" y="368" on="1"/>
        <pt x="700" y="1447" on="1"/>
        <pt x="284" y="1447" on="1"/>
      </contour>
    </TTGlyph>
    <TTGlyph name="afii57507" xMin="142" yMin="226" xMax="842" yMax="1588">
      <contour>
        <pt x="142" y="226" on="1"/>
        <pt x="142" y="1588" on="1"/>
        <pt x="842" y="1588" on="1"/>
        <pt x="842" y="226" on="1"/>
      </contour>
      <contour>
        <pt x="284" y="368" on="1"/>
        <pt x="700" y="368" on="1"/>
        <pt x="700" y="1447" on="1"/>
        <pt x="284" y="1447" on="1"/>
      </contour>
    </TTGlyph>
    <TTGlyph name="afii57508" xMin="142" yMin="226" xMax="842" yMax="1588">
      <contour>
        <pt x="142" y="226" on="1"/>
        <pt x="142" y="1588" on="1"/>
        <pt x="842" y="1588" on="1"/>
        <pt x="842" y="226" on="1"/>
      </contour>
      <contour>
        <pt x="284" y="368" on="1"/>
        <pt x="700" y="368" on="1"/>
        <pt x="700" y="1447" on="1"/>
        <pt x="284" y="1447" on="1"/>
      </contour>
    </TTGlyph>
    <TTGlyph name="afii57509" xMin="142" yMin="226" xMax="842" yMax="1588">
      <contour>
        <pt x="142" y="226" on="1"/>
        <pt x="142" y="1588" on="1"/>
        <pt x="842" y="1588" on="1"/>
        <pt x="842" y="226" on="1"/>
      </contour>
      <contour>
        <pt x="284" y="368" on="1"/>
        <pt x="700" y="368" on="1"/>
        <pt x="700" y="1447" on="1"/>
        <pt x="284" y="1447" on="1"/>
      </contour>
    </TTGlyph>
    <TTGlyph name="afii57511" xMin="142" yMin="226" xMax="842" yMax="1588">
      <contour>
        <pt x="142" y="226" on="1"/>
        <pt x="142" y="1588" on="1"/>
        <pt x="842" y="1588" on="1"/>
        <pt x="842" y="226" on="1"/>
      </contour>
      <contour>
        <pt x="284" y="368" on="1"/>
        <pt x="700" y="368" on="1"/>
        <pt x="700" y="1447" on="1"/>
        <pt x="284" y="1447" on="1"/>
      </contour>
    </TTGlyph>
    <TTGlyph name="afii57512" xMin="142" yMin="226" xMax="842" yMax="1588">
      <contour>
        <pt x="142" y="226" on="1"/>
        <pt x="142" y="1588" on="1"/>
        <pt x="842" y="1588" on="1"/>
        <pt x="842" y="226" on="1"/>
      </contour>
      <contour>
        <pt x="284" y="368" on="1"/>
        <pt x="700" y="368" on="1"/>
        <pt x="700" y="1447" on="1"/>
        <pt x="284" y="1447" on="1"/>
      </contour>
    </TTGlyph>
    <TTGlyph name="afii57513" xMin="142" yMin="226" xMax="842" yMax="1588">
      <contour>
        <pt x="142" y="226" on="1"/>
        <pt x="142" y="1588" on="1"/>
        <pt x="842" y="1588" on="1"/>
        <pt x="842" y="226" on="1"/>
      </contour>
      <contour>
        <pt x="284" y="368" on="1"/>
        <pt x="700" y="368" on="1"/>
        <pt x="700" y="1447" on="1"/>
        <pt x="284" y="1447" on="1"/>
      </contour>
    </TTGlyph>
    <TTGlyph name="afii57514" xMin="142" yMin="226" xMax="842" yMax="1588">
      <contour>
        <pt x="142" y="226" on="1"/>
        <pt x="142" y="1588" on="1"/>
        <pt x="842" y="1588" on="1"/>
        <pt x="842" y="226" on="1"/>
      </contour>
      <contour>
        <pt x="284" y="368" on="1"/>
        <pt x="700" y="368" on="1"/>
        <pt x="700" y="1447" on="1"/>
        <pt x="284" y="1447" on="1"/>
      </contour>
    </TTGlyph>
    <TTGlyph name="afii57519" xMin="142" yMin="226" xMax="842" yMax="1588">
      <contour>
        <pt x="142" y="226" on="1"/>
        <pt x="142" y="1588" on="1"/>
        <pt x="842" y="1588" on="1"/>
        <pt x="842" y="226" on="1"/>
      </contour>
      <contour>
        <pt x="284" y="368" on="1"/>
        <pt x="700" y="368" on="1"/>
        <pt x="700" y="1447" on="1"/>
        <pt x="284" y="1447" on="1"/>
      </contour>
    </TTGlyph>
    <TTGlyph name="afii57534" xMin="142" yMin="226" xMax="842" yMax="1588">
      <contour>
        <pt x="142" y="226" on="1"/>
        <pt x="142" y="1588" on="1"/>
        <pt x="842" y="1588" on="1"/>
        <pt x="842" y="226" on="1"/>
      </contour>
      <contour>
        <pt x="284" y="368" on="1"/>
        <pt x="700" y="368" on="1"/>
        <pt x="700" y="1447" on="1"/>
        <pt x="284" y="1447" on="1"/>
      </contour>
    </TTGlyph>
    <TTGlyph name="afii63167" xMin="142" yMin="226" xMax="842" yMax="1588">
      <contour>
        <pt x="142" y="226" on="1"/>
        <pt x="142" y="1588" on="1"/>
        <pt x="842" y="1588" on="1"/>
        <pt x="842" y="226" on="1"/>
      </contour>
      <contour>
        <pt x="284" y="368" on="1"/>
        <pt x="700" y="368" on="1"/>
        <pt x="700" y="1447" on="1"/>
        <pt x="284" y="1447" on="1"/>
      </contour>
    </TTGlyph>
    <TTGlyph name="alefmaksurainitial" xMin="142" yMin="226" xMax="842" yMax="1588">
      <contour>
        <pt x="142" y="226" on="1"/>
        <pt x="142" y="1588" on="1"/>
        <pt x="842" y="1588" on="1"/>
        <pt x="842" y="226" on="1"/>
      </contour>
      <contour>
        <pt x="284" y="368" on="1"/>
        <pt x="700" y="368" on="1"/>
        <pt x="700" y="1447" on="1"/>
        <pt x="284" y="1447" on="1"/>
      </contour>
    </TTGlyph>
    <TTGlyph name="alefwaslafinalarabic" xMin="142" yMin="226" xMax="842" yMax="1588">
      <contour>
        <pt x="142" y="226" on="1"/>
        <pt x="142" y="1588" on="1"/>
        <pt x="842" y="1588" on="1"/>
        <pt x="842" y="226" on="1"/>
      </contour>
      <contour>
        <pt x="284" y="368" on="1"/>
        <pt x="700" y="368" on="1"/>
        <pt x="700" y="1447" on="1"/>
        <pt x="284" y="1447" on="1"/>
      </contour>
    </TTGlyph>
    <TTGlyph name="ampersand" xMin="142" yMin="226" xMax="842" yMax="1588">
      <contour>
        <pt x="142" y="226" on="1"/>
        <pt x="142" y="1588" on="1"/>
        <pt x="842" y="1588" on="1"/>
        <pt x="842" y="226" on="1"/>
      </contour>
      <contour>
        <pt x="284" y="368" on="1"/>
        <pt x="700" y="368" on="1"/>
        <pt x="700" y="1447" on="1"/>
        <pt x="284" y="1447" on="1"/>
      </contour>
    </TTGlyph>
    <TTGlyph name="asterisk" xMin="142" yMin="226" xMax="842" yMax="1588">
      <contour>
        <pt x="142" y="226" on="1"/>
        <pt x="142" y="1588" on="1"/>
        <pt x="842" y="1588" on="1"/>
        <pt x="842" y="226" on="1"/>
      </contour>
      <contour>
        <pt x="284" y="368" on="1"/>
        <pt x="700" y="368" on="1"/>
        <pt x="700" y="1447" on="1"/>
        <pt x="284" y="1447" on="1"/>
      </contour>
    </TTGlyph>
    <TTGlyph name="behmeemisolatedarabic" xMin="142" yMin="226" xMax="842" yMax="1588">
      <contour>
        <pt x="142" y="226" on="1"/>
        <pt x="142" y="1588" on="1"/>
        <pt x="842" y="1588" on="1"/>
        <pt x="842" y="226" on="1"/>
      </contour>
      <contour>
        <pt x="284" y="368" on="1"/>
        <pt x="700" y="368" on="1"/>
        <pt x="700" y="1447" on="1"/>
        <pt x="284" y="1447" on="1"/>
      </contour>
    </TTGlyph>
    <TTGlyph name="behnoonfinalarabic" xMin="142" yMin="226" xMax="842" yMax="1588">
      <contour>
        <pt x="142" y="226" on="1"/>
        <pt x="142" y="1588" on="1"/>
        <pt x="842" y="1588" on="1"/>
        <pt x="842" y="226" on="1"/>
      </contour>
      <contour>
        <pt x="284" y="368" on="1"/>
        <pt x="700" y="368" on="1"/>
        <pt x="700" y="1447" on="1"/>
        <pt x="284" y="1447" on="1"/>
      </contour>
    </TTGlyph>
    <TTGlyph name="colon" xMin="142" yMin="226" xMax="842" yMax="1588">
      <contour>
        <pt x="142" y="226" on="1"/>
        <pt x="142" y="1588" on="1"/>
        <pt x="842" y="1588" on="1"/>
        <pt x="842" y="226" on="1"/>
      </contour>
      <contour>
        <pt x="284" y="368" on="1"/>
        <pt x="700" y="368" on="1"/>
        <pt x="700" y="1447" on="1"/>
        <pt x="284" y="1447" on="1"/>
      </contour>
    </TTGlyph>
    <TTGlyph name="dagger" xMin="142" yMin="226" xMax="842" yMax="1588">
      <contour>
        <pt x="142" y="226" on="1"/>
        <pt x="142" y="1588" on="1"/>
        <pt x="842" y="1588" on="1"/>
        <pt x="842" y="226" on="1"/>
      </contour>
      <contour>
        <pt x="284" y="368" on="1"/>
        <pt x="700" y="368" on="1"/>
        <pt x="700" y="1447" on="1"/>
        <pt x="284" y="1447" on="1"/>
      </contour>
    </TTGlyph>
    <TTGlyph name="dalringfinal" xMin="142" yMin="226" xMax="842" yMax="1588">
      <contour>
        <pt x="142" y="226" on="1"/>
        <pt x="142" y="1588" on="1"/>
        <pt x="842" y="1588" on="1"/>
        <pt x="842" y="226" on="1"/>
      </contour>
      <contour>
        <pt x="284" y="368" on="1"/>
        <pt x="700" y="368" on="1"/>
        <pt x="700" y="1447" on="1"/>
        <pt x="284" y="1447" on="1"/>
      </contour>
    </TTGlyph>
    <TTGlyph name="ddalfinalarabic" xMin="142" yMin="226" xMax="842" yMax="1588">
      <contour>
        <pt x="142" y="226" on="1"/>
        <pt x="142" y="1588" on="1"/>
        <pt x="842" y="1588" on="1"/>
        <pt x="842" y="226" on="1"/>
      </contour>
      <contour>
        <pt x="284" y="368" on="1"/>
        <pt x="700" y="368" on="1"/>
        <pt x="700" y="1447" on="1"/>
        <pt x="284" y="1447" on="1"/>
      </contour>
    </TTGlyph>
    <TTGlyph name="divide" xMin="142" yMin="226" xMax="842" yMax="1588">
      <contour>
        <pt x="142" y="226" on="1"/>
        <pt x="142" y="1588" on="1"/>
        <pt x="842" y="1588" on="1"/>
        <pt x="842" y="226" on="1"/>
      </contour>
      <contour>
        <pt x="284" y="368" on="1"/>
        <pt x="700" y="368" on="1"/>
        <pt x="700" y="1447" on="1"/>
        <pt x="284" y="1447" on="1"/>
      </contour>
    </TTGlyph>
    <TTGlyph name="dollar" xMin="142" yMin="226" xMax="842" yMax="1588">
      <contour>
        <pt x="142" y="226" on="1"/>
        <pt x="142" y="1588" on="1"/>
        <pt x="842" y="1588" on="1"/>
        <pt x="842" y="226" on="1"/>
      </contour>
      <contour>
        <pt x="284" y="368" on="1"/>
        <pt x="700" y="368" on="1"/>
        <pt x="700" y="1447" on="1"/>
        <pt x="284" y="1447" on="1"/>
      </contour>
    </TTGlyph>
    <TTGlyph name="dotlessyehfinalarabic" xMin="142" yMin="226" xMax="842" yMax="1588">
      <contour>
        <pt x="142" y="226" on="1"/>
        <pt x="142" y="1588" on="1"/>
        <pt x="842" y="1588" on="1"/>
        <pt x="842" y="226" on="1"/>
      </contour>
      <contour>
        <pt x="284" y="368" on="1"/>
        <pt x="700" y="368" on="1"/>
        <pt x="700" y="1447" on="1"/>
        <pt x="284" y="1447" on="1"/>
      </contour>
    </TTGlyph>
    <TTGlyph name="dotlessyehinitialarabic" xMin="142" yMin="226" xMax="842" yMax="1588">
      <contour>
        <pt x="142" y="226" on="1"/>
        <pt x="142" y="1588" on="1"/>
        <pt x="842" y="1588" on="1"/>
        <pt x="842" y="226" on="1"/>
      </contour>
      <contour>
        <pt x="284" y="368" on="1"/>
        <pt x="700" y="368" on="1"/>
        <pt x="700" y="1447" on="1"/>
        <pt x="284" y="1447" on="1"/>
      </contour>
    </TTGlyph>
    <TTGlyph name="dotlessyehmedialarabic" xMin="142" yMin="226" xMax="842" yMax="1588">
      <contour>
        <pt x="142" y="226" on="1"/>
        <pt x="142" y="1588" on="1"/>
        <pt x="842" y="1588" on="1"/>
        <pt x="842" y="226" on="1"/>
      </contour>
      <contour>
        <pt x="284" y="368" on="1"/>
        <pt x="700" y="368" on="1"/>
        <pt x="700" y="1447" on="1"/>
        <pt x="284" y="1447" on="1"/>
      </contour>
    </TTGlyph>
    <TTGlyph name="elefmaksuramedial" xMin="142" yMin="226" xMax="842" yMax="1588">
      <contour>
        <pt x="142" y="226" on="1"/>
        <pt x="142" y="1588" on="1"/>
        <pt x="842" y="1588" on="1"/>
        <pt x="842" y="226" on="1"/>
      </contour>
      <contour>
        <pt x="284" y="368" on="1"/>
        <pt x="700" y="368" on="1"/>
        <pt x="700" y="1447" on="1"/>
        <pt x="284" y="1447" on="1"/>
      </contour>
    </TTGlyph>
    <TTGlyph name="ellipsis" xMin="142" yMin="226" xMax="842" yMax="1588">
      <contour>
        <pt x="142" y="226" on="1"/>
        <pt x="142" y="1588" on="1"/>
        <pt x="842" y="1588" on="1"/>
        <pt x="842" y="226" on="1"/>
      </contour>
      <contour>
        <pt x="284" y="368" on="1"/>
        <pt x="700" y="368" on="1"/>
        <pt x="700" y="1447" on="1"/>
        <pt x="284" y="1447" on="1"/>
      </contour>
    </TTGlyph>
    <TTGlyph name="emdash" xMin="245" yMin="-407" xMax="2294" yMax="1558">
      <contour>
        <pt x="2166" y="1470" on="1"/>
        <pt x="2167" y="1443" on="0"/>
        <pt x="2118" y="1408" on="1"/>
        <pt x="2063" y="1389" on="0"/>
        <pt x="1955" y="1350" on="1"/>
        <pt x="1877" y="1321" on="0"/>
        <pt x="1757" y="1259" on="1"/>
        <pt x="1576" y="1167" on="0"/>
        <pt x="1560" y="1160" on="1"/>
        <pt x="1518" y="1160" on="1"/>
        <pt x="1518" y="1194" on="1"/>
        <pt x="1518" y="1230" on="0"/>
        <pt x="1663" y="1303" on="1"/>
        <pt x="1743" y="1339" on="0"/>
        <pt x="1823" y="1375" on="1"/>
        <pt x="1925" y="1427" on="0"/>
        <pt x="2126" y="1506" on="1"/>
        <pt x="2166" y="1506" on="1"/>
      </contour>
      <contour>
        <pt x="1288" y="1528" on="1"/>
        <pt x="1288" y="1484" on="0"/>
        <pt x="1262" y="1467" on="1"/>
        <pt x="1227" y="1443" on="0"/>
        <pt x="1006" y="1330" on="1"/>
        <pt x="882" y="1265" on="0"/>
        <pt x="629" y="1139" on="1"/>
        <pt x="629" y="1142" on="0"/>
        <pt x="616" y="1170" on="0"/>
        <pt x="616" y="1185" on="1"/>
        <pt x="616" y="1221" on="0"/>
        <pt x="783" y="1308" on="1"/>
        <pt x="874" y="1352" on="0"/>
        <pt x="965" y="1396" on="1"/>
        <pt x="1094" y="1472" on="0"/>
        <pt x="1271" y="1558" on="1"/>
        <pt x="1288" y="1543" on="0"/>
      </contour>
      <contour>
        <pt x="2293" y="466" on="1"/>
        <pt x="2294" y="435" on="0"/>
        <pt x="2217" y="365" on="1"/>
        <pt x="2152" y="306" on="0"/>
        <pt x="2095" y="271" on="1"/>
        <pt x="2020" y="226" on="0"/>
        <pt x="1862" y="182" on="1"/>
        <pt x="1700" y="135" on="0"/>
        <pt x="1605" y="135" on="1"/>
        <pt x="1375" y="135" on="0"/>
        <pt x="1223" y="329" on="1"/>
        <pt x="1159" y="192" on="0"/>
        <pt x="1147" y="110" on="1"/>
        <pt x="1168" y="96" on="0"/>
        <pt x="1322" y="73" on="1"/>
        <pt x="1437" y="55" on="0"/>
        <pt x="1437" y="-18" on="1"/>
        <pt x="1437" y="-101" on="0"/>
        <pt x="1362" y="-167" on="1"/>
        <pt x="1253" y="-263" on="0"/>
        <pt x="1029" y="-337" on="1"/>
        <pt x="813" y="-407" on="0"/>
        <pt x="650" y="-407" on="1"/>
        <pt x="476" y="-407" on="0"/>
        <pt x="355" y="-300" on="1"/>
        <pt x="245" y="-200" on="0"/>
        <pt x="245" y="-74" on="1"/>
        <pt x="245" y="-4" on="0"/>
        <pt x="313" y="103" on="1"/>
        <pt x="390" y="223" on="0"/>
        <pt x="486" y="267" on="1"/>
        <pt x="486" y="229" on="1"/>
        <pt x="445" y="204" on="0"/>
        <pt x="408" y="126" on="1"/>
        <pt x="372" y="52" on="0"/>
        <pt x="372" y="2" on="1"/>
        <pt x="372" y="-108" on="0"/>
        <pt x="473" y="-184" on="1"/>
        <pt x="566" y="-253" on="0"/>
        <pt x="678" y="-253" on="1"/>
        <pt x="968" y="-253" on="0"/>
        <pt x="1264" y="-92" on="1"/>
        <pt x="1264" y="-67" on="1"/>
        <pt x="1211" y="-45" on="0"/>
        <pt x="1086" y="-28" on="1"/>
        <pt x="980" y="-15" on="0"/>
        <pt x="918" y="25" on="1"/>
        <pt x="916" y="30" on="0"/>
        <pt x="916" y="35" on="1"/>
        <pt x="916" y="67" on="0"/>
        <pt x="981" y="109" on="1"/>
        <pt x="1068" y="164" on="0"/>
        <pt x="1087" y="184" on="1"/>
        <pt x="1126" y="227" on="0"/>
        <pt x="1128" y="406" on="1"/>
        <pt x="1128" y="480" on="0"/>
        <pt x="1120" y="628" on="1"/>
        <pt x="1113" y="778" on="0"/>
        <pt x="1113" y="777" on="1"/>
        <pt x="1113" y="1030" on="1"/>
        <pt x="1113" y="1037" on="0"/>
        <pt x="1107" y="1067" on="1"/>
        <pt x="1101" y="1092" on="0"/>
        <pt x="1104" y="1104" on="1"/>
        <pt x="1130" y="1176" on="0"/>
        <pt x="1176" y="1230" on="1"/>
        <pt x="1196" y="1217" on="1"/>
        <pt x="1206" y="1134" on="0"/>
        <pt x="1206" y="893" on="1"/>
        <pt x="1206" y="715" on="0"/>
        <pt x="1280" y="535" on="1"/>
        <pt x="1370" y="314" on="0"/>
        <pt x="1509" y="319" on="1"/>
        <pt x="1516" y="333" on="0"/>
        <pt x="1507" y="368" on="1"/>
        <pt x="1496" y="409" on="0"/>
        <pt x="1496" y="417" on="1"/>
        <pt x="1496" y="466" on="0"/>
        <pt x="1679" y="719" on="0"/>
        <pt x="1741" y="754" on="1"/>
        <pt x="1795" y="786" on="0"/>
        <pt x="1821" y="791" on="1"/>
        <pt x="1820" y="791" on="0"/>
        <pt x="1877" y="791" on="1"/>
        <pt x="2010" y="791" on="0"/>
        <pt x="2155" y="652" on="1"/>
        <pt x="2127" y="627" on="0"/>
        <pt x="2109" y="627" on="1"/>
        <pt x="2094" y="627" on="0"/>
        <pt x="1962" y="677" on="0"/>
        <pt x="1947" y="677" on="1"/>
        <pt x="1882" y="677" on="0"/>
        <pt x="1771" y="634" on="1"/>
        <pt x="1635" y="582" on="0"/>
        <pt x="1635" y="519" on="1"/>
        <pt x="1635" y="473" on="0"/>
        <pt x="1702" y="398" on="1"/>
        <pt x="1773" y="319" on="0"/>
        <pt x="1830" y="319" on="1"/>
        <pt x="1910" y="319" on="0"/>
        <pt x="2205" y="461" on="0"/>
        <pt x="2251" y="523" on="1"/>
        <pt x="2293" y="523" on="1"/>
      </contour>
    </TTGlyph>
    <TTGlyph name="endash" xMin="245" yMin="-407" xMax="1270" yMax="1558">
      <contour>
        <pt x="1206" y="1470" on="1"/>
        <pt x="1206" y="1443" on="0"/>
        <pt x="1181" y="1408" on="1"/>
        <pt x="1154" y="1389" on="0"/>
        <pt x="1100" y="1350" on="1"/>
        <pt x="1061" y="1321" on="0"/>
        <pt x="1001" y="1259" on="1"/>
        <pt x="911" y="1167" on="0"/>
        <pt x="903" y="1160" on="1"/>
        <pt x="882" y="1160" on="1"/>
        <pt x="882" y="1194" on="1"/>
        <pt x="882" y="1230" on="0"/>
        <pt x="954" y="1303" on="1"/>
        <pt x="994" y="1339" on="0"/>
        <pt x="1034" y="1375" on="1"/>
        <pt x="1085" y="1427" on="0"/>
        <pt x="1185" y="1506" on="1"/>
        <pt x="1206" y="1506" on="1"/>
      </contour>
      <contour>
        <pt x="766" y="1528" on="1"/>
        <pt x="766" y="1484" on="0"/>
        <pt x="753" y="1467" on="1"/>
        <pt x="736" y="1443" on="0"/>
        <pt x="626" y="1330" on="1"/>
        <pt x="563" y="1265" on="0"/>
        <pt x="437" y="1139" on="1"/>
        <pt x="437" y="1142" on="0"/>
        <pt x="430" y="1170" on="0"/>
        <pt x="430" y="1185" on="1"/>
        <pt x="430" y="1221" on="0"/>
        <pt x="514" y="1308" on="1"/>
        <pt x="559" y="1352" on="0"/>
        <pt x="605" y="1396" on="1"/>
        <pt x="670" y="1472" on="0"/>
        <pt x="758" y="1558" on="1"/>
        <pt x="766" y="1543" on="0"/>
      </contour>
      <contour>
        <pt x="1269" y="466" on="1"/>
        <pt x="1270" y="435" on="0"/>
        <pt x="1231" y="365" on="1"/>
        <pt x="1198" y="306" on="0"/>
        <pt x="1170" y="271" on="1"/>
        <pt x="1133" y="226" on="0"/>
        <pt x="1054" y="182" on="1"/>
        <pt x="973" y="135" on="0"/>
        <pt x="925" y="135" on="1"/>
        <pt x="810" y="135" on="0"/>
        <pt x="734" y="329" on="1"/>
        <pt x="702" y="192" on="0"/>
        <pt x="696" y="110" on="1"/>
        <pt x="706" y="96" on="0"/>
        <pt x="783" y="73" on="1"/>
        <pt x="841" y="55" on="0"/>
        <pt x="841" y="-18" on="1"/>
        <pt x="841" y="-101" on="0"/>
        <pt x="804" y="-167" on="1"/>
        <pt x="749" y="-263" on="0"/>
        <pt x="637" y="-337" on="1"/>
        <pt x="529" y="-407" on="0"/>
        <pt x="447" y="-407" on="1"/>
        <pt x="360" y="-407" on="0"/>
        <pt x="300" y="-300" on="1"/>
        <pt x="245" y="-200" on="0"/>
        <pt x="245" y="-74" on="1"/>
        <pt x="245" y="-4" on="0"/>
        <pt x="279" y="103" on="1"/>
        <pt x="317" y="223" on="0"/>
        <pt x="365" y="267" on="1"/>
        <pt x="365" y="229" on="1"/>
        <pt x="345" y="204" on="0"/>
        <pt x="326" y="126" on="1"/>
        <pt x="308" y="52" on="0"/>
        <pt x="308" y="2" on="1"/>
        <pt x="308" y="-108" on="0"/>
        <pt x="359" y="-184" on="1"/>
        <pt x="406" y="-253" on="0"/>
        <pt x="462" y="-253" on="1"/>
        <pt x="606" y="-253" on="0"/>
        <pt x="754" y="-92" on="1"/>
        <pt x="754" y="-67" on="1"/>
        <pt x="728" y="-45" on="0"/>
        <pt x="666" y="-28" on="1"/>
        <pt x="613" y="-15" on="0"/>
        <pt x="581" y="25" on="1"/>
        <pt x="580" y="30" on="0"/>
        <pt x="580" y="35" on="1"/>
        <pt x="580" y="67" on="0"/>
        <pt x="613" y="109" on="1"/>
        <pt x="657" y="164" on="0"/>
        <pt x="666" y="184" on="1"/>
        <pt x="685" y="227" on="0"/>
        <pt x="687" y="406" on="1"/>
        <pt x="687" y="480" on="0"/>
        <pt x="683" y="628" on="1"/>
        <pt x="679" y="778" on="0"/>
        <pt x="679" y="777" on="1"/>
        <pt x="679" y="1030" on="1"/>
        <pt x="679" y="1037" on="0"/>
        <pt x="676" y="1067" on="1"/>
        <pt x="673" y="1092" on="0"/>
        <pt x="675" y="1104" on="1"/>
        <pt x="688" y="1176" on="0"/>
        <pt x="710" y="1230" on="1"/>
        <pt x="721" y="1217" on="1"/>
        <pt x="726" y="1134" on="0"/>
        <pt x="726" y="893" on="1"/>
        <pt x="726" y="715" on="0"/>
        <pt x="762" y="535" on="1"/>
        <pt x="808" y="314" on="0"/>
        <pt x="877" y="319" on="1"/>
        <pt x="881" y="333" on="0"/>
        <pt x="876" y="368" on="1"/>
        <pt x="870" y="409" on="0"/>
        <pt x="870" y="417" on="1"/>
        <pt x="870" y="466" on="0"/>
        <pt x="962" y="719" on="0"/>
        <pt x="993" y="754" on="1"/>
        <pt x="1020" y="786" on="0"/>
        <pt x="1033" y="791" on="1"/>
        <pt x="1033" y="791" on="0"/>
        <pt x="1061" y="791" on="1"/>
        <pt x="1128" y="791" on="0"/>
        <pt x="1200" y="652" on="1"/>
        <pt x="1186" y="627" on="0"/>
        <pt x="1177" y="627" on="1"/>
        <pt x="1169" y="627" on="0"/>
        <pt x="1103" y="677" on="0"/>
        <pt x="1096" y="677" on="1"/>
        <pt x="1064" y="677" on="0"/>
        <pt x="1008" y="634" on="1"/>
        <pt x="940" y="582" on="0"/>
        <pt x="940" y="519" on="1"/>
        <pt x="940" y="473" on="0"/>
        <pt x="973" y="398" on="1"/>
        <pt x="1009" y="319" on="0"/>
        <pt x="1038" y="319" on="1"/>
        <pt x="1077" y="319" on="0"/>
        <pt x="1225" y="461" on="0"/>
        <pt x="1248" y="523" on="1"/>
        <pt x="1269" y="523" on="1"/>
      </contour>
    </TTGlyph>
    <TTGlyph name="equal" xMin="142" yMin="226" xMax="842" yMax="1588">
      <contour>
        <pt x="142" y="226" on="1"/>
        <pt x="142" y="1588" on="1"/>
        <pt x="842" y="1588" on="1"/>
        <pt x="842" y="226" on="1"/>
      </contour>
      <contour>
        <pt x="284" y="368" on="1"/>
        <pt x="700" y="368" on="1"/>
        <pt x="700" y="1447" on="1"/>
        <pt x="284" y="1447" on="1"/>
      </contour>
    </TTGlyph>
    <TTGlyph name="exclam" xMin="142" yMin="226" xMax="842" yMax="1588">
      <contour>
        <pt x="142" y="226" on="1"/>
        <pt x="142" y="1588" on="1"/>
        <pt x="842" y="1588" on="1"/>
        <pt x="842" y="226" on="1"/>
      </contour>
      <contour>
        <pt x="284" y="368" on="1"/>
        <pt x="700" y="368" on="1"/>
        <pt x="700" y="1447" on="1"/>
        <pt x="284" y="1447" on="1"/>
      </contour>
    </TTGlyph>
    <TTGlyph name="figuredash" xMin="245" yMin="-407" xMax="2057" yMax="1558">
      <contour>
        <pt x="1944" y="1470" on="1"/>
        <pt x="1945" y="1443" on="0"/>
        <pt x="1901" y="1408" on="1"/>
        <pt x="1853" y="1389" on="0"/>
        <pt x="1757" y="1350" on="1"/>
        <pt x="1688" y="1321" on="0"/>
        <pt x="1582" y="1259" on="1"/>
        <pt x="1422" y="1167" on="0"/>
        <pt x="1408" y="1160" on="1"/>
        <pt x="1371" y="1160" on="1"/>
        <pt x="1371" y="1194" on="1"/>
        <pt x="1371" y="1230" on="0"/>
        <pt x="1499" y="1303" on="1"/>
        <pt x="1570" y="1339" on="0"/>
        <pt x="1640" y="1375" on="1"/>
        <pt x="1731" y="1427" on="0"/>
        <pt x="1908" y="1506" on="1"/>
        <pt x="1944" y="1506" on="1"/>
      </contour>
      <contour>
        <pt x="1167" y="1528" on="1"/>
        <pt x="1167" y="1484" on="0"/>
        <pt x="1144" y="1467" on="1"/>
        <pt x="1113" y="1443" on="0"/>
        <pt x="918" y="1330" on="1"/>
        <pt x="808" y="1265" on="0"/>
        <pt x="585" y="1139" on="1"/>
        <pt x="585" y="1142" on="0"/>
        <pt x="573" y="1170" on="0"/>
        <pt x="573" y="1185" on="1"/>
        <pt x="573" y="1221" on="0"/>
        <pt x="721" y="1308" on="1"/>
        <pt x="801" y="1352" on="0"/>
        <pt x="882" y="1396" on="1"/>
        <pt x="996" y="1472" on="0"/>
        <pt x="1152" y="1558" on="1"/>
        <pt x="1167" y="1543" on="0"/>
      </contour>
      <contour>
        <pt x="2056" y="466" on="1"/>
        <pt x="2057" y="435" on="0"/>
        <pt x="1989" y="365" on="1"/>
        <pt x="1931" y="306" on="0"/>
        <pt x="1881" y="271" on="1"/>
        <pt x="1815" y="226" on="0"/>
        <pt x="1675" y="182" on="1"/>
        <pt x="1532" y="135" on="0"/>
        <pt x="1448" y="135" on="1"/>
        <pt x="1244" y="135" on="0"/>
        <pt x="1110" y="329" on="1"/>
        <pt x="1053" y="192" on="0"/>
        <pt x="1043" y="110" on="1"/>
        <pt x="1061" y="96" on="0"/>
        <pt x="1197" y="73" on="1"/>
        <pt x="1299" y="55" on="0"/>
        <pt x="1299" y="-18" on="1"/>
        <pt x="1299" y="-101" on="0"/>
        <pt x="1233" y="-167" on="1"/>
        <pt x="1136" y="-263" on="0"/>
        <pt x="938" y="-337" on="1"/>
        <pt x="747" y="-407" on="0"/>
        <pt x="603" y="-407" on="1"/>
        <pt x="449" y="-407" on="0"/>
        <pt x="342" y="-300" on="1"/>
        <pt x="245" y="-200" on="0"/>
        <pt x="245" y="-74" on="1"/>
        <pt x="245" y="-4" on="0"/>
        <pt x="305" y="103" on="1"/>
        <pt x="373" y="223" on="0"/>
        <pt x="458" y="267" on="1"/>
        <pt x="458" y="229" on="1"/>
        <pt x="422" y="204" on="0"/>
        <pt x="389" y="126" on="1"/>
        <pt x="357" y="52" on="0"/>
        <pt x="357" y="2" on="1"/>
        <pt x="357" y="-108" on="0"/>
        <pt x="447" y="-184" on="1"/>
        <pt x="529" y="-253" on="0"/>
        <pt x="628" y="-253" on="1"/>
        <pt x="884" y="-253" on="0"/>
        <pt x="1146" y="-92" on="1"/>
        <pt x="1146" y="-67" on="1"/>
        <pt x="1099" y="-45" on="0"/>
        <pt x="989" y="-28" on="1"/>
        <pt x="895" y="-15" on="0"/>
        <pt x="840" y="25" on="1"/>
        <pt x="838" y="30" on="0"/>
        <pt x="838" y="35" on="1"/>
        <pt x="838" y="67" on="0"/>
        <pt x="896" y="109" on="1"/>
        <pt x="973" y="164" on="0"/>
        <pt x="990" y="184" on="1"/>
        <pt x="1024" y="227" on="0"/>
        <pt x="1026" y="406" on="1"/>
        <pt x="1026" y="480" on="0"/>
        <pt x="1019" y="628" on="1"/>
        <pt x="1013" y="778" on="0"/>
        <pt x="1013" y="777" on="1"/>
        <pt x="1013" y="1030" on="1"/>
        <pt x="1013" y="1037" on="0"/>
        <pt x="1007" y="1067" on="1"/>
        <pt x="1002" y="1092" on="0"/>
        <pt x="1005" y="1104" on="1"/>
        <pt x="1028" y="1176" on="0"/>
        <pt x="1068" y="1230" on="1"/>
        <pt x="1086" y="1217" on="1"/>
        <pt x="1095" y="1134" on="0"/>
        <pt x="1095" y="893" on="1"/>
        <pt x="1095" y="715" on="0"/>
        <pt x="1160" y="535" on="1"/>
        <pt x="1240" y="314" on="0"/>
        <pt x="1363" y="319" on="1"/>
        <pt x="1369" y="333" on="0"/>
        <pt x="1361" y="368" on="1"/>
        <pt x="1351" y="409" on="0"/>
        <pt x="1351" y="417" on="1"/>
        <pt x="1351" y="466" on="0"/>
        <pt x="1513" y="719" on="0"/>
        <pt x="1568" y="754" on="1"/>
        <pt x="1616" y="786" on="0"/>
        <pt x="1639" y="791" on="1"/>
        <pt x="1638" y="791" on="0"/>
        <pt x="1688" y="791" on="1"/>
        <pt x="1806" y="791" on="0"/>
        <pt x="1934" y="652" on="1"/>
        <pt x="1909" y="627" on="0"/>
        <pt x="1893" y="627" on="1"/>
        <pt x="1880" y="627" on="0"/>
        <pt x="1763" y="677" on="0"/>
        <pt x="1750" y="677" on="1"/>
        <pt x="1693" y="677" on="0"/>
        <pt x="1594" y="634" on="1"/>
        <pt x="1474" y="582" on="0"/>
        <pt x="1474" y="519" on="1"/>
        <pt x="1474" y="473" on="0"/>
        <pt x="1533" y="398" on="1"/>
        <pt x="1596" y="319" on="0"/>
        <pt x="1647" y="319" on="1"/>
        <pt x="1717" y="319" on="0"/>
        <pt x="1978" y="461" on="0"/>
        <pt x="2019" y="523" on="1"/>
        <pt x="2056" y="523" on="1"/>
      </contour>
    </TTGlyph>
    <TTGlyph name="gaffinalarabic" xMin="142" yMin="226" xMax="842" yMax="1588">
      <contour>
        <pt x="142" y="226" on="1"/>
        <pt x="142" y="1588" on="1"/>
        <pt x="842" y="1588" on="1"/>
        <pt x="842" y="226" on="1"/>
      </contour>
      <contour>
        <pt x="284" y="368" on="1"/>
        <pt x="700" y="368" on="1"/>
        <pt x="700" y="1447" on="1"/>
        <pt x="284" y="1447" on="1"/>
      </contour>
    </TTGlyph>
    <TTGlyph name="gafinitialarabic" xMin="142" yMin="226" xMax="842" yMax="1588">
      <contour>
        <pt x="142" y="226" on="1"/>
        <pt x="142" y="1588" on="1"/>
        <pt x="842" y="1588" on="1"/>
        <pt x="842" y="226" on="1"/>
      </contour>
      <contour>
        <pt x="284" y="368" on="1"/>
        <pt x="700" y="368" on="1"/>
        <pt x="700" y="1447" on="1"/>
        <pt x="284" y="1447" on="1"/>
      </contour>
    </TTGlyph>
    <TTGlyph name="gafmedialarabic" xMin="142" yMin="226" xMax="842" yMax="1588">
      <contour>
        <pt x="142" y="226" on="1"/>
        <pt x="142" y="1588" on="1"/>
        <pt x="842" y="1588" on="1"/>
        <pt x="842" y="226" on="1"/>
      </contour>
      <contour>
        <pt x="284" y="368" on="1"/>
        <pt x="700" y="368" on="1"/>
        <pt x="700" y="1447" on="1"/>
        <pt x="284" y="1447" on="1"/>
      </contour>
    </TTGlyph>
    <TTGlyph name="glyph41" xMin="142" yMin="226" xMax="842" yMax="1588">
      <contour>
        <pt x="142" y="226" on="1"/>
        <pt x="142" y="1588" on="1"/>
        <pt x="842" y="1588" on="1"/>
        <pt x="842" y="226" on="1"/>
      </contour>
      <contour>
        <pt x="284" y="368" on="1"/>
        <pt x="700" y="368" on="1"/>
        <pt x="700" y="1447" on="1"/>
        <pt x="284" y="1447" on="1"/>
      </contour>
    </TTGlyph>
    <TTGlyph name="glyph42" xMin="142" yMin="226" xMax="842" yMax="1588">
      <contour>
        <pt x="142" y="226" on="1"/>
        <pt x="142" y="1588" on="1"/>
        <pt x="842" y="1588" on="1"/>
        <pt x="842" y="226" on="1"/>
      </contour>
      <contour>
        <pt x="284" y="368" on="1"/>
        <pt x="700" y="368" on="1"/>
        <pt x="700" y="1447" on="1"/>
        <pt x="284" y="1447" on="1"/>
      </contour>
    </TTGlyph>
    <TTGlyph name="glyph43" xMin="142" yMin="226" xMax="842" yMax="1588">
      <contour>
        <pt x="142" y="226" on="1"/>
        <pt x="142" y="1588" on="1"/>
        <pt x="842" y="1588" on="1"/>
        <pt x="842" y="226" on="1"/>
      </contour>
      <contour>
        <pt x="284" y="368" on="1"/>
        <pt x="700" y="368" on="1"/>
        <pt x="700" y="1447" on="1"/>
        <pt x="284" y="1447" on="1"/>
      </contour>
    </TTGlyph>
    <TTGlyph name="glyph44" xMin="142" yMin="226" xMax="842" yMax="1588">
      <contour>
        <pt x="142" y="226" on="1"/>
        <pt x="142" y="1588" on="1"/>
        <pt x="842" y="1588" on="1"/>
        <pt x="842" y="226" on="1"/>
      </contour>
      <contour>
        <pt x="284" y="368" on="1"/>
        <pt x="700" y="368" on="1"/>
        <pt x="700" y="1447" on="1"/>
        <pt x="284" y="1447" on="1"/>
      </contour>
    </TTGlyph>
    <TTGlyph name="glyph45" xMin="142" yMin="226" xMax="842" yMax="1588">
      <contour>
        <pt x="142" y="226" on="1"/>
        <pt x="142" y="1588" on="1"/>
        <pt x="842" y="1588" on="1"/>
        <pt x="842" y="226" on="1"/>
      </contour>
      <contour>
        <pt x="284" y="368" on="1"/>
        <pt x="700" y="368" on="1"/>
        <pt x="700" y="1447" on="1"/>
        <pt x="284" y="1447" on="1"/>
      </contour>
    </TTGlyph>
    <TTGlyph name="glyph46" xMin="142" yMin="226" xMax="842" yMax="1588">
      <contour>
        <pt x="142" y="226" on="1"/>
        <pt x="142" y="1588" on="1"/>
        <pt x="842" y="1588" on="1"/>
        <pt x="842" y="226" on="1"/>
      </contour>
      <contour>
        <pt x="284" y="368" on="1"/>
        <pt x="700" y="368" on="1"/>
        <pt x="700" y="1447" on="1"/>
        <pt x="284" y="1447" on="1"/>
      </contour>
    </TTGlyph>
    <TTGlyph name="glyph47" xMin="142" yMin="226" xMax="842" yMax="1588">
      <contour>
        <pt x="142" y="226" on="1"/>
        <pt x="142" y="1588" on="1"/>
        <pt x="842" y="1588" on="1"/>
        <pt x="842" y="226" on="1"/>
      </contour>
      <contour>
        <pt x="284" y="368" on="1"/>
        <pt x="700" y="368" on="1"/>
        <pt x="700" y="1447" on="1"/>
        <pt x="284" y="1447" on="1"/>
      </contour>
    </TTGlyph>
    <TTGlyph name="glyph48" xMin="142" yMin="226" xMax="842" yMax="1588">
      <contour>
        <pt x="142" y="226" on="1"/>
        <pt x="142" y="1588" on="1"/>
        <pt x="842" y="1588" on="1"/>
        <pt x="842" y="226" on="1"/>
      </contour>
      <contour>
        <pt x="284" y="368" on="1"/>
        <pt x="700" y="368" on="1"/>
        <pt x="700" y="1447" on="1"/>
        <pt x="284" y="1447" on="1"/>
      </contour>
    </TTGlyph>
    <TTGlyph name="glyph50" xMin="142" yMin="226" xMax="842" yMax="1588">
      <contour>
        <pt x="142" y="226" on="1"/>
        <pt x="142" y="1588" on="1"/>
        <pt x="842" y="1588" on="1"/>
        <pt x="842" y="226" on="1"/>
      </contour>
      <contour>
        <pt x="284" y="368" on="1"/>
        <pt x="700" y="368" on="1"/>
        <pt x="700" y="1447" on="1"/>
        <pt x="284" y="1447" on="1"/>
      </contour>
    </TTGlyph>
    <TTGlyph name="glyph51" xMin="142" yMin="226" xMax="842" yMax="1588">
      <contour>
        <pt x="142" y="226" on="1"/>
        <pt x="142" y="1588" on="1"/>
        <pt x="842" y="1588" on="1"/>
        <pt x="842" y="226" on="1"/>
      </contour>
      <contour>
        <pt x="284" y="368" on="1"/>
        <pt x="700" y="368" on="1"/>
        <pt x="700" y="1447" on="1"/>
        <pt x="284" y="1447" on="1"/>
      </contour>
    </TTGlyph>
    <TTGlyph name="greater" xMin="142" yMin="226" xMax="842" yMax="1588">
      <contour>
        <pt x="142" y="226" on="1"/>
        <pt x="142" y="1588" on="1"/>
        <pt x="842" y="1588" on="1"/>
        <pt x="842" y="226" on="1"/>
      </contour>
      <contour>
        <pt x="284" y="368" on="1"/>
        <pt x="700" y="368" on="1"/>
        <pt x="700" y="1447" on="1"/>
        <pt x="284" y="1447" on="1"/>
      </contour>
    </TTGlyph>
    <TTGlyph name="hahhamzabovefinal" xMin="142" yMin="226" xMax="842" yMax="1588">
      <contour>
        <pt x="142" y="226" on="1"/>
        <pt x="142" y="1588" on="1"/>
        <pt x="842" y="1588" on="1"/>
        <pt x="842" y="226" on="1"/>
      </contour>
      <contour>
        <pt x="284" y="368" on="1"/>
        <pt x="700" y="368" on="1"/>
        <pt x="700" y="1447" on="1"/>
        <pt x="284" y="1447" on="1"/>
      </contour>
    </TTGlyph>
    <TTGlyph name="hahhamzaboveinitial" xMin="142" yMin="226" xMax="842" yMax="1588">
      <contour>
        <pt x="142" y="226" on="1"/>
        <pt x="142" y="1588" on="1"/>
        <pt x="842" y="1588" on="1"/>
        <pt x="842" y="226" on="1"/>
      </contour>
      <contour>
        <pt x="284" y="368" on="1"/>
        <pt x="700" y="368" on="1"/>
        <pt x="700" y="1447" on="1"/>
        <pt x="284" y="1447" on="1"/>
      </contour>
    </TTGlyph>
    <TTGlyph name="hahhamzabovemedial" xMin="142" yMin="226" xMax="842" yMax="1588">
      <contour>
        <pt x="142" y="226" on="1"/>
        <pt x="142" y="1588" on="1"/>
        <pt x="842" y="1588" on="1"/>
        <pt x="842" y="226" on="1"/>
      </contour>
      <contour>
        <pt x="284" y="368" on="1"/>
        <pt x="700" y="368" on="1"/>
        <pt x="700" y="1447" on="1"/>
        <pt x="284" y="1447" on="1"/>
      </contour>
    </TTGlyph>
    <TTGlyph name="hahthreedotsabovefinal" xMin="142" yMin="226" xMax="842" yMax="1588">
      <contour>
        <pt x="142" y="226" on="1"/>
        <pt x="142" y="1588" on="1"/>
        <pt x="842" y="1588" on="1"/>
        <pt x="842" y="226" on="1"/>
      </contour>
      <contour>
        <pt x="284" y="368" on="1"/>
        <pt x="700" y="368" on="1"/>
        <pt x="700" y="1447" on="1"/>
        <pt x="284" y="1447" on="1"/>
      </contour>
    </TTGlyph>
    <TTGlyph name="hahthreedotsaboveinitial" xMin="142" yMin="226" xMax="842" yMax="1588">
      <contour>
        <pt x="142" y="226" on="1"/>
        <pt x="142" y="1588" on="1"/>
        <pt x="842" y="1588" on="1"/>
        <pt x="842" y="226" on="1"/>
      </contour>
      <contour>
        <pt x="284" y="368" on="1"/>
        <pt x="700" y="368" on="1"/>
        <pt x="700" y="1447" on="1"/>
        <pt x="284" y="1447" on="1"/>
      </contour>
    </TTGlyph>
    <TTGlyph name="hahthreedotsabovemedial" xMin="142" yMin="226" xMax="842" yMax="1588">
      <contour>
        <pt x="142" y="226" on="1"/>
        <pt x="142" y="1588" on="1"/>
        <pt x="842" y="1588" on="1"/>
        <pt x="842" y="226" on="1"/>
      </contour>
      <contour>
        <pt x="284" y="368" on="1"/>
        <pt x="700" y="368" on="1"/>
        <pt x="700" y="1447" on="1"/>
        <pt x="284" y="1447" on="1"/>
      </contour>
    </TTGlyph>
    <TTGlyph name="hehdoachashmeefinalarabic" xMin="142" yMin="226" xMax="842" yMax="1588">
      <contour>
        <pt x="142" y="226" on="1"/>
        <pt x="142" y="1588" on="1"/>
        <pt x="842" y="1588" on="1"/>
        <pt x="842" y="226" on="1"/>
      </contour>
      <contour>
        <pt x="284" y="368" on="1"/>
        <pt x="700" y="368" on="1"/>
        <pt x="700" y="1447" on="1"/>
        <pt x="284" y="1447" on="1"/>
      </contour>
    </TTGlyph>
    <TTGlyph name="hehdoachashmeeinitialarabic" xMin="142" yMin="226" xMax="842" yMax="1588">
      <contour>
        <pt x="142" y="226" on="1"/>
        <pt x="142" y="1588" on="1"/>
        <pt x="842" y="1588" on="1"/>
        <pt x="842" y="226" on="1"/>
      </contour>
      <contour>
        <pt x="284" y="368" on="1"/>
        <pt x="700" y="368" on="1"/>
        <pt x="700" y="1447" on="1"/>
        <pt x="284" y="1447" on="1"/>
      </contour>
    </TTGlyph>
    <TTGlyph name="hehdoachashmeemedialarabic" xMin="142" yMin="226" xMax="842" yMax="1588">
      <contour>
        <pt x="142" y="226" on="1"/>
        <pt x="142" y="1588" on="1"/>
        <pt x="842" y="1588" on="1"/>
        <pt x="842" y="226" on="1"/>
      </contour>
      <contour>
        <pt x="284" y="368" on="1"/>
        <pt x="700" y="368" on="1"/>
        <pt x="700" y="1447" on="1"/>
        <pt x="284" y="1447" on="1"/>
      </contour>
    </TTGlyph>
    <TTGlyph name="hehfinalaltonearabic" xMin="142" yMin="226" xMax="842" yMax="1588">
      <contour>
        <pt x="142" y="226" on="1"/>
        <pt x="142" y="1588" on="1"/>
        <pt x="842" y="1588" on="1"/>
        <pt x="842" y="226" on="1"/>
      </contour>
      <contour>
        <pt x="284" y="368" on="1"/>
        <pt x="700" y="368" on="1"/>
        <pt x="700" y="1447" on="1"/>
        <pt x="284" y="1447" on="1"/>
      </contour>
    </TTGlyph>
    <TTGlyph name="hehhamzaabovefinalarabic" xMin="142" yMin="226" xMax="842" yMax="1588">
      <contour>
        <pt x="142" y="226" on="1"/>
        <pt x="142" y="1588" on="1"/>
        <pt x="842" y="1588" on="1"/>
        <pt x="842" y="226" on="1"/>
      </contour>
      <contour>
        <pt x="284" y="368" on="1"/>
        <pt x="700" y="368" on="1"/>
        <pt x="700" y="1447" on="1"/>
        <pt x="284" y="1447" on="1"/>
      </contour>
    </TTGlyph>
    <TTGlyph name="hehinitialaltonearabic" xMin="142" yMin="226" xMax="842" yMax="1588">
      <contour>
        <pt x="142" y="226" on="1"/>
        <pt x="142" y="1588" on="1"/>
        <pt x="842" y="1588" on="1"/>
        <pt x="842" y="226" on="1"/>
      </contour>
      <contour>
        <pt x="284" y="368" on="1"/>
        <pt x="700" y="368" on="1"/>
        <pt x="700" y="1447" on="1"/>
        <pt x="284" y="1447" on="1"/>
      </contour>
    </TTGlyph>
    <TTGlyph name="hehmedialaltonearabic" xMin="142" yMin="226" xMax="842" yMax="1588">
      <contour>
        <pt x="142" y="226" on="1"/>
        <pt x="142" y="1588" on="1"/>
        <pt x="842" y="1588" on="1"/>
        <pt x="842" y="226" on="1"/>
      </contour>
      <contour>
        <pt x="284" y="368" on="1"/>
        <pt x="700" y="368" on="1"/>
        <pt x="700" y="1447" on="1"/>
        <pt x="284" y="1447" on="1"/>
      </contour>
    </TTGlyph>
    <TTGlyph name="hyphen" xMin="245" yMin="-407" xMax="2057" yMax="1558">
      <contour>
        <pt x="1944" y="1470" on="1"/>
        <pt x="1945" y="1443" on="0"/>
        <pt x="1901" y="1408" on="1"/>
        <pt x="1853" y="1389" on="0"/>
        <pt x="1757" y="1350" on="1"/>
        <pt x="1688" y="1321" on="0"/>
        <pt x="1582" y="1259" on="1"/>
        <pt x="1422" y="1167" on="0"/>
        <pt x="1408" y="1160" on="1"/>
        <pt x="1371" y="1160" on="1"/>
        <pt x="1371" y="1194" on="1"/>
        <pt x="1371" y="1230" on="0"/>
        <pt x="1499" y="1303" on="1"/>
        <pt x="1570" y="1339" on="0"/>
        <pt x="1640" y="1375" on="1"/>
        <pt x="1731" y="1427" on="0"/>
        <pt x="1908" y="1506" on="1"/>
        <pt x="1944" y="1506" on="1"/>
      </contour>
      <contour>
        <pt x="1167" y="1528" on="1"/>
        <pt x="1167" y="1484" on="0"/>
        <pt x="1144" y="1467" on="1"/>
        <pt x="1113" y="1443" on="0"/>
        <pt x="918" y="1330" on="1"/>
        <pt x="808" y="1265" on="0"/>
        <pt x="585" y="1139" on="1"/>
        <pt x="585" y="1142" on="0"/>
        <pt x="573" y="1170" on="0"/>
        <pt x="573" y="1185" on="1"/>
        <pt x="573" y="1221" on="0"/>
        <pt x="721" y="1308" on="1"/>
        <pt x="801" y="1352" on="0"/>
        <pt x="882" y="1396" on="1"/>
        <pt x="996" y="1472" on="0"/>
        <pt x="1152" y="1558" on="1"/>
        <pt x="1167" y="1543" on="0"/>
      </contour>
      <contour>
        <pt x="2056" y="466" on="1"/>
        <pt x="2057" y="435" on="0"/>
        <pt x="1989" y="365" on="1"/>
        <pt x="1931" y="306" on="0"/>
        <pt x="1881" y="271" on="1"/>
        <pt x="1815" y="226" on="0"/>
        <pt x="1675" y="182" on="1"/>
        <pt x="1532" y="135" on="0"/>
        <pt x="1448" y="135" on="1"/>
        <pt x="1244" y="135" on="0"/>
        <pt x="1110" y="329" on="1"/>
        <pt x="1053" y="192" on="0"/>
        <pt x="1043" y="110" on="1"/>
        <pt x="1061" y="96" on="0"/>
        <pt x="1197" y="73" on="1"/>
        <pt x="1299" y="55" on="0"/>
        <pt x="1299" y="-18" on="1"/>
        <pt x="1299" y="-101" on="0"/>
        <pt x="1233" y="-167" on="1"/>
        <pt x="1136" y="-263" on="0"/>
        <pt x="938" y="-337" on="1"/>
        <pt x="747" y="-407" on="0"/>
        <pt x="603" y="-407" on="1"/>
        <pt x="449" y="-407" on="0"/>
        <pt x="342" y="-300" on="1"/>
        <pt x="245" y="-200" on="0"/>
        <pt x="245" y="-74" on="1"/>
        <pt x="245" y="-4" on="0"/>
        <pt x="305" y="103" on="1"/>
        <pt x="373" y="223" on="0"/>
        <pt x="458" y="267" on="1"/>
        <pt x="458" y="229" on="1"/>
        <pt x="422" y="204" on="0"/>
        <pt x="389" y="126" on="1"/>
        <pt x="357" y="52" on="0"/>
        <pt x="357" y="2" on="1"/>
        <pt x="357" y="-108" on="0"/>
        <pt x="447" y="-184" on="1"/>
        <pt x="529" y="-253" on="0"/>
        <pt x="628" y="-253" on="1"/>
        <pt x="884" y="-253" on="0"/>
        <pt x="1146" y="-92" on="1"/>
        <pt x="1146" y="-67" on="1"/>
        <pt x="1099" y="-45" on="0"/>
        <pt x="989" y="-28" on="1"/>
        <pt x="895" y="-15" on="0"/>
        <pt x="840" y="25" on="1"/>
        <pt x="838" y="30" on="0"/>
        <pt x="838" y="35" on="1"/>
        <pt x="838" y="67" on="0"/>
        <pt x="896" y="109" on="1"/>
        <pt x="973" y="164" on="0"/>
        <pt x="990" y="184" on="1"/>
        <pt x="1024" y="227" on="0"/>
        <pt x="1026" y="406" on="1"/>
        <pt x="1026" y="480" on="0"/>
        <pt x="1019" y="628" on="1"/>
        <pt x="1013" y="778" on="0"/>
        <pt x="1013" y="777" on="1"/>
        <pt x="1013" y="1030" on="1"/>
        <pt x="1013" y="1037" on="0"/>
        <pt x="1007" y="1067" on="1"/>
        <pt x="1002" y="1092" on="0"/>
        <pt x="1005" y="1104" on="1"/>
        <pt x="1028" y="1176" on="0"/>
        <pt x="1068" y="1230" on="1"/>
        <pt x="1086" y="1217" on="1"/>
        <pt x="1095" y="1134" on="0"/>
        <pt x="1095" y="893" on="1"/>
        <pt x="1095" y="715" on="0"/>
        <pt x="1160" y="535" on="1"/>
        <pt x="1240" y="314" on="0"/>
        <pt x="1363" y="319" on="1"/>
        <pt x="1369" y="333" on="0"/>
        <pt x="1361" y="368" on="1"/>
        <pt x="1351" y="409" on="0"/>
        <pt x="1351" y="417" on="1"/>
        <pt x="1351" y="466" on="0"/>
        <pt x="1513" y="719" on="0"/>
        <pt x="1568" y="754" on="1"/>
        <pt x="1616" y="786" on="0"/>
        <pt x="1639" y="791" on="1"/>
        <pt x="1638" y="791" on="0"/>
        <pt x="1688" y="791" on="1"/>
        <pt x="1806" y="791" on="0"/>
        <pt x="1934" y="652" on="1"/>
        <pt x="1909" y="627" on="0"/>
        <pt x="1893" y="627" on="1"/>
        <pt x="1880" y="627" on="0"/>
        <pt x="1763" y="677" on="0"/>
        <pt x="1750" y="677" on="1"/>
        <pt x="1693" y="677" on="0"/>
        <pt x="1594" y="634" on="1"/>
        <pt x="1474" y="582" on="0"/>
        <pt x="1474" y="519" on="1"/>
        <pt x="1474" y="473" on="0"/>
        <pt x="1533" y="398" on="1"/>
        <pt x="1596" y="319" on="0"/>
        <pt x="1647" y="319" on="1"/>
        <pt x="1717" y="319" on="0"/>
        <pt x="1978" y="461" on="0"/>
        <pt x="2019" y="523" on="1"/>
        <pt x="2056" y="523" on="1"/>
      </contour>
    </TTGlyph>
    <TTGlyph name="irghizufinal" xMin="142" yMin="226" xMax="842" yMax="1588">
      <contour>
        <pt x="142" y="226" on="1"/>
        <pt x="142" y="1588" on="1"/>
        <pt x="842" y="1588" on="1"/>
        <pt x="842" y="226" on="1"/>
      </contour>
      <contour>
        <pt x="284" y="368" on="1"/>
        <pt x="700" y="368" on="1"/>
        <pt x="700" y="1447" on="1"/>
        <pt x="284" y="1447" on="1"/>
      </contour>
    </TTGlyph>
    <TTGlyph name="jehfinalarabic" xMin="142" yMin="226" xMax="842" yMax="1588">
      <contour>
        <pt x="142" y="226" on="1"/>
        <pt x="142" y="1588" on="1"/>
        <pt x="842" y="1588" on="1"/>
        <pt x="842" y="226" on="1"/>
      </contour>
      <contour>
        <pt x="284" y="368" on="1"/>
        <pt x="700" y="368" on="1"/>
        <pt x="700" y="1447" on="1"/>
        <pt x="284" y="1447" on="1"/>
      </contour>
    </TTGlyph>
    <TTGlyph name="kafringfinal" xMin="142" yMin="226" xMax="842" yMax="1588">
      <contour>
        <pt x="142" y="226" on="1"/>
        <pt x="142" y="1588" on="1"/>
        <pt x="842" y="1588" on="1"/>
        <pt x="842" y="226" on="1"/>
      </contour>
      <contour>
        <pt x="284" y="368" on="1"/>
        <pt x="700" y="368" on="1"/>
        <pt x="700" y="1447" on="1"/>
        <pt x="284" y="1447" on="1"/>
      </contour>
    </TTGlyph>
    <TTGlyph name="kafringinitial" xMin="142" yMin="226" xMax="842" yMax="1588">
      <contour>
        <pt x="142" y="226" on="1"/>
        <pt x="142" y="1588" on="1"/>
        <pt x="842" y="1588" on="1"/>
        <pt x="842" y="226" on="1"/>
      </contour>
      <contour>
        <pt x="284" y="368" on="1"/>
        <pt x="700" y="368" on="1"/>
        <pt x="700" y="1447" on="1"/>
        <pt x="284" y="1447" on="1"/>
      </contour>
    </TTGlyph>
    <TTGlyph name="kafringmedial" xMin="142" yMin="226" xMax="842" yMax="1588">
      <contour>
        <pt x="142" y="226" on="1"/>
        <pt x="142" y="1588" on="1"/>
        <pt x="842" y="1588" on="1"/>
        <pt x="842" y="226" on="1"/>
      </contour>
      <contour>
        <pt x="284" y="368" on="1"/>
        <pt x="700" y="368" on="1"/>
        <pt x="700" y="1447" on="1"/>
        <pt x="284" y="1447" on="1"/>
      </contour>
    </TTGlyph>
    <TTGlyph name="kashidaautoarabic" xMin="142" yMin="226" xMax="842" yMax="1588">
      <contour>
        <pt x="142" y="226" on="1"/>
        <pt x="142" y="1588" on="1"/>
        <pt x="842" y="1588" on="1"/>
        <pt x="842" y="226" on="1"/>
      </contour>
      <contour>
        <pt x="284" y="368" on="1"/>
        <pt x="700" y="368" on="1"/>
        <pt x="700" y="1447" on="1"/>
        <pt x="284" y="1447" on="1"/>
      </contour>
    </TTGlyph>
    <TTGlyph name="kashidaautonosidebearingarabic" xMin="142" yMin="226" xMax="842" yMax="1588">
      <contour>
        <pt x="142" y="226" on="1"/>
        <pt x="142" y="1588" on="1"/>
        <pt x="842" y="1588" on="1"/>
        <pt x="842" y="226" on="1"/>
      </contour>
      <contour>
        <pt x="284" y="368" on="1"/>
        <pt x="700" y="368" on="1"/>
        <pt x="700" y="1447" on="1"/>
        <pt x="284" y="1447" on="1"/>
      </contour>
    </TTGlyph>
    <TTGlyph name="kehehfinalarabic" xMin="142" yMin="226" xMax="842" yMax="1588">
      <contour>
        <pt x="142" y="226" on="1"/>
        <pt x="142" y="1588" on="1"/>
        <pt x="842" y="1588" on="1"/>
        <pt x="842" y="226" on="1"/>
      </contour>
      <contour>
        <pt x="284" y="368" on="1"/>
        <pt x="700" y="368" on="1"/>
        <pt x="700" y="1447" on="1"/>
        <pt x="284" y="1447" on="1"/>
      </contour>
    </TTGlyph>
    <TTGlyph name="kehehinitialarabic" xMin="142" yMin="226" xMax="842" yMax="1588">
      <contour>
        <pt x="142" y="226" on="1"/>
        <pt x="142" y="1588" on="1"/>
        <pt x="842" y="1588" on="1"/>
        <pt x="842" y="226" on="1"/>
      </contour>
      <contour>
        <pt x="284" y="368" on="1"/>
        <pt x="700" y="368" on="1"/>
        <pt x="700" y="1447" on="1"/>
        <pt x="284" y="1447" on="1"/>
      </contour>
    </TTGlyph>
    <TTGlyph name="kehehmedialarabic" xMin="142" yMin="226" xMax="842" yMax="1588">
      <contour>
        <pt x="142" y="226" on="1"/>
        <pt x="142" y="1588" on="1"/>
        <pt x="842" y="1588" on="1"/>
        <pt x="842" y="226" on="1"/>
      </contour>
      <contour>
        <pt x="284" y="368" on="1"/>
        <pt x="700" y="368" on="1"/>
        <pt x="700" y="1447" on="1"/>
        <pt x="284" y="1447" on="1"/>
      </contour>
    </TTGlyph>
    <TTGlyph name="kirghizyifinal" xMin="142" yMin="226" xMax="842" yMax="1588">
      <contour>
        <pt x="142" y="226" on="1"/>
        <pt x="142" y="1588" on="1"/>
        <pt x="842" y="1588" on="1"/>
        <pt x="842" y="226" on="1"/>
      </contour>
      <contour>
        <pt x="284" y="368" on="1"/>
        <pt x="700" y="368" on="1"/>
        <pt x="700" y="1447" on="1"/>
        <pt x="284" y="1447" on="1"/>
      </contour>
    </TTGlyph>
    <TTGlyph name="lammeemjeeminitialarabic" xMin="142" yMin="226" xMax="842" yMax="1588">
      <contour>
        <pt x="142" y="226" on="1"/>
        <pt x="142" y="1588" on="1"/>
        <pt x="842" y="1588" on="1"/>
        <pt x="842" y="226" on="1"/>
      </contour>
      <contour>
        <pt x="284" y="368" on="1"/>
        <pt x="700" y="368" on="1"/>
        <pt x="700" y="1447" on="1"/>
        <pt x="284" y="1447" on="1"/>
      </contour>
    </TTGlyph>
    <TTGlyph name="lammeemkhahinitialarabic" xMin="142" yMin="226" xMax="842" yMax="1588">
      <contour>
        <pt x="142" y="226" on="1"/>
        <pt x="142" y="1588" on="1"/>
        <pt x="842" y="1588" on="1"/>
        <pt x="842" y="226" on="1"/>
      </contour>
      <contour>
        <pt x="284" y="368" on="1"/>
        <pt x="700" y="368" on="1"/>
        <pt x="700" y="1447" on="1"/>
        <pt x="284" y="1447" on="1"/>
      </contour>
    </TTGlyph>
    <TTGlyph name="lamthreedotsabovefinal" xMin="142" yMin="226" xMax="842" yMax="1588">
      <contour>
        <pt x="142" y="226" on="1"/>
        <pt x="142" y="1588" on="1"/>
        <pt x="842" y="1588" on="1"/>
        <pt x="842" y="226" on="1"/>
      </contour>
      <contour>
        <pt x="284" y="368" on="1"/>
        <pt x="700" y="368" on="1"/>
        <pt x="700" y="1447" on="1"/>
        <pt x="284" y="1447" on="1"/>
      </contour>
    </TTGlyph>
    <TTGlyph name="lamthreedotsaboveinitial" xMin="142" yMin="226" xMax="842" yMax="1588">
      <contour>
        <pt x="142" y="226" on="1"/>
        <pt x="142" y="1588" on="1"/>
        <pt x="842" y="1588" on="1"/>
        <pt x="842" y="226" on="1"/>
      </contour>
      <contour>
        <pt x="284" y="368" on="1"/>
        <pt x="700" y="368" on="1"/>
        <pt x="700" y="1447" on="1"/>
        <pt x="284" y="1447" on="1"/>
      </contour>
    </TTGlyph>
    <TTGlyph name="lamthreedotsabovemedial" xMin="142" yMin="226" xMax="842" yMax="1588">
      <contour>
        <pt x="142" y="226" on="1"/>
        <pt x="142" y="1588" on="1"/>
        <pt x="842" y="1588" on="1"/>
        <pt x="842" y="226" on="1"/>
      </contour>
      <contour>
        <pt x="284" y="368" on="1"/>
        <pt x="700" y="368" on="1"/>
        <pt x="700" y="1447" on="1"/>
        <pt x="284" y="1447" on="1"/>
      </contour>
    </TTGlyph>
    <TTGlyph name="less" xMin="142" yMin="226" xMax="842" yMax="1588">
      <contour>
        <pt x="142" y="226" on="1"/>
        <pt x="142" y="1588" on="1"/>
        <pt x="842" y="1588" on="1"/>
        <pt x="842" y="226" on="1"/>
      </contour>
      <contour>
        <pt x="284" y="368" on="1"/>
        <pt x="700" y="368" on="1"/>
        <pt x="700" y="1447" on="1"/>
        <pt x="284" y="1447" on="1"/>
      </contour>
    </TTGlyph>
    <TTGlyph name="meemmeemisolatedarabic" xMin="142" yMin="226" xMax="842" yMax="1588">
      <contour>
        <pt x="142" y="226" on="1"/>
        <pt x="142" y="1588" on="1"/>
        <pt x="842" y="1588" on="1"/>
        <pt x="842" y="226" on="1"/>
      </contour>
      <contour>
        <pt x="284" y="368" on="1"/>
        <pt x="700" y="368" on="1"/>
        <pt x="700" y="1447" on="1"/>
        <pt x="284" y="1447" on="1"/>
      </contour>
    </TTGlyph>
    <TTGlyph name="multiply" xMin="142" yMin="226" xMax="842" yMax="1588">
      <contour>
        <pt x="142" y="226" on="1"/>
        <pt x="142" y="1588" on="1"/>
        <pt x="842" y="1588" on="1"/>
        <pt x="842" y="226" on="1"/>
      </contour>
      <contour>
        <pt x="284" y="368" on="1"/>
        <pt x="700" y="368" on="1"/>
        <pt x="700" y="1447" on="1"/>
        <pt x="284" y="1447" on="1"/>
      </contour>
    </TTGlyph>
    <TTGlyph name="noonghunnafinalarabic" xMin="142" yMin="226" xMax="842" yMax="1588">
      <contour>
        <pt x="142" y="226" on="1"/>
        <pt x="142" y="1588" on="1"/>
        <pt x="842" y="1588" on="1"/>
        <pt x="842" y="226" on="1"/>
      </contour>
      <contour>
        <pt x="284" y="368" on="1"/>
        <pt x="700" y="368" on="1"/>
        <pt x="700" y="1447" on="1"/>
        <pt x="284" y="1447" on="1"/>
      </contour>
    </TTGlyph>
    <TTGlyph name="noonjeemisolatedarabic" xMin="142" yMin="226" xMax="842" yMax="1588">
      <contour>
        <pt x="142" y="226" on="1"/>
        <pt x="142" y="1588" on="1"/>
        <pt x="842" y="1588" on="1"/>
        <pt x="842" y="226" on="1"/>
      </contour>
      <contour>
        <pt x="284" y="368" on="1"/>
        <pt x="700" y="368" on="1"/>
        <pt x="700" y="1447" on="1"/>
        <pt x="284" y="1447" on="1"/>
      </contour>
    </TTGlyph>
    <TTGlyph name="noonmeemisolatedarabic" xMin="142" yMin="226" xMax="842" yMax="1588">
      <contour>
        <pt x="142" y="226" on="1"/>
        <pt x="142" y="1588" on="1"/>
        <pt x="842" y="1588" on="1"/>
        <pt x="842" y="226" on="1"/>
      </contour>
      <contour>
        <pt x="284" y="368" on="1"/>
        <pt x="700" y="368" on="1"/>
        <pt x="700" y="1447" on="1"/>
        <pt x="284" y="1447" on="1"/>
      </contour>
    </TTGlyph>
    <TTGlyph name="noonringfinal" xMin="142" yMin="226" xMax="842" yMax="1588">
      <contour>
        <pt x="142" y="226" on="1"/>
        <pt x="142" y="1588" on="1"/>
        <pt x="842" y="1588" on="1"/>
        <pt x="842" y="226" on="1"/>
      </contour>
      <contour>
        <pt x="284" y="368" on="1"/>
        <pt x="700" y="368" on="1"/>
        <pt x="700" y="1447" on="1"/>
        <pt x="284" y="1447" on="1"/>
      </contour>
    </TTGlyph>
    <TTGlyph name="noonringinitial" xMin="142" yMin="226" xMax="842" yMax="1588">
      <contour>
        <pt x="142" y="226" on="1"/>
        <pt x="142" y="1588" on="1"/>
        <pt x="842" y="1588" on="1"/>
        <pt x="842" y="226" on="1"/>
      </contour>
      <contour>
        <pt x="284" y="368" on="1"/>
        <pt x="700" y="368" on="1"/>
        <pt x="700" y="1447" on="1"/>
        <pt x="284" y="1447" on="1"/>
      </contour>
    </TTGlyph>
    <TTGlyph name="noonringmedial" xMin="142" yMin="226" xMax="842" yMax="1588">
      <contour>
        <pt x="142" y="226" on="1"/>
        <pt x="142" y="1588" on="1"/>
        <pt x="842" y="1588" on="1"/>
        <pt x="842" y="226" on="1"/>
      </contour>
      <contour>
        <pt x="284" y="368" on="1"/>
        <pt x="700" y="368" on="1"/>
        <pt x="700" y="1447" on="1"/>
        <pt x="284" y="1447" on="1"/>
      </contour>
    </TTGlyph>
    <TTGlyph name="numbersign" xMin="142" yMin="226" xMax="842" yMax="1588">
      <contour>
        <pt x="142" y="226" on="1"/>
        <pt x="142" y="1588" on="1"/>
        <pt x="842" y="1588" on="1"/>
        <pt x="842" y="226" on="1"/>
      </contour>
      <contour>
        <pt x="284" y="368" on="1"/>
        <pt x="700" y="368" on="1"/>
        <pt x="700" y="1447" on="1"/>
        <pt x="284" y="1447" on="1"/>
      </contour>
    </TTGlyph>
    <TTGlyph name="parenleft" xMin="142" yMin="226" xMax="842" yMax="1588">
      <contour>
        <pt x="142" y="226" on="1"/>
        <pt x="142" y="1588" on="1"/>
        <pt x="842" y="1588" on="1"/>
        <pt x="842" y="226" on="1"/>
      </contour>
      <contour>
        <pt x="284" y="368" on="1"/>
        <pt x="700" y="368" on="1"/>
        <pt x="700" y="1447" on="1"/>
        <pt x="284" y="1447" on="1"/>
      </contour>
    </TTGlyph>
    <TTGlyph name="parenright" xMin="142" yMin="226" xMax="842" yMax="1588">
      <contour>
        <pt x="142" y="226" on="1"/>
        <pt x="142" y="1588" on="1"/>
        <pt x="842" y="1588" on="1"/>
        <pt x="842" y="226" on="1"/>
      </contour>
      <contour>
        <pt x="284" y="368" on="1"/>
        <pt x="700" y="368" on="1"/>
        <pt x="700" y="1447" on="1"/>
        <pt x="284" y="1447" on="1"/>
      </contour>
    </TTGlyph>
    <TTGlyph name="pashtoefinal" xMin="142" yMin="226" xMax="842" yMax="1588">
      <contour>
        <pt x="142" y="226" on="1"/>
        <pt x="142" y="1588" on="1"/>
        <pt x="842" y="1588" on="1"/>
        <pt x="842" y="226" on="1"/>
      </contour>
      <contour>
        <pt x="284" y="368" on="1"/>
        <pt x="700" y="368" on="1"/>
        <pt x="700" y="1447" on="1"/>
        <pt x="284" y="1447" on="1"/>
      </contour>
    </TTGlyph>
    <TTGlyph name="pashtoeinitial" xMin="142" yMin="226" xMax="842" yMax="1588">
      <contour>
        <pt x="142" y="226" on="1"/>
        <pt x="142" y="1588" on="1"/>
        <pt x="842" y="1588" on="1"/>
        <pt x="842" y="226" on="1"/>
      </contour>
      <contour>
        <pt x="284" y="368" on="1"/>
        <pt x="700" y="368" on="1"/>
        <pt x="700" y="1447" on="1"/>
        <pt x="284" y="1447" on="1"/>
      </contour>
    </TTGlyph>
    <TTGlyph name="pashtoemedial" xMin="142" yMin="226" xMax="842" yMax="1588">
      <contour>
        <pt x="142" y="226" on="1"/>
        <pt x="142" y="1588" on="1"/>
        <pt x="842" y="1588" on="1"/>
        <pt x="842" y="226" on="1"/>
      </contour>
      <contour>
        <pt x="284" y="368" on="1"/>
        <pt x="700" y="368" on="1"/>
        <pt x="700" y="1447" on="1"/>
        <pt x="284" y="1447" on="1"/>
      </contour>
    </TTGlyph>
    <TTGlyph name="pehfinalarabic" xMin="142" yMin="226" xMax="842" yMax="1588">
      <contour>
        <pt x="142" y="226" on="1"/>
        <pt x="142" y="1588" on="1"/>
        <pt x="842" y="1588" on="1"/>
        <pt x="842" y="226" on="1"/>
      </contour>
      <contour>
        <pt x="284" y="368" on="1"/>
        <pt x="700" y="368" on="1"/>
        <pt x="700" y="1447" on="1"/>
        <pt x="284" y="1447" on="1"/>
      </contour>
    </TTGlyph>
    <TTGlyph name="pehinitialarabic" xMin="142" yMin="226" xMax="842" yMax="1588">
      <contour>
        <pt x="142" y="226" on="1"/>
        <pt x="142" y="1588" on="1"/>
        <pt x="842" y="1588" on="1"/>
        <pt x="842" y="226" on="1"/>
      </contour>
      <contour>
        <pt x="284" y="368" on="1"/>
        <pt x="700" y="368" on="1"/>
        <pt x="700" y="1447" on="1"/>
        <pt x="284" y="1447" on="1"/>
      </contour>
    </TTGlyph>
    <TTGlyph name="pehmedialarabic" xMin="142" yMin="226" xMax="842" yMax="1588">
      <contour>
        <pt x="142" y="226" on="1"/>
        <pt x="142" y="1588" on="1"/>
        <pt x="842" y="1588" on="1"/>
        <pt x="842" y="226" on="1"/>
      </contour>
      <contour>
        <pt x="284" y="368" on="1"/>
        <pt x="700" y="368" on="1"/>
        <pt x="700" y="1447" on="1"/>
        <pt x="284" y="1447" on="1"/>
      </contour>
    </TTGlyph>
    <TTGlyph name="percent" xMin="142" yMin="226" xMax="842" yMax="1588">
      <contour>
        <pt x="142" y="226" on="1"/>
        <pt x="142" y="1588" on="1"/>
        <pt x="842" y="1588" on="1"/>
        <pt x="842" y="226" on="1"/>
      </contour>
      <contour>
        <pt x="284" y="368" on="1"/>
        <pt x="700" y="368" on="1"/>
        <pt x="700" y="1447" on="1"/>
        <pt x="284" y="1447" on="1"/>
      </contour>
    </TTGlyph>
    <TTGlyph name="period" xMin="142" yMin="226" xMax="842" yMax="1588">
      <contour>
        <pt x="142" y="226" on="1"/>
        <pt x="142" y="1588" on="1"/>
        <pt x="842" y="1588" on="1"/>
        <pt x="842" y="226" on="1"/>
      </contour>
      <contour>
        <pt x="284" y="368" on="1"/>
        <pt x="700" y="368" on="1"/>
        <pt x="700" y="1447" on="1"/>
        <pt x="284" y="1447" on="1"/>
      </contour>
    </TTGlyph>
    <TTGlyph name="plus" xMin="142" yMin="226" xMax="842" yMax="1588">
      <contour>
        <pt x="142" y="226" on="1"/>
        <pt x="142" y="1588" on="1"/>
        <pt x="842" y="1588" on="1"/>
        <pt x="842" y="226" on="1"/>
      </contour>
      <contour>
        <pt x="284" y="368" on="1"/>
        <pt x="700" y="368" on="1"/>
        <pt x="700" y="1447" on="1"/>
        <pt x="284" y="1447" on="1"/>
      </contour>
    </TTGlyph>
    <TTGlyph name="quotedbl" xMin="142" yMin="226" xMax="842" yMax="1588">
      <contour>
        <pt x="142" y="226" on="1"/>
        <pt x="142" y="1588" on="1"/>
        <pt x="842" y="1588" on="1"/>
        <pt x="842" y="226" on="1"/>
      </contour>
      <contour>
        <pt x="284" y="368" on="1"/>
        <pt x="700" y="368" on="1"/>
        <pt x="700" y="1447" on="1"/>
        <pt x="284" y="1447" on="1"/>
      </contour>
    </TTGlyph>
    <TTGlyph name="quotesingle" xMin="142" yMin="226" xMax="842" yMax="1588">
      <contour>
        <pt x="142" y="226" on="1"/>
        <pt x="142" y="1588" on="1"/>
        <pt x="842" y="1588" on="1"/>
        <pt x="842" y="226" on="1"/>
      </contour>
      <contour>
        <pt x="284" y="368" on="1"/>
        <pt x="700" y="368" on="1"/>
        <pt x="700" y="1447" on="1"/>
        <pt x="284" y="1447" on="1"/>
      </contour>
    </TTGlyph>
    <TTGlyph name="rehdotbelowdotabovefinal" xMin="142" yMin="226" xMax="842" yMax="1588">
      <contour>
        <pt x="142" y="226" on="1"/>
        <pt x="142" y="1588" on="1"/>
        <pt x="842" y="1588" on="1"/>
        <pt x="842" y="226" on="1"/>
      </contour>
      <contour>
        <pt x="284" y="368" on="1"/>
        <pt x="700" y="368" on="1"/>
        <pt x="700" y="1447" on="1"/>
        <pt x="284" y="1447" on="1"/>
      </contour>
    </TTGlyph>
    <TTGlyph name="rehringfinal" xMin="142" yMin="226" xMax="842" yMax="1588">
      <contour>
        <pt x="142" y="226" on="1"/>
        <pt x="142" y="1588" on="1"/>
        <pt x="842" y="1588" on="1"/>
        <pt x="842" y="226" on="1"/>
      </contour>
      <contour>
        <pt x="284" y="368" on="1"/>
        <pt x="700" y="368" on="1"/>
        <pt x="700" y="1447" on="1"/>
        <pt x="284" y="1447" on="1"/>
      </contour>
    </TTGlyph>
    <TTGlyph name="rrehfinalarabic" xMin="142" yMin="226" xMax="842" yMax="1588">
      <contour>
        <pt x="142" y="226" on="1"/>
        <pt x="142" y="1588" on="1"/>
        <pt x="842" y="1588" on="1"/>
        <pt x="842" y="226" on="1"/>
      </contour>
      <contour>
        <pt x="284" y="368" on="1"/>
        <pt x="700" y="368" on="1"/>
        <pt x="700" y="1447" on="1"/>
        <pt x="284" y="1447" on="1"/>
      </contour>
    </TTGlyph>
    <TTGlyph name="seendotbelowdotabovefinal" xMin="142" yMin="226" xMax="842" yMax="1588">
      <contour>
        <pt x="142" y="226" on="1"/>
        <pt x="142" y="1588" on="1"/>
        <pt x="842" y="1588" on="1"/>
        <pt x="842" y="226" on="1"/>
      </contour>
      <contour>
        <pt x="284" y="368" on="1"/>
        <pt x="700" y="368" on="1"/>
        <pt x="700" y="1447" on="1"/>
        <pt x="284" y="1447" on="1"/>
      </contour>
    </TTGlyph>
    <TTGlyph name="seendotbelowdotaboveinitial" xMin="142" yMin="226" xMax="842" yMax="1588">
      <contour>
        <pt x="142" y="226" on="1"/>
        <pt x="142" y="1588" on="1"/>
        <pt x="842" y="1588" on="1"/>
        <pt x="842" y="226" on="1"/>
      </contour>
      <contour>
        <pt x="284" y="368" on="1"/>
        <pt x="700" y="368" on="1"/>
        <pt x="700" y="1447" on="1"/>
        <pt x="284" y="1447" on="1"/>
      </contour>
    </TTGlyph>
    <TTGlyph name="seendotbelowdotabovemedial" xMin="142" yMin="226" xMax="842" yMax="1588">
      <contour>
        <pt x="142" y="226" on="1"/>
        <pt x="142" y="1588" on="1"/>
        <pt x="842" y="1588" on="1"/>
        <pt x="842" y="226" on="1"/>
      </contour>
      <contour>
        <pt x="284" y="368" on="1"/>
        <pt x="700" y="368" on="1"/>
        <pt x="700" y="1447" on="1"/>
        <pt x="284" y="1447" on="1"/>
      </contour>
    </TTGlyph>
    <TTGlyph name="shaddadammaarabic" xMin="142" yMin="226" xMax="842" yMax="1588">
      <contour>
        <pt x="142" y="226" on="1"/>
        <pt x="142" y="1588" on="1"/>
        <pt x="842" y="1588" on="1"/>
        <pt x="842" y="226" on="1"/>
      </contour>
      <contour>
        <pt x="284" y="368" on="1"/>
        <pt x="700" y="368" on="1"/>
        <pt x="700" y="1447" on="1"/>
        <pt x="284" y="1447" on="1"/>
      </contour>
    </TTGlyph>
    <TTGlyph name="shaddadammatanarabic" xMin="142" yMin="226" xMax="842" yMax="1588">
      <contour>
        <pt x="142" y="226" on="1"/>
        <pt x="142" y="1588" on="1"/>
        <pt x="842" y="1588" on="1"/>
        <pt x="842" y="226" on="1"/>
      </contour>
      <contour>
        <pt x="284" y="368" on="1"/>
        <pt x="700" y="368" on="1"/>
        <pt x="700" y="1447" on="1"/>
        <pt x="284" y="1447" on="1"/>
      </contour>
    </TTGlyph>
    <TTGlyph name="shaddafathaarabic" xMin="142" yMin="226" xMax="842" yMax="1588">
      <contour>
        <pt x="142" y="226" on="1"/>
        <pt x="142" y="1588" on="1"/>
        <pt x="842" y="1588" on="1"/>
        <pt x="842" y="226" on="1"/>
      </contour>
      <contour>
        <pt x="284" y="368" on="1"/>
        <pt x="700" y="368" on="1"/>
        <pt x="700" y="1447" on="1"/>
        <pt x="284" y="1447" on="1"/>
      </contour>
    </TTGlyph>
    <TTGlyph name="shaddakasraarabic" xMin="142" yMin="226" xMax="842" yMax="1588">
      <contour>
        <pt x="142" y="226" on="1"/>
        <pt x="142" y="1588" on="1"/>
        <pt x="842" y="1588" on="1"/>
        <pt x="842" y="226" on="1"/>
      </contour>
      <contour>
        <pt x="284" y="368" on="1"/>
        <pt x="700" y="368" on="1"/>
        <pt x="700" y="1447" on="1"/>
        <pt x="284" y="1447" on="1"/>
      </contour>
    </TTGlyph>
    <TTGlyph name="shaddakasratanarabic" xMin="142" yMin="226" xMax="842" yMax="1588">
      <contour>
        <pt x="142" y="226" on="1"/>
        <pt x="142" y="1588" on="1"/>
        <pt x="842" y="1588" on="1"/>
        <pt x="842" y="226" on="1"/>
      </contour>
      <contour>
        <pt x="284" y="368" on="1"/>
        <pt x="700" y="368" on="1"/>
        <pt x="700" y="1447" on="1"/>
        <pt x="284" y="1447" on="1"/>
      </contour>
    </TTGlyph>
    <TTGlyph name="slash" xMin="142" yMin="226" xMax="842" yMax="1588">
      <contour>
        <pt x="142" y="226" on="1"/>
        <pt x="142" y="1588" on="1"/>
        <pt x="842" y="1588" on="1"/>
        <pt x="842" y="226" on="1"/>
      </contour>
      <contour>
        <pt x="284" y="368" on="1"/>
        <pt x="700" y="368" on="1"/>
        <pt x="700" y="1447" on="1"/>
        <pt x="284" y="1447" on="1"/>
      </contour>
    </TTGlyph>
    <TTGlyph name="space" xMin="142" yMin="226" xMax="842" yMax="1588">
      <contour>
        <pt x="142" y="226" on="1"/>
        <pt x="142" y="1588" on="1"/>
        <pt x="842" y="1588" on="1"/>
        <pt x="842" y="226" on="1"/>
      </contour>
      <contour>
        <pt x="284" y="368" on="1"/>
        <pt x="700" y="368" on="1"/>
        <pt x="700" y="1447" on="1"/>
        <pt x="284" y="1447" on="1"/>
      </contour>
    </TTGlyph>
    <TTGlyph name="tchehfinalarabic" xMin="142" yMin="226" xMax="842" yMax="1588">
      <contour>
        <pt x="142" y="226" on="1"/>
        <pt x="142" y="1588" on="1"/>
        <pt x="842" y="1588" on="1"/>
        <pt x="842" y="226" on="1"/>
      </contour>
      <contour>
        <pt x="284" y="368" on="1"/>
        <pt x="700" y="368" on="1"/>
        <pt x="700" y="1447" on="1"/>
        <pt x="284" y="1447" on="1"/>
      </contour>
    </TTGlyph>
    <TTGlyph name="tchehinitialarabic" xMin="142" yMin="226" xMax="842" yMax="1588">
      <contour>
        <pt x="142" y="226" on="1"/>
        <pt x="142" y="1588" on="1"/>
        <pt x="842" y="1588" on="1"/>
        <pt x="842" y="226" on="1"/>
      </contour>
      <contour>
        <pt x="284" y="368" on="1"/>
        <pt x="700" y="368" on="1"/>
        <pt x="700" y="1447" on="1"/>
        <pt x="284" y="1447" on="1"/>
      </contour>
    </TTGlyph>
    <TTGlyph name="tchehmedialarabic" xMin="142" yMin="226" xMax="842" yMax="1588">
      <contour>
        <pt x="142" y="226" on="1"/>
        <pt x="142" y="1588" on="1"/>
        <pt x="842" y="1588" on="1"/>
        <pt x="842" y="226" on="1"/>
      </contour>
      <contour>
        <pt x="284" y="368" on="1"/>
        <pt x="700" y="368" on="1"/>
        <pt x="700" y="1447" on="1"/>
        <pt x="284" y="1447" on="1"/>
      </contour>
    </TTGlyph>
    <TTGlyph name="tehhahisolatedarabic" xMin="142" yMin="226" xMax="842" yMax="1588">
      <contour>
        <pt x="142" y="226" on="1"/>
        <pt x="142" y="1588" on="1"/>
        <pt x="842" y="1588" on="1"/>
        <pt x="842" y="226" on="1"/>
      </contour>
      <contour>
        <pt x="284" y="368" on="1"/>
        <pt x="700" y="368" on="1"/>
        <pt x="700" y="1447" on="1"/>
        <pt x="284" y="1447" on="1"/>
      </contour>
    </TTGlyph>
    <TTGlyph name="tehjeemisolatedarabic" xMin="142" yMin="226" xMax="842" yMax="1588">
      <contour>
        <pt x="142" y="226" on="1"/>
        <pt x="142" y="1588" on="1"/>
        <pt x="842" y="1588" on="1"/>
        <pt x="842" y="226" on="1"/>
      </contour>
      <contour>
        <pt x="284" y="368" on="1"/>
        <pt x="700" y="368" on="1"/>
        <pt x="700" y="1447" on="1"/>
        <pt x="284" y="1447" on="1"/>
      </contour>
    </TTGlyph>
    <TTGlyph name="tehmeemisolatedarabic" xMin="142" yMin="226" xMax="842" yMax="1588">
      <contour>
        <pt x="142" y="226" on="1"/>
        <pt x="142" y="1588" on="1"/>
        <pt x="842" y="1588" on="1"/>
        <pt x="842" y="226" on="1"/>
      </contour>
      <contour>
        <pt x="284" y="368" on="1"/>
        <pt x="700" y="368" on="1"/>
        <pt x="700" y="1447" on="1"/>
        <pt x="284" y="1447" on="1"/>
      </contour>
    </TTGlyph>
    <TTGlyph name="tehnoonfinalarabic" xMin="142" yMin="226" xMax="842" yMax="1588">
      <contour>
        <pt x="142" y="226" on="1"/>
        <pt x="142" y="1588" on="1"/>
        <pt x="842" y="1588" on="1"/>
        <pt x="842" y="226" on="1"/>
      </contour>
      <contour>
        <pt x="284" y="368" on="1"/>
        <pt x="700" y="368" on="1"/>
        <pt x="700" y="1447" on="1"/>
        <pt x="284" y="1447" on="1"/>
      </contour>
    </TTGlyph>
    <TTGlyph name="tehringfinal" xMin="142" yMin="226" xMax="842" yMax="1588">
      <contour>
        <pt x="142" y="226" on="1"/>
        <pt x="142" y="1588" on="1"/>
        <pt x="842" y="1588" on="1"/>
        <pt x="842" y="226" on="1"/>
      </contour>
      <contour>
        <pt x="284" y="368" on="1"/>
        <pt x="700" y="368" on="1"/>
        <pt x="700" y="1447" on="1"/>
        <pt x="284" y="1447" on="1"/>
      </contour>
    </TTGlyph>
    <TTGlyph name="tehringinitial" xMin="142" yMin="226" xMax="842" yMax="1588">
      <contour>
        <pt x="142" y="226" on="1"/>
        <pt x="142" y="1588" on="1"/>
        <pt x="842" y="1588" on="1"/>
        <pt x="842" y="226" on="1"/>
      </contour>
      <contour>
        <pt x="284" y="368" on="1"/>
        <pt x="700" y="368" on="1"/>
        <pt x="700" y="1447" on="1"/>
        <pt x="284" y="1447" on="1"/>
      </contour>
    </TTGlyph>
    <TTGlyph name="tehringmedial" xMin="142" yMin="226" xMax="842" yMax="1588">
      <contour>
        <pt x="142" y="226" on="1"/>
        <pt x="142" y="1588" on="1"/>
        <pt x="842" y="1588" on="1"/>
        <pt x="842" y="226" on="1"/>
      </contour>
      <contour>
        <pt x="284" y="368" on="1"/>
        <pt x="700" y="368" on="1"/>
        <pt x="700" y="1447" on="1"/>
        <pt x="284" y="1447" on="1"/>
      </contour>
    </TTGlyph>
    <TTGlyph name="ttehfinalarabic" xMin="142" yMin="226" xMax="842" yMax="1588">
      <contour>
        <pt x="142" y="226" on="1"/>
        <pt x="142" y="1588" on="1"/>
        <pt x="842" y="1588" on="1"/>
        <pt x="842" y="226" on="1"/>
      </contour>
      <contour>
        <pt x="284" y="368" on="1"/>
        <pt x="700" y="368" on="1"/>
        <pt x="700" y="1447" on="1"/>
        <pt x="284" y="1447" on="1"/>
      </contour>
    </TTGlyph>
    <TTGlyph name="ttehinitialarabic" xMin="142" yMin="226" xMax="842" yMax="1588">
      <contour>
        <pt x="142" y="226" on="1"/>
        <pt x="142" y="1588" on="1"/>
        <pt x="842" y="1588" on="1"/>
        <pt x="842" y="226" on="1"/>
      </contour>
      <contour>
        <pt x="284" y="368" on="1"/>
        <pt x="700" y="368" on="1"/>
        <pt x="700" y="1447" on="1"/>
        <pt x="284" y="1447" on="1"/>
      </contour>
    </TTGlyph>
    <TTGlyph name="ttehmedialarabic" xMin="142" yMin="226" xMax="842" yMax="1588">
      <contour>
        <pt x="142" y="226" on="1"/>
        <pt x="142" y="1588" on="1"/>
        <pt x="842" y="1588" on="1"/>
        <pt x="842" y="226" on="1"/>
      </contour>
      <contour>
        <pt x="284" y="368" on="1"/>
        <pt x="700" y="368" on="1"/>
        <pt x="700" y="1447" on="1"/>
        <pt x="284" y="1447" on="1"/>
      </contour>
    </TTGlyph>
    <TTGlyph name="uni000D" xMin="142" yMin="226" xMax="842" yMax="1588">
      <contour>
        <pt x="142" y="226" on="1"/>
        <pt x="142" y="1588" on="1"/>
        <pt x="842" y="1588" on="1"/>
        <pt x="842" y="226" on="1"/>
      </contour>
      <contour>
        <pt x="284" y="368" on="1"/>
        <pt x="700" y="368" on="1"/>
        <pt x="700" y="1447" on="1"/>
        <pt x="284" y="1447" on="1"/>
      </contour>
    </TTGlyph>
    <TTGlyph name="uni00A0" xMin="142" yMin="226" xMax="842" yMax="1588">
      <contour>
        <pt x="142" y="226" on="1"/>
        <pt x="142" y="1588" on="1"/>
        <pt x="842" y="1588" on="1"/>
        <pt x="842" y="226" on="1"/>
      </contour>
      <contour>
        <pt x="284" y="368" on="1"/>
        <pt x="700" y="368" on="1"/>
        <pt x="700" y="1447" on="1"/>
        <pt x="284" y="1447" on="1"/>
      </contour>
    </TTGlyph>
    <TTGlyph name="uni00AD" xMin="142" yMin="226" xMax="842" yMax="1588">
      <contour>
        <pt x="142" y="226" on="1"/>
        <pt x="142" y="1588" on="1"/>
        <pt x="842" y="1588" on="1"/>
        <pt x="842" y="226" on="1"/>
      </contour>
      <contour>
        <pt x="284" y="368" on="1"/>
        <pt x="700" y="368" on="1"/>
        <pt x="700" y="1447" on="1"/>
        <pt x="284" y="1447" on="1"/>
      </contour>
    </TTGlyph>
    <TTGlyph name="uni0653" xMin="142" yMin="226" xMax="842" yMax="1588">
      <contour>
        <pt x="142" y="226" on="1"/>
        <pt x="142" y="1588" on="1"/>
        <pt x="842" y="1588" on="1"/>
        <pt x="842" y="226" on="1"/>
      </contour>
      <contour>
        <pt x="284" y="368" on="1"/>
        <pt x="700" y="368" on="1"/>
        <pt x="700" y="1447" on="1"/>
        <pt x="284" y="1447" on="1"/>
      </contour>
    </TTGlyph>
    <TTGlyph name="uni0654" xMin="142" yMin="226" xMax="842" yMax="1588">
      <contour>
        <pt x="142" y="226" on="1"/>
        <pt x="142" y="1588" on="1"/>
        <pt x="842" y="1588" on="1"/>
        <pt x="842" y="226" on="1"/>
      </contour>
      <contour>
        <pt x="284" y="368" on="1"/>
        <pt x="700" y="368" on="1"/>
        <pt x="700" y="1447" on="1"/>
        <pt x="284" y="1447" on="1"/>
      </contour>
    </TTGlyph>
    <TTGlyph name="uni0655" xMin="142" yMin="226" xMax="842" yMax="1588">
      <contour>
        <pt x="142" y="226" on="1"/>
        <pt x="142" y="1588" on="1"/>
        <pt x="842" y="1588" on="1"/>
        <pt x="842" y="226" on="1"/>
      </contour>
      <contour>
        <pt x="284" y="368" on="1"/>
        <pt x="700" y="368" on="1"/>
        <pt x="700" y="1447" on="1"/>
        <pt x="284" y="1447" on="1"/>
      </contour>
    </TTGlyph>
    <TTGlyph name="uni066B" xMin="142" yMin="226" xMax="842" yMax="1588">
      <contour>
        <pt x="142" y="226" on="1"/>
        <pt x="142" y="1588" on="1"/>
        <pt x="842" y="1588" on="1"/>
        <pt x="842" y="226" on="1"/>
      </contour>
      <contour>
        <pt x="284" y="368" on="1"/>
        <pt x="700" y="368" on="1"/>
        <pt x="700" y="1447" on="1"/>
        <pt x="284" y="1447" on="1"/>
      </contour>
    </TTGlyph>
    <TTGlyph name="uni066C" xMin="142" yMin="226" xMax="842" yMax="1588">
      <contour>
        <pt x="142" y="226" on="1"/>
        <pt x="142" y="1588" on="1"/>
        <pt x="842" y="1588" on="1"/>
        <pt x="842" y="226" on="1"/>
      </contour>
      <contour>
        <pt x="284" y="368" on="1"/>
        <pt x="700" y="368" on="1"/>
        <pt x="700" y="1447" on="1"/>
        <pt x="284" y="1447" on="1"/>
      </contour>
    </TTGlyph>
    <TTGlyph name="uni0671" xMin="142" yMin="226" xMax="842" yMax="1588">
      <contour>
        <pt x="142" y="226" on="1"/>
        <pt x="142" y="1588" on="1"/>
        <pt x="842" y="1588" on="1"/>
        <pt x="842" y="226" on="1"/>
      </contour>
      <contour>
        <pt x="284" y="368" on="1"/>
        <pt x="700" y="368" on="1"/>
        <pt x="700" y="1447" on="1"/>
        <pt x="284" y="1447" on="1"/>
      </contour>
    </TTGlyph>
    <TTGlyph name="uni067C" xMin="142" yMin="226" xMax="842" yMax="1588">
      <contour>
        <pt x="142" y="226" on="1"/>
        <pt x="142" y="1588" on="1"/>
        <pt x="842" y="1588" on="1"/>
        <pt x="842" y="226" on="1"/>
      </contour>
      <contour>
        <pt x="284" y="368" on="1"/>
        <pt x="700" y="368" on="1"/>
        <pt x="700" y="1447" on="1"/>
        <pt x="284" y="1447" on="1"/>
      </contour>
    </TTGlyph>
    <TTGlyph name="uni0681" xMin="142" yMin="226" xMax="842" yMax="1588">
      <contour>
        <pt x="142" y="226" on="1"/>
        <pt x="142" y="1588" on="1"/>
        <pt x="842" y="1588" on="1"/>
        <pt x="842" y="226" on="1"/>
      </contour>
      <contour>
        <pt x="284" y="368" on="1"/>
        <pt x="700" y="368" on="1"/>
        <pt x="700" y="1447" on="1"/>
        <pt x="284" y="1447" on="1"/>
      </contour>
    </TTGlyph>
    <TTGlyph name="uni0685" xMin="142" yMin="226" xMax="842" yMax="1588">
      <contour>
        <pt x="142" y="226" on="1"/>
        <pt x="142" y="1588" on="1"/>
        <pt x="842" y="1588" on="1"/>
        <pt x="842" y="226" on="1"/>
      </contour>
      <contour>
        <pt x="284" y="368" on="1"/>
        <pt x="700" y="368" on="1"/>
        <pt x="700" y="1447" on="1"/>
        <pt x="284" y="1447" on="1"/>
      </contour>
    </TTGlyph>
    <TTGlyph name="uni0689" xMin="142" yMin="226" xMax="842" yMax="1588">
      <contour>
        <pt x="142" y="226" on="1"/>
        <pt x="142" y="1588" on="1"/>
        <pt x="842" y="1588" on="1"/>
        <pt x="842" y="226" on="1"/>
      </contour>
      <contour>
        <pt x="284" y="368" on="1"/>
        <pt x="700" y="368" on="1"/>
        <pt x="700" y="1447" on="1"/>
        <pt x="284" y="1447" on="1"/>
      </contour>
    </TTGlyph>
    <TTGlyph name="uni0693" xMin="142" yMin="226" xMax="842" yMax="1588">
      <contour>
        <pt x="142" y="226" on="1"/>
        <pt x="142" y="1588" on="1"/>
        <pt x="842" y="1588" on="1"/>
        <pt x="842" y="226" on="1"/>
      </contour>
      <contour>
        <pt x="284" y="368" on="1"/>
        <pt x="700" y="368" on="1"/>
        <pt x="700" y="1447" on="1"/>
        <pt x="284" y="1447" on="1"/>
      </contour>
    </TTGlyph>
    <TTGlyph name="uni0696" xMin="142" yMin="226" xMax="842" yMax="1588">
      <contour>
        <pt x="142" y="226" on="1"/>
        <pt x="142" y="1588" on="1"/>
        <pt x="842" y="1588" on="1"/>
        <pt x="842" y="226" on="1"/>
      </contour>
      <contour>
        <pt x="284" y="368" on="1"/>
        <pt x="700" y="368" on="1"/>
        <pt x="700" y="1447" on="1"/>
        <pt x="284" y="1447" on="1"/>
      </contour>
    </TTGlyph>
    <TTGlyph name="uni069A" xMin="142" yMin="226" xMax="842" yMax="1588">
      <contour>
        <pt x="142" y="226" on="1"/>
        <pt x="142" y="1588" on="1"/>
        <pt x="842" y="1588" on="1"/>
        <pt x="842" y="226" on="1"/>
      </contour>
      <contour>
        <pt x="284" y="368" on="1"/>
        <pt x="700" y="368" on="1"/>
        <pt x="700" y="1447" on="1"/>
        <pt x="284" y="1447" on="1"/>
      </contour>
    </TTGlyph>
    <TTGlyph name="uni06A9" xMin="142" yMin="226" xMax="842" yMax="1588">
      <contour>
        <pt x="142" y="226" on="1"/>
        <pt x="142" y="1588" on="1"/>
        <pt x="842" y="1588" on="1"/>
        <pt x="842" y="226" on="1"/>
      </contour>
      <contour>
        <pt x="284" y="368" on="1"/>
        <pt x="700" y="368" on="1"/>
        <pt x="700" y="1447" on="1"/>
        <pt x="284" y="1447" on="1"/>
      </contour>
    </TTGlyph>
    <TTGlyph name="uni06AB" xMin="142" yMin="226" xMax="842" yMax="1588">
      <contour>
        <pt x="142" y="226" on="1"/>
        <pt x="142" y="1588" on="1"/>
        <pt x="842" y="1588" on="1"/>
        <pt x="842" y="226" on="1"/>
      </contour>
      <contour>
        <pt x="284" y="368" on="1"/>
        <pt x="700" y="368" on="1"/>
        <pt x="700" y="1447" on="1"/>
        <pt x="284" y="1447" on="1"/>
      </contour>
    </TTGlyph>
    <TTGlyph name="uni06B7" xMin="142" yMin="226" xMax="842" yMax="1588">
      <contour>
        <pt x="142" y="226" on="1"/>
        <pt x="142" y="1588" on="1"/>
        <pt x="842" y="1588" on="1"/>
        <pt x="842" y="226" on="1"/>
      </contour>
      <contour>
        <pt x="284" y="368" on="1"/>
        <pt x="700" y="368" on="1"/>
        <pt x="700" y="1447" on="1"/>
        <pt x="284" y="1447" on="1"/>
      </contour>
    </TTGlyph>
    <TTGlyph name="uni06BC" xMin="142" yMin="226" xMax="842" yMax="1588">
      <contour>
        <pt x="142" y="226" on="1"/>
        <pt x="142" y="1588" on="1"/>
        <pt x="842" y="1588" on="1"/>
        <pt x="842" y="226" on="1"/>
      </contour>
      <contour>
        <pt x="284" y="368" on="1"/>
        <pt x="700" y="368" on="1"/>
        <pt x="700" y="1447" on="1"/>
        <pt x="284" y="1447" on="1"/>
      </contour>
    </TTGlyph>
    <TTGlyph name="uni06BE" xMin="142" yMin="226" xMax="842" yMax="1588">
      <contour>
        <pt x="142" y="226" on="1"/>
        <pt x="142" y="1588" on="1"/>
        <pt x="842" y="1588" on="1"/>
        <pt x="842" y="226" on="1"/>
      </contour>
      <contour>
        <pt x="284" y="368" on="1"/>
        <pt x="700" y="368" on="1"/>
        <pt x="700" y="1447" on="1"/>
        <pt x="284" y="1447" on="1"/>
      </contour>
    </TTGlyph>
    <TTGlyph name="uni06C2" xMin="142" yMin="226" xMax="842" yMax="1588">
      <contour>
        <pt x="142" y="226" on="1"/>
        <pt x="142" y="1588" on="1"/>
        <pt x="842" y="1588" on="1"/>
        <pt x="842" y="226" on="1"/>
      </contour>
      <contour>
        <pt x="284" y="368" on="1"/>
        <pt x="700" y="368" on="1"/>
        <pt x="700" y="1447" on="1"/>
        <pt x="284" y="1447" on="1"/>
      </contour>
    </TTGlyph>
    <TTGlyph name="uni06C7" xMin="142" yMin="226" xMax="842" yMax="1588">
      <contour>
        <pt x="142" y="226" on="1"/>
        <pt x="142" y="1588" on="1"/>
        <pt x="842" y="1588" on="1"/>
        <pt x="842" y="226" on="1"/>
      </contour>
      <contour>
        <pt x="284" y="368" on="1"/>
        <pt x="700" y="368" on="1"/>
        <pt x="700" y="1447" on="1"/>
        <pt x="284" y="1447" on="1"/>
      </contour>
    </TTGlyph>
    <TTGlyph name="uni06C9" xMin="142" yMin="226" xMax="842" yMax="1588">
      <contour>
        <pt x="142" y="226" on="1"/>
        <pt x="142" y="1588" on="1"/>
        <pt x="842" y="1588" on="1"/>
        <pt x="842" y="226" on="1"/>
      </contour>
      <contour>
        <pt x="284" y="368" on="1"/>
        <pt x="700" y="368" on="1"/>
        <pt x="700" y="1447" on="1"/>
        <pt x="284" y="1447" on="1"/>
      </contour>
    </TTGlyph>
    <TTGlyph name="uni06CC" xMin="142" yMin="226" xMax="842" yMax="1588">
      <contour>
        <pt x="142" y="226" on="1"/>
        <pt x="142" y="1588" on="1"/>
        <pt x="842" y="1588" on="1"/>
        <pt x="842" y="226" on="1"/>
      </contour>
      <contour>
        <pt x="284" y="368" on="1"/>
        <pt x="700" y="368" on="1"/>
        <pt x="700" y="1447" on="1"/>
        <pt x="284" y="1447" on="1"/>
      </contour>
    </TTGlyph>
    <TTGlyph name="uni06CD" xMin="142" yMin="226" xMax="842" yMax="1588">
      <contour>
        <pt x="142" y="226" on="1"/>
        <pt x="142" y="1588" on="1"/>
        <pt x="842" y="1588" on="1"/>
        <pt x="842" y="226" on="1"/>
      </contour>
      <contour>
        <pt x="284" y="368" on="1"/>
        <pt x="700" y="368" on="1"/>
        <pt x="700" y="1447" on="1"/>
        <pt x="284" y="1447" on="1"/>
      </contour>
    </TTGlyph>
    <TTGlyph name="uni06D0" xMin="142" yMin="226" xMax="842" yMax="1588">
      <contour>
        <pt x="142" y="226" on="1"/>
        <pt x="142" y="1588" on="1"/>
        <pt x="842" y="1588" on="1"/>
        <pt x="842" y="226" on="1"/>
      </contour>
      <contour>
        <pt x="284" y="368" on="1"/>
        <pt x="700" y="368" on="1"/>
        <pt x="700" y="1447" on="1"/>
        <pt x="284" y="1447" on="1"/>
      </contour>
    </TTGlyph>
    <TTGlyph name="uni06D1" xMin="142" yMin="226" xMax="842" yMax="1588">
      <contour>
        <pt x="142" y="226" on="1"/>
        <pt x="142" y="1588" on="1"/>
        <pt x="842" y="1588" on="1"/>
        <pt x="842" y="226" on="1"/>
      </contour>
      <contour>
        <pt x="284" y="368" on="1"/>
        <pt x="700" y="368" on="1"/>
        <pt x="700" y="1447" on="1"/>
        <pt x="284" y="1447" on="1"/>
      </contour>
    </TTGlyph>
    <TTGlyph name="uni06D3" xMin="142" yMin="226" xMax="842" yMax="1588">
      <contour>
        <pt x="142" y="226" on="1"/>
        <pt x="142" y="1588" on="1"/>
        <pt x="842" y="1588" on="1"/>
        <pt x="842" y="226" on="1"/>
      </contour>
      <contour>
        <pt x="284" y="368" on="1"/>
        <pt x="700" y="368" on="1"/>
        <pt x="700" y="1447" on="1"/>
        <pt x="284" y="1447" on="1"/>
      </contour>
    </TTGlyph>
    <TTGlyph name="uni06D4" xMin="142" yMin="226" xMax="842" yMax="1588">
      <contour>
        <pt x="142" y="226" on="1"/>
        <pt x="142" y="1588" on="1"/>
        <pt x="842" y="1588" on="1"/>
        <pt x="842" y="226" on="1"/>
      </contour>
      <contour>
        <pt x="284" y="368" on="1"/>
        <pt x="700" y="368" on="1"/>
        <pt x="700" y="1447" on="1"/>
        <pt x="284" y="1447" on="1"/>
      </contour>
    </TTGlyph>
    <TTGlyph name="uni06F0" xMin="142" yMin="226" xMax="842" yMax="1588">
      <contour>
        <pt x="142" y="226" on="1"/>
        <pt x="142" y="1588" on="1"/>
        <pt x="842" y="1588" on="1"/>
        <pt x="842" y="226" on="1"/>
      </contour>
      <contour>
        <pt x="284" y="368" on="1"/>
        <pt x="700" y="368" on="1"/>
        <pt x="700" y="1447" on="1"/>
        <pt x="284" y="1447" on="1"/>
      </contour>
    </TTGlyph>
    <TTGlyph name="uni06F1" xMin="142" yMin="226" xMax="842" yMax="1588">
      <contour>
        <pt x="142" y="226" on="1"/>
        <pt x="142" y="1588" on="1"/>
        <pt x="842" y="1588" on="1"/>
        <pt x="842" y="226" on="1"/>
      </contour>
      <contour>
        <pt x="284" y="368" on="1"/>
        <pt x="700" y="368" on="1"/>
        <pt x="700" y="1447" on="1"/>
        <pt x="284" y="1447" on="1"/>
      </contour>
    </TTGlyph>
    <TTGlyph name="uni06F2" xMin="142" yMin="226" xMax="842" yMax="1588">
      <contour>
        <pt x="142" y="226" on="1"/>
        <pt x="142" y="1588" on="1"/>
        <pt x="842" y="1588" on="1"/>
        <pt x="842" y="226" on="1"/>
      </contour>
      <contour>
        <pt x="284" y="368" on="1"/>
        <pt x="700" y="368" on="1"/>
        <pt x="700" y="1447" on="1"/>
        <pt x="284" y="1447" on="1"/>
      </contour>
    </TTGlyph>
    <TTGlyph name="uni06F3" xMin="142" yMin="226" xMax="842" yMax="1588">
      <contour>
        <pt x="142" y="226" on="1"/>
        <pt x="142" y="1588" on="1"/>
        <pt x="842" y="1588" on="1"/>
        <pt x="842" y="226" on="1"/>
      </contour>
      <contour>
        <pt x="284" y="368" on="1"/>
        <pt x="700" y="368" on="1"/>
        <pt x="700" y="1447" on="1"/>
        <pt x="284" y="1447" on="1"/>
      </contour>
    </TTGlyph>
    <TTGlyph name="uni06F4" xMin="142" yMin="226" xMax="842" yMax="1588">
      <contour>
        <pt x="142" y="226" on="1"/>
        <pt x="142" y="1588" on="1"/>
        <pt x="842" y="1588" on="1"/>
        <pt x="842" y="226" on="1"/>
      </contour>
      <contour>
        <pt x="284" y="368" on="1"/>
        <pt x="700" y="368" on="1"/>
        <pt x="700" y="1447" on="1"/>
        <pt x="284" y="1447" on="1"/>
      </contour>
    </TTGlyph>
    <TTGlyph name="uni06F5" xMin="142" yMin="226" xMax="842" yMax="1588">
      <contour>
        <pt x="142" y="226" on="1"/>
        <pt x="142" y="1588" on="1"/>
        <pt x="842" y="1588" on="1"/>
        <pt x="842" y="226" on="1"/>
      </contour>
      <contour>
        <pt x="284" y="368" on="1"/>
        <pt x="700" y="368" on="1"/>
        <pt x="700" y="1447" on="1"/>
        <pt x="284" y="1447" on="1"/>
      </contour>
    </TTGlyph>
    <TTGlyph name="uni06F6" xMin="142" yMin="226" xMax="842" yMax="1588">
      <contour>
        <pt x="142" y="226" on="1"/>
        <pt x="142" y="1588" on="1"/>
        <pt x="842" y="1588" on="1"/>
        <pt x="842" y="226" on="1"/>
      </contour>
      <contour>
        <pt x="284" y="368" on="1"/>
        <pt x="700" y="368" on="1"/>
        <pt x="700" y="1447" on="1"/>
        <pt x="284" y="1447" on="1"/>
      </contour>
    </TTGlyph>
    <TTGlyph name="uni06F7" xMin="142" yMin="226" xMax="842" yMax="1588">
      <contour>
        <pt x="142" y="226" on="1"/>
        <pt x="142" y="1588" on="1"/>
        <pt x="842" y="1588" on="1"/>
        <pt x="842" y="226" on="1"/>
      </contour>
      <contour>
        <pt x="284" y="368" on="1"/>
        <pt x="700" y="368" on="1"/>
        <pt x="700" y="1447" on="1"/>
        <pt x="284" y="1447" on="1"/>
      </contour>
    </TTGlyph>
    <TTGlyph name="uni06F8" xMin="142" yMin="226" xMax="842" yMax="1588">
      <contour>
        <pt x="142" y="226" on="1"/>
        <pt x="142" y="1588" on="1"/>
        <pt x="842" y="1588" on="1"/>
        <pt x="842" y="226" on="1"/>
      </contour>
      <contour>
        <pt x="284" y="368" on="1"/>
        <pt x="700" y="368" on="1"/>
        <pt x="700" y="1447" on="1"/>
        <pt x="284" y="1447" on="1"/>
      </contour>
    </TTGlyph>
    <TTGlyph name="uni06F9" xMin="142" yMin="226" xMax="842" yMax="1588">
      <contour>
        <pt x="142" y="226" on="1"/>
        <pt x="142" y="1588" on="1"/>
        <pt x="842" y="1588" on="1"/>
        <pt x="842" y="226" on="1"/>
      </contour>
      <contour>
        <pt x="284" y="368" on="1"/>
        <pt x="700" y="368" on="1"/>
        <pt x="700" y="1447" on="1"/>
        <pt x="284" y="1447" on="1"/>
      </contour>
    </TTGlyph>
    <TTGlyph name="uni2010" xMin="245" yMin="-407" xMax="2057" yMax="1558">
      <contour>
        <pt x="1944" y="1470" on="1"/>
        <pt x="1945" y="1443" on="0"/>
        <pt x="1901" y="1408" on="1"/>
        <pt x="1853" y="1389" on="0"/>
        <pt x="1757" y="1350" on="1"/>
        <pt x="1688" y="1321" on="0"/>
        <pt x="1582" y="1259" on="1"/>
        <pt x="1422" y="1167" on="0"/>
        <pt x="1408" y="1160" on="1"/>
        <pt x="1371" y="1160" on="1"/>
        <pt x="1371" y="1194" on="1"/>
        <pt x="1371" y="1230" on="0"/>
        <pt x="1499" y="1303" on="1"/>
        <pt x="1570" y="1339" on="0"/>
        <pt x="1640" y="1375" on="1"/>
        <pt x="1731" y="1427" on="0"/>
        <pt x="1908" y="1506" on="1"/>
        <pt x="1944" y="1506" on="1"/>
      </contour>
      <contour>
        <pt x="1167" y="1528" on="1"/>
        <pt x="1167" y="1484" on="0"/>
        <pt x="1144" y="1467" on="1"/>
        <pt x="1113" y="1443" on="0"/>
        <pt x="918" y="1330" on="1"/>
        <pt x="808" y="1265" on="0"/>
        <pt x="585" y="1139" on="1"/>
        <pt x="585" y="1142" on="0"/>
        <pt x="573" y="1170" on="0"/>
        <pt x="573" y="1185" on="1"/>
        <pt x="573" y="1221" on="0"/>
        <pt x="721" y="1308" on="1"/>
        <pt x="801" y="1352" on="0"/>
        <pt x="882" y="1396" on="1"/>
        <pt x="996" y="1472" on="0"/>
        <pt x="1152" y="1558" on="1"/>
        <pt x="1167" y="1543" on="0"/>
      </contour>
      <contour>
        <pt x="2056" y="466" on="1"/>
        <pt x="2057" y="435" on="0"/>
        <pt x="1989" y="365" on="1"/>
        <pt x="1931" y="306" on="0"/>
        <pt x="1881" y="271" on="1"/>
        <pt x="1815" y="226" on="0"/>
        <pt x="1675" y="182" on="1"/>
        <pt x="1532" y="135" on="0"/>
        <pt x="1448" y="135" on="1"/>
        <pt x="1244" y="135" on="0"/>
        <pt x="1110" y="329" on="1"/>
        <pt x="1053" y="192" on="0"/>
        <pt x="1043" y="110" on="1"/>
        <pt x="1061" y="96" on="0"/>
        <pt x="1197" y="73" on="1"/>
        <pt x="1299" y="55" on="0"/>
        <pt x="1299" y="-18" on="1"/>
        <pt x="1299" y="-101" on="0"/>
        <pt x="1233" y="-167" on="1"/>
        <pt x="1136" y="-263" on="0"/>
        <pt x="938" y="-337" on="1"/>
        <pt x="747" y="-407" on="0"/>
        <pt x="603" y="-407" on="1"/>
        <pt x="449" y="-407" on="0"/>
        <pt x="342" y="-300" on="1"/>
        <pt x="245" y="-200" on="0"/>
        <pt x="245" y="-74" on="1"/>
        <pt x="245" y="-4" on="0"/>
        <pt x="305" y="103" on="1"/>
        <pt x="373" y="223" on="0"/>
        <pt x="458" y="267" on="1"/>
        <pt x="458" y="229" on="1"/>
        <pt x="422" y="204" on="0"/>
        <pt x="389" y="126" on="1"/>
        <pt x="357" y="52" on="0"/>
        <pt x="357" y="2" on="1"/>
        <pt x="357" y="-108" on="0"/>
        <pt x="447" y="-184" on="1"/>
        <pt x="529" y="-253" on="0"/>
        <pt x="628" y="-253" on="1"/>
        <pt x="884" y="-253" on="0"/>
        <pt x="1146" y="-92" on="1"/>
        <pt x="1146" y="-67" on="1"/>
        <pt x="1099" y="-45" on="0"/>
        <pt x="989" y="-28" on="1"/>
        <pt x="895" y="-15" on="0"/>
        <pt x="840" y="25" on="1"/>
        <pt x="838" y="30" on="0"/>
        <pt x="838" y="35" on="1"/>
        <pt x="838" y="67" on="0"/>
        <pt x="896" y="109" on="1"/>
        <pt x="973" y="164" on="0"/>
        <pt x="990" y="184" on="1"/>
        <pt x="1024" y="227" on="0"/>
        <pt x="1026" y="406" on="1"/>
        <pt x="1026" y="480" on="0"/>
        <pt x="1019" y="628" on="1"/>
        <pt x="1013" y="778" on="0"/>
        <pt x="1013" y="777" on="1"/>
        <pt x="1013" y="1030" on="1"/>
        <pt x="1013" y="1037" on="0"/>
        <pt x="1007" y="1067" on="1"/>
        <pt x="1002" y="1092" on="0"/>
        <pt x="1005" y="1104" on="1"/>
        <pt x="1028" y="1176" on="0"/>
        <pt x="1068" y="1230" on="1"/>
        <pt x="1086" y="1217" on="1"/>
        <pt x="1095" y="1134" on="0"/>
        <pt x="1095" y="893" on="1"/>
        <pt x="1095" y="715" on="0"/>
        <pt x="1160" y="535" on="1"/>
        <pt x="1240" y="314" on="0"/>
        <pt x="1363" y="319" on="1"/>
        <pt x="1369" y="333" on="0"/>
        <pt x="1361" y="368" on="1"/>
        <pt x="1351" y="409" on="0"/>
        <pt x="1351" y="417" on="1"/>
        <pt x="1351" y="466" on="0"/>
        <pt x="1513" y="719" on="0"/>
        <pt x="1568" y="754" on="1"/>
        <pt x="1616" y="786" on="0"/>
        <pt x="1639" y="791" on="1"/>
        <pt x="1638" y="791" on="0"/>
        <pt x="1688" y="791" on="1"/>
        <pt x="1806" y="791" on="0"/>
        <pt x="1934" y="652" on="1"/>
        <pt x="1909" y="627" on="0"/>
        <pt x="1893" y="627" on="1"/>
        <pt x="1880" y="627" on="0"/>
        <pt x="1763" y="677" on="0"/>
        <pt x="1750" y="677" on="1"/>
        <pt x="1693" y="677" on="0"/>
        <pt x="1594" y="634" on="1"/>
        <pt x="1474" y="582" on="0"/>
        <pt x="1474" y="519" on="1"/>
        <pt x="1474" y="473" on="0"/>
        <pt x="1533" y="398" on="1"/>
        <pt x="1596" y="319" on="0"/>
        <pt x="1647" y="319" on="1"/>
        <pt x="1717" y="319" on="0"/>
        <pt x="1978" y="461" on="0"/>
        <pt x="2019" y="523" on="1"/>
        <pt x="2056" y="523" on="1"/>
      </contour>
    </TTGlyph>
    <TTGlyph name="uni2011" xMin="245" yMin="-407" xMax="2057" yMax="1558">
      <contour>
        <pt x="1944" y="1470" on="1"/>
        <pt x="1945" y="1443" on="0"/>
        <pt x="1901" y="1408" on="1"/>
        <pt x="1853" y="1389" on="0"/>
        <pt x="1757" y="1350" on="1"/>
        <pt x="1688" y="1321" on="0"/>
        <pt x="1582" y="1259" on="1"/>
        <pt x="1422" y="1167" on="0"/>
        <pt x="1408" y="1160" on="1"/>
        <pt x="1371" y="1160" on="1"/>
        <pt x="1371" y="1194" on="1"/>
        <pt x="1371" y="1230" on="0"/>
        <pt x="1499" y="1303" on="1"/>
        <pt x="1570" y="1339" on="0"/>
        <pt x="1640" y="1375" on="1"/>
        <pt x="1731" y="1427" on="0"/>
        <pt x="1908" y="1506" on="1"/>
        <pt x="1944" y="1506" on="1"/>
      </contour>
      <contour>
        <pt x="1167" y="1528" on="1"/>
        <pt x="1167" y="1484" on="0"/>
        <pt x="1144" y="1467" on="1"/>
        <pt x="1113" y="1443" on="0"/>
        <pt x="918" y="1330" on="1"/>
        <pt x="808" y="1265" on="0"/>
        <pt x="585" y="1139" on="1"/>
        <pt x="585" y="1142" on="0"/>
        <pt x="573" y="1170" on="0"/>
        <pt x="573" y="1185" on="1"/>
        <pt x="573" y="1221" on="0"/>
        <pt x="721" y="1308" on="1"/>
        <pt x="801" y="1352" on="0"/>
        <pt x="882" y="1396" on="1"/>
        <pt x="996" y="1472" on="0"/>
        <pt x="1152" y="1558" on="1"/>
        <pt x="1167" y="1543" on="0"/>
      </contour>
      <contour>
        <pt x="2056" y="466" on="1"/>
        <pt x="2057" y="435" on="0"/>
        <pt x="1989" y="365" on="1"/>
        <pt x="1931" y="306" on="0"/>
        <pt x="1881" y="271" on="1"/>
        <pt x="1815" y="226" on="0"/>
        <pt x="1675" y="182" on="1"/>
        <pt x="1532" y="135" on="0"/>
        <pt x="1448" y="135" on="1"/>
        <pt x="1244" y="135" on="0"/>
        <pt x="1110" y="329" on="1"/>
        <pt x="1053" y="192" on="0"/>
        <pt x="1043" y="110" on="1"/>
        <pt x="1061" y="96" on="0"/>
        <pt x="1197" y="73" on="1"/>
        <pt x="1299" y="55" on="0"/>
        <pt x="1299" y="-18" on="1"/>
        <pt x="1299" y="-101" on="0"/>
        <pt x="1233" y="-167" on="1"/>
        <pt x="1136" y="-263" on="0"/>
        <pt x="938" y="-337" on="1"/>
        <pt x="747" y="-407" on="0"/>
        <pt x="603" y="-407" on="1"/>
        <pt x="449" y="-407" on="0"/>
        <pt x="342" y="-300" on="1"/>
        <pt x="245" y="-200" on="0"/>
        <pt x="245" y="-74" on="1"/>
        <pt x="245" y="-4" on="0"/>
        <pt x="305" y="103" on="1"/>
        <pt x="373" y="223" on="0"/>
        <pt x="458" y="267" on="1"/>
        <pt x="458" y="229" on="1"/>
        <pt x="422" y="204" on="0"/>
        <pt x="389" y="126" on="1"/>
        <pt x="357" y="52" on="0"/>
        <pt x="357" y="2" on="1"/>
        <pt x="357" y="-108" on="0"/>
        <pt x="447" y="-184" on="1"/>
        <pt x="529" y="-253" on="0"/>
        <pt x="628" y="-253" on="1"/>
        <pt x="884" y="-253" on="0"/>
        <pt x="1146" y="-92" on="1"/>
        <pt x="1146" y="-67" on="1"/>
        <pt x="1099" y="-45" on="0"/>
        <pt x="989" y="-28" on="1"/>
        <pt x="895" y="-15" on="0"/>
        <pt x="840" y="25" on="1"/>
        <pt x="838" y="30" on="0"/>
        <pt x="838" y="35" on="1"/>
        <pt x="838" y="67" on="0"/>
        <pt x="896" y="109" on="1"/>
        <pt x="973" y="164" on="0"/>
        <pt x="990" y="184" on="1"/>
        <pt x="1024" y="227" on="0"/>
        <pt x="1026" y="406" on="1"/>
        <pt x="1026" y="480" on="0"/>
        <pt x="1019" y="628" on="1"/>
        <pt x="1013" y="778" on="0"/>
        <pt x="1013" y="777" on="1"/>
        <pt x="1013" y="1030" on="1"/>
        <pt x="1013" y="1037" on="0"/>
        <pt x="1007" y="1067" on="1"/>
        <pt x="1002" y="1092" on="0"/>
        <pt x="1005" y="1104" on="1"/>
        <pt x="1028" y="1176" on="0"/>
        <pt x="1068" y="1230" on="1"/>
        <pt x="1086" y="1217" on="1"/>
        <pt x="1095" y="1134" on="0"/>
        <pt x="1095" y="893" on="1"/>
        <pt x="1095" y="715" on="0"/>
        <pt x="1160" y="535" on="1"/>
        <pt x="1240" y="314" on="0"/>
        <pt x="1363" y="319" on="1"/>
        <pt x="1369" y="333" on="0"/>
        <pt x="1361" y="368" on="1"/>
        <pt x="1351" y="409" on="0"/>
        <pt x="1351" y="417" on="1"/>
        <pt x="1351" y="466" on="0"/>
        <pt x="1513" y="719" on="0"/>
        <pt x="1568" y="754" on="1"/>
        <pt x="1616" y="786" on="0"/>
        <pt x="1639" y="791" on="1"/>
        <pt x="1638" y="791" on="0"/>
        <pt x="1688" y="791" on="1"/>
        <pt x="1806" y="791" on="0"/>
        <pt x="1934" y="652" on="1"/>
        <pt x="1909" y="627" on="0"/>
        <pt x="1893" y="627" on="1"/>
        <pt x="1880" y="627" on="0"/>
        <pt x="1763" y="677" on="0"/>
        <pt x="1750" y="677" on="1"/>
        <pt x="1693" y="677" on="0"/>
        <pt x="1594" y="634" on="1"/>
        <pt x="1474" y="582" on="0"/>
        <pt x="1474" y="519" on="1"/>
        <pt x="1474" y="473" on="0"/>
        <pt x="1533" y="398" on="1"/>
        <pt x="1596" y="319" on="0"/>
        <pt x="1647" y="319" on="1"/>
        <pt x="1717" y="319" on="0"/>
        <pt x="1978" y="461" on="0"/>
        <pt x="2019" y="523" on="1"/>
        <pt x="2056" y="523" on="1"/>
      </contour>
    </TTGlyph>
    <TTGlyph name="uniE000" xMin="0" yMin="0" xMax="1195" yMax="1195">
      <contour>
        <pt x="0" y="1195" on="1"/>
        <pt x="1195" y="1195" on="1"/>
        <pt x="1195" y="0" on="1"/>
        <pt x="0" y="0" on="1"/>
      </contour>
    </TTGlyph>
    <TTGlyph name="uniFB51" xMin="257" yMin="-556" xMax="1598" yMax="1501">
      <contour>
        <pt x="902" y="1464" on="1"/>
        <pt x="902" y="1439" on="0"/>
        <pt x="841" y="1412" on="1"/>
        <pt x="803" y="1398" on="0"/>
        <pt x="766" y="1385" on="1"/>
        <pt x="741" y="1373" on="0"/>
        <pt x="385" y="1225" on="1"/>
        <pt x="370" y="1236" on="0"/>
        <pt x="360" y="1236" on="1"/>
        <pt x="360" y="1272" on="1"/>
        <pt x="410" y="1325" on="0"/>
        <pt x="454" y="1343" on="1"/>
        <pt x="468" y="1348" on="0"/>
        <pt x="686" y="1439" on="1"/>
        <pt x="832" y="1501" on="0"/>
        <pt x="847" y="1500" on="1"/>
        <pt x="902" y="1500" on="1"/>
      </contour>
      <contour>
        <pt x="1352" y="129" on="1"/>
        <pt x="1352" y="16" on="0"/>
        <pt x="1283" y="-24" on="1"/>
        <pt x="1158" y="907" on="1"/>
        <pt x="1170" y="971" on="0"/>
        <pt x="1222" y="1040" on="1"/>
        <pt x="1242" y="1040" on="0"/>
        <pt x="1256" y="1016" on="1"/>
        <pt x="1269" y="860" on="0"/>
        <pt x="1313" y="482" on="1"/>
        <pt x="1352" y="135" on="0"/>
      </contour>
      <contour>
        <pt x="829" y="1095" on="1"/>
        <pt x="830" y="1078" on="0"/>
        <pt x="804" y="1039" on="1"/>
        <pt x="777" y="997" on="0"/>
        <pt x="717" y="948" on="0"/>
        <pt x="676" y="948" on="1"/>
        <pt x="664" y="948" on="0"/>
        <pt x="649" y="958" on="0"/>
        <pt x="636" y="958" on="1"/>
        <pt x="623" y="958" on="0"/>
        <pt x="557" y="927" on="0"/>
        <pt x="544" y="927" on="1"/>
        <pt x="462" y="927" on="0"/>
        <pt x="462" y="999" on="1"/>
        <pt x="462" y="1060" on="0"/>
        <pt x="529" y="1091" on="1"/>
        <pt x="542" y="1078" on="0"/>
        <pt x="562" y="1040" on="1"/>
        <pt x="599" y="1040" on="1"/>
        <pt x="626" y="1076" on="0"/>
        <pt x="706" y="1142" on="1"/>
        <pt x="706" y="1068" on="1"/>
        <pt x="699" y="1061" on="0"/>
        <pt x="723" y="1061" on="1"/>
        <pt x="735" y="1061" on="0"/>
        <pt x="771" y="1102" on="1"/>
        <pt x="813" y="1151" on="0"/>
        <pt x="829" y="1162" on="1"/>
      </contour>
      <contour>
        <pt x="687" y="666" on="1"/>
        <pt x="687" y="632" on="0"/>
        <pt x="635" y="569" on="0"/>
        <pt x="610" y="569" on="1"/>
        <pt x="564" y="569" on="0"/>
        <pt x="513" y="646" on="1"/>
        <pt x="557" y="754" on="0"/>
        <pt x="610" y="754" on="1"/>
        <pt x="638" y="754" on="0"/>
        <pt x="664" y="719" on="1"/>
        <pt x="687" y="689" on="0"/>
      </contour>
      <contour>
        <pt x="1536" y="-251" on="1"/>
        <pt x="1523" y="-304" on="0"/>
        <pt x="1417" y="-329" on="1"/>
        <pt x="1290" y="-357" on="0"/>
        <pt x="1247" y="-402" on="1"/>
        <pt x="1210" y="-402" on="1"/>
        <pt x="1218" y="-376" on="0"/>
        <pt x="1218" y="-357" on="1"/>
        <pt x="1218" y="-327" on="0"/>
        <pt x="1158" y="-280" on="0"/>
        <pt x="1158" y="-249" on="1"/>
        <pt x="1158" y="-199" on="0"/>
        <pt x="1242" y="-140" on="1"/>
        <pt x="1319" y="-86" on="0"/>
        <pt x="1358" y="-86" on="1"/>
        <pt x="1378" y="-86" on="0"/>
        <pt x="1424" y="-128" on="1"/>
        <pt x="1424" y="-176" on="1"/>
        <pt x="1388" y="-208" on="0"/>
        <pt x="1363" y="-208" on="1"/>
        <pt x="1346" y="-208" on="0"/>
        <pt x="1315" y="-177" on="1"/>
        <pt x="1278" y="-177" on="1"/>
        <pt x="1274" y="-185" on="0"/>
        <pt x="1261" y="-204" on="1"/>
        <pt x="1288" y="-260" on="0"/>
        <pt x="1317" y="-260" on="1"/>
        <pt x="1451" y="-260" on="0"/>
      </contour>
      <contour>
        <pt x="1598" y="-432" on="1"/>
        <pt x="1559" y="-473" on="0"/>
        <pt x="1442" y="-501" on="1"/>
        <pt x="1306" y="-533" on="0"/>
        <pt x="1267" y="-556" on="1"/>
        <pt x="1230" y="-556" on="1"/>
        <pt x="1230" y="-520" on="1"/>
        <pt x="1246" y="-484" on="0"/>
        <pt x="1284" y="-469" on="1"/>
        <pt x="1478" y="-393" on="0"/>
        <pt x="1543" y="-393" on="1"/>
        <pt x="1585" y="-393" on="1"/>
        <pt x="1598" y="-406" on="1"/>
      </contour>
      <contour>
        <pt x="1056" y="114" on="1"/>
        <pt x="1056" y="91" on="0"/>
        <pt x="1039" y="24" on="1"/>
        <pt x="1020" y="-53" on="0"/>
        <pt x="1000" y="-93" on="1"/>
        <pt x="984" y="-126" on="0"/>
        <pt x="875" y="-215" on="0"/>
        <pt x="837" y="-226" on="1"/>
        <pt x="614" y="-290" on="0"/>
        <pt x="595" y="-290" on="1"/>
        <pt x="463" y="-290" on="0"/>
        <pt x="373" y="-236" on="1"/>
        <pt x="257" y="-168" on="0"/>
        <pt x="257" y="-29" on="1"/>
        <pt x="257" y="59" on="0"/>
        <pt x="270" y="85" on="1"/>
        <pt x="313" y="167" on="0"/>
        <pt x="332" y="196" on="1"/>
        <pt x="376" y="259" on="0"/>
        <pt x="429" y="281" on="1"/>
        <pt x="359" y="37" on="1"/>
        <pt x="394" y="-126" on="0"/>
        <pt x="610" y="-126" on="1"/>
        <pt x="701" y="-126" on="0"/>
        <pt x="812" y="-88" on="1"/>
        <pt x="963" y="-36" on="0"/>
        <pt x="963" y="52" on="1"/>
        <pt x="963" y="105" on="0"/>
        <pt x="930" y="184" on="1"/>
        <pt x="928" y="186" on="0"/>
        <pt x="881" y="281" on="1"/>
        <pt x="851" y="344" on="0"/>
        <pt x="851" y="360" on="1"/>
        <pt x="851" y="406" on="0"/>
        <pt x="885" y="456" on="1"/>
        <pt x="920" y="456" on="1"/>
        <pt x="936" y="444" on="0"/>
        <pt x="959" y="423" on="1"/>
        <pt x="970" y="403" on="0"/>
        <pt x="990" y="361" on="1"/>
        <pt x="1056" y="220" on="0"/>
      </contour>
    </TTGlyph>
    <TTGlyph name="uniFB52" xMin="278" yMin="-389" xMax="4946" yMax="1701">
      <contour>
        <pt x="4946" y="1661" on="1"/>
        <pt x="4940" y="1650" on="0"/>
        <pt x="4924" y="1631" on="1"/>
        <pt x="4721" y="1538" on="0"/>
        <pt x="4481" y="1455" on="1"/>
        <pt x="4445" y="1455" on="1"/>
        <pt x="4445" y="1488" on="1"/>
        <pt x="4444" y="1521" on="0"/>
        <pt x="4489" y="1542" on="1"/>
        <pt x="4833" y="1701" on="0"/>
        <pt x="4892" y="1698" on="1"/>
        <pt x="4946" y="1698" on="1"/>
      </contour>
      <contour>
        <pt x="4905" y="1257" on="1"/>
        <pt x="4887" y="1226" on="0"/>
        <pt x="4827" y="1205" on="1"/>
        <pt x="4777" y="1189" on="0"/>
        <pt x="4728" y="1174" on="1"/>
        <pt x="4685" y="1155" on="0"/>
        <pt x="4602" y="1126" on="1"/>
        <pt x="4599" y="1153" on="0"/>
        <pt x="4595" y="1201" on="1"/>
        <pt x="4547" y="1252" on="0"/>
        <pt x="4547" y="1275" on="1"/>
        <pt x="4547" y="1332" on="0"/>
        <pt x="4632" y="1387" on="1"/>
        <pt x="4704" y="1434" on="0"/>
        <pt x="4742" y="1434" on="1"/>
        <pt x="4775" y="1434" on="0"/>
        <pt x="4801" y="1409" on="1"/>
        <pt x="4824" y="1389" on="0"/>
        <pt x="4824" y="1372" on="1"/>
        <pt x="4824" y="1355" on="0"/>
        <pt x="4780" y="1311" on="0"/>
        <pt x="4762" y="1311" on="1"/>
        <pt x="4745" y="1311" on="0"/>
        <pt x="4693" y="1362" on="1"/>
        <pt x="4668" y="1362" on="1"/>
        <pt x="4668" y="1359" on="0"/>
        <pt x="4660" y="1346" on="0"/>
        <pt x="4660" y="1331" on="1"/>
        <pt x="4660" y="1270" on="0"/>
        <pt x="4757" y="1259" on="1"/>
        <pt x="4874" y="1259" on="0"/>
      </contour>
      <contour>
        <pt x="4854" y="184" on="1"/>
        <pt x="4854" y="129" on="0"/>
        <pt x="4811" y="21" on="1"/>
        <pt x="4774" y="21" on="1"/>
        <pt x="4670" y="988" on="1"/>
        <pt x="4670" y="1044" on="0"/>
        <pt x="4723" y="1114" on="1"/>
        <pt x="4749" y="1126" on="1"/>
      </contour>
      <contour>
        <pt x="4271" y="993" on="1"/>
        <pt x="4271" y="930" on="0"/>
        <pt x="4168" y="888" on="1"/>
        <pt x="4104" y="868" on="0"/>
        <pt x="4041" y="850" on="1"/>
        <pt x="4023" y="850" on="0"/>
        <pt x="3988" y="862" on="0"/>
        <pt x="3985" y="862" on="1"/>
        <pt x="3993" y="895" on="0"/>
        <pt x="4033" y="919" on="1"/>
        <pt x="4095" y="956" on="0"/>
        <pt x="4107" y="967" on="1"/>
        <pt x="4073" y="993" on="0"/>
        <pt x="4025" y="993" on="1"/>
        <pt x="4014" y="993" on="0"/>
        <pt x="3893" y="933" on="1"/>
        <pt x="3973" y="1085" on="0"/>
        <pt x="4086" y="1085" on="1"/>
        <pt x="4131" y="1085" on="0"/>
        <pt x="4199" y="1055" on="1"/>
        <pt x="4271" y="1022" on="0"/>
      </contour>
      <contour>
        <pt x="2971" y="1398" on="1"/>
        <pt x="2971" y="1381" on="0"/>
        <pt x="2934" y="1334" on="1"/>
        <pt x="2340" y="1085" on="0"/>
        <pt x="2309" y="1086" on="1"/>
        <pt x="2265" y="1086" on="1"/>
        <pt x="2285" y="1164" on="0"/>
        <pt x="2328" y="1183" on="1"/>
        <pt x="2868" y="1424" on="0"/>
        <pt x="2916" y="1422" on="1"/>
        <pt x="2958" y="1422" on="1"/>
        <pt x="2971" y="1421" on="0"/>
      </contour>
      <contour>
        <pt x="2008" y="711" on="1"/>
        <pt x="2008" y="723" on="0"/>
        <pt x="1993" y="607" on="1"/>
        <pt x="1985" y="594" on="0"/>
        <pt x="1955" y="573" on="1"/>
        <pt x="1943" y="632" on="0"/>
        <pt x="1912" y="741" on="1"/>
        <pt x="1902" y="765" on="0"/>
        <pt x="1841" y="839" on="1"/>
        <pt x="1783" y="908" on="0"/>
        <pt x="1783" y="916" on="1"/>
        <pt x="1783" y="932" on="0"/>
        <pt x="1817" y="972" on="0"/>
        <pt x="1834" y="972" on="1"/>
        <pt x="1909" y="972" on="0"/>
        <pt x="1965" y="858" on="1"/>
        <pt x="2008" y="768" on="0"/>
      </contour>
      <contour>
        <pt x="4557" y="357" on="1"/>
        <pt x="4560" y="297" on="0"/>
        <pt x="4504" y="210" on="1"/>
        <pt x="4444" y="116" on="0"/>
        <pt x="4360" y="65" on="1"/>
        <pt x="4334" y="48" on="0"/>
        <pt x="4209" y="12" on="1"/>
        <pt x="4059" y="-31" on="0"/>
        <pt x="3979" y="-31" on="1"/>
        <pt x="3968" y="-31" on="0"/>
        <pt x="3746" y="-10" on="0"/>
        <pt x="3733" y="-10" on="1"/>
        <pt x="3695" y="-10" on="0"/>
        <pt x="3672" y="-62" on="1"/>
        <pt x="3641" y="-133" on="0"/>
        <pt x="3603" y="-163" on="1"/>
        <pt x="3594" y="-87" on="0"/>
        <pt x="3626" y="-6" on="1"/>
        <pt x="3603" y="7" on="0"/>
        <pt x="3542" y="65" on="1"/>
        <pt x="3491" y="112" on="0"/>
        <pt x="3477" y="112" on="1"/>
        <pt x="3466" y="112" on="0"/>
        <pt x="3413" y="70" on="1"/>
        <pt x="3353" y="24" on="0"/>
        <pt x="3325" y="13" on="1"/>
        <pt x="3210" y="-31" on="0"/>
        <pt x="3062" y="-31" on="1"/>
        <pt x="2899" y="-31" on="0"/>
        <pt x="2899" y="92" on="1"/>
        <pt x="2899" y="125" on="0"/>
        <pt x="2940" y="207" on="1"/>
        <pt x="2870" y="225" on="0"/>
        <pt x="2807" y="225" on="1"/>
        <pt x="2667" y="225" on="0"/>
        <pt x="2455" y="136" on="1"/>
        <pt x="2157" y="10" on="0"/>
        <pt x="1819" y="10" on="1"/>
        <pt x="1666" y="10" on="0"/>
        <pt x="1631" y="34" on="1"/>
        <pt x="1622" y="40" on="0"/>
        <pt x="1560" y="134" on="1"/>
        <pt x="1572" y="134" on="0"/>
        <pt x="1535" y="120" on="1"/>
        <pt x="1461" y="34" on="0"/>
        <pt x="1227" y="-35" on="1"/>
        <pt x="1000" y="-102" on="0"/>
        <pt x="810" y="-102" on="1"/>
        <pt x="800" y="-102" on="0"/>
        <pt x="560" y="-81" on="0"/>
        <pt x="429" y="-8" on="1"/>
        <pt x="278" y="77" on="0"/>
        <pt x="278" y="205" on="1"/>
        <pt x="278" y="252" on="0"/>
        <pt x="365" y="393" on="0"/>
        <pt x="415" y="429" on="1"/>
        <pt x="451" y="429" on="1"/>
        <pt x="451" y="392" on="1"/>
        <pt x="452" y="380" on="0"/>
        <pt x="401" y="294" on="0"/>
        <pt x="401" y="282" on="1"/>
        <pt x="401" y="156" on="0"/>
        <pt x="625" y="93" on="1"/>
        <pt x="770" y="51" on="0"/>
        <pt x="887" y="51" on="1"/>
        <pt x="965" y="51" on="0"/>
        <pt x="1166" y="93" on="1"/>
        <pt x="1337" y="129" on="0"/>
        <pt x="1387" y="146" on="1"/>
        <pt x="1451" y="167" on="0"/>
        <pt x="1502" y="224" on="1"/>
        <pt x="1527" y="252" on="0"/>
        <pt x="1591" y="347" on="1"/>
        <pt x="1627" y="347" on="1"/>
        <pt x="1628" y="305" on="0"/>
        <pt x="1631" y="222" on="1"/>
        <pt x="1675" y="170" on="0"/>
        <pt x="1714" y="159" on="1"/>
        <pt x="1733" y="153" on="0"/>
        <pt x="1813" y="153" on="1"/>
        <pt x="2187" y="153" on="0"/>
        <pt x="2449" y="274" on="1"/>
        <pt x="2450" y="279" on="0"/>
        <pt x="2446" y="288" on="1"/>
        <pt x="2301" y="369" on="0"/>
        <pt x="2269" y="369" on="1"/>
        <pt x="2248" y="369" on="0"/>
        <pt x="2129" y="338" on="0"/>
        <pt x="2086" y="338" on="1"/>
        <pt x="2068" y="338" on="0"/>
        <pt x="2050" y="340" on="1"/>
        <pt x="2059" y="378" on="0"/>
        <pt x="2148" y="460" on="1"/>
        <pt x="2247" y="553" on="0"/>
        <pt x="2310" y="553" on="1"/>
        <pt x="2323" y="553" on="0"/>
        <pt x="2373" y="524" on="1"/>
        <pt x="2435" y="488" on="0"/>
        <pt x="2446" y="483" on="1"/>
        <pt x="2561" y="431" on="0"/>
        <pt x="2670" y="401" on="1"/>
        <pt x="2829" y="358" on="0"/>
        <pt x="3017" y="358" on="1"/>
        <pt x="3104" y="358" on="0"/>
        <pt x="3112" y="356" on="1"/>
        <pt x="3112" y="353" on="0"/>
        <pt x="3124" y="332" on="0"/>
        <pt x="3124" y="317" on="1"/>
        <pt x="3124" y="276" on="0"/>
        <pt x="3071" y="242" on="1"/>
        <pt x="3037" y="224" on="0"/>
        <pt x="3003" y="206" on="1"/>
        <pt x="3002" y="204" on="0"/>
        <pt x="2991" y="199" on="0"/>
        <pt x="2991" y="184" on="1"/>
        <pt x="2991" y="123" on="0"/>
        <pt x="3139" y="123" on="1"/>
        <pt x="3283" y="123" on="0"/>
        <pt x="3514" y="246" on="0"/>
        <pt x="3524" y="246" on="1"/>
        <pt x="3547" y="246" on="0"/>
        <pt x="3696" y="143" on="0"/>
        <pt x="3733" y="143" on="1"/>
        <pt x="3768" y="143" on="0"/>
        <pt x="3966" y="261" on="1"/>
        <pt x="4266" y="440" on="0"/>
        <pt x="4358" y="440" on="1"/>
        <pt x="4440" y="440" on="0"/>
      </contour>
      <contour>
        <pt x="1321" y="1252" on="1"/>
        <pt x="1310" y="1235" on="0"/>
        <pt x="1289" y="1212" on="1"/>
        <pt x="964" y="1053" on="0"/>
        <pt x="761" y="979" on="1"/>
        <pt x="738" y="986" on="1"/>
        <pt x="747" y="1014" on="0"/>
        <pt x="774" y="1053" on="1"/>
        <pt x="854" y="1103" on="0"/>
        <pt x="1296" y="1311" on="1"/>
        <pt x="1311" y="1298" on="0"/>
        <pt x="1321" y="1298" on="1"/>
      </contour>
      <contour>
        <pt x="1097" y="-297" on="1"/>
        <pt x="1097" y="-326" on="0"/>
        <pt x="1032" y="-389" on="0"/>
        <pt x="1010" y="-389" on="1"/>
        <pt x="978" y="-389" on="0"/>
        <pt x="892" y="-339" on="0"/>
        <pt x="892" y="-317" on="1"/>
        <pt x="892" y="-300" on="0"/>
        <pt x="958" y="-215" on="0"/>
        <pt x="974" y="-215" on="1"/>
        <pt x="1014" y="-215" on="0"/>
        <pt x="1097" y="-266" on="0"/>
      </contour>
      <contour>
        <pt x="4403" y="251" on="1"/>
        <pt x="4330" y="307" on="0"/>
        <pt x="4271" y="307" on="1"/>
        <pt x="4231" y="307" on="0"/>
        <pt x="4111" y="240" on="1"/>
        <pt x="4015" y="187" on="0"/>
        <pt x="3967" y="152" on="1"/>
        <pt x="3964" y="142" on="0"/>
        <pt x="3964" y="124" on="1"/>
        <pt x="4039" y="124" on="1"/>
        <pt x="4121" y="123" on="0"/>
        <pt x="4371" y="210" on="0"/>
      </contour>
    </TTGlyph>
    <TTGlyph name="uniFB53" xMin="389" yMin="-277" xMax="3275" yMax="1748">
      <contour>
        <pt x="3275" y="1508" on="1"/>
        <pt x="3275" y="1421" on="0"/>
        <pt x="3180" y="1355" on="1"/>
        <pt x="3098" y="1298" on="0"/>
        <pt x="3029" y="1298" on="1"/>
        <pt x="3018" y="1298" on="0"/>
        <pt x="2920" y="1329" on="0"/>
        <pt x="2906" y="1329" on="1"/>
        <pt x="2888" y="1329" on="0"/>
        <pt x="2846" y="1309" on="1"/>
        <pt x="2846" y="1343" on="1"/>
        <pt x="2845" y="1366" on="0"/>
        <pt x="2891" y="1405" on="1"/>
        <pt x="2933" y="1442" on="0"/>
        <pt x="2952" y="1442" on="1"/>
        <pt x="2964" y="1442" on="0"/>
        <pt x="2991" y="1421" on="0"/>
        <pt x="3004" y="1421" on="1"/>
        <pt x="3015" y="1421" on="0"/>
        <pt x="3162" y="1595" on="0"/>
        <pt x="3203" y="1595" on="1"/>
        <pt x="3237" y="1595" on="0"/>
        <pt x="3259" y="1562" on="1"/>
        <pt x="3275" y="1536" on="0"/>
      </contour>
      <contour>
        <pt x="2609" y="1650" on="1"/>
        <pt x="2609" y="1618" on="0"/>
        <pt x="2521" y="1570" on="1"/>
        <pt x="2444" y="1529" on="0"/>
        <pt x="2421" y="1526" on="1"/>
        <pt x="2331" y="1516" on="0"/>
        <pt x="2347" y="1515" on="1"/>
        <pt x="2303" y="1515" on="1"/>
        <pt x="2340" y="1555" on="0"/>
        <pt x="2435" y="1612" on="1"/>
        <pt x="2424" y="1647" on="0"/>
        <pt x="2379" y="1647" on="1"/>
        <pt x="2376" y="1647" on="0"/>
        <pt x="2263" y="1618" on="1"/>
        <pt x="2310" y="1689" on="0"/>
        <pt x="2332" y="1710" on="1"/>
        <pt x="2375" y="1748" on="0"/>
        <pt x="2435" y="1748" on="1"/>
        <pt x="2474" y="1748" on="0"/>
        <pt x="2609" y="1695" on="1"/>
      </contour>
      <contour>
        <pt x="3152" y="290" on="1"/>
        <pt x="3154" y="172" on="0"/>
        <pt x="3119" y="101" on="1"/>
        <pt x="3110" y="100" on="0"/>
        <pt x="3093" y="110" on="1"/>
        <pt x="3074" y="121" on="0"/>
        <pt x="3073" y="135" on="1"/>
        <pt x="3052" y="306" on="0"/>
        <pt x="2996" y="718" on="1"/>
        <pt x="2947" y="1072" on="0"/>
        <pt x="2947" y="1083" on="1"/>
        <pt x="2947" y="1099" on="0"/>
        <pt x="3000" y="1204" on="1"/>
        <pt x="3027" y="1216" on="1"/>
      </contour>
      <contour>
        <pt x="2137" y="1434" on="1"/>
        <pt x="2053" y="1367" on="0"/>
        <pt x="1927" y="1307" on="1"/>
        <pt x="1816" y="1257" on="0"/>
        <pt x="1705" y="1207" on="1"/>
        <pt x="1669" y="1207" on="1"/>
        <pt x="1669" y="1254" on="1"/>
        <pt x="1904" y="1425" on="0"/>
        <pt x="2137" y="1492" on="1"/>
      </contour>
      <contour>
        <pt x="1595" y="1727" on="1"/>
        <pt x="1595" y="1665" on="0"/>
        <pt x="1562" y="1649" on="1"/>
        <pt x="1476" y="1607" on="0"/>
        <pt x="1087" y="1452" on="1"/>
        <pt x="1074" y="1453" on="0"/>
        <pt x="1074" y="1477" on="1"/>
        <pt x="1074" y="1528" on="0"/>
        <pt x="1157" y="1565" on="1"/>
        <pt x="1214" y="1586" on="0"/>
        <pt x="1271" y="1607" on="1"/>
        <pt x="1369" y="1647" on="0"/>
        <pt x="1559" y="1727" on="1"/>
      </contour>
      <contour>
        <pt x="1514" y="1303" on="1"/>
        <pt x="1488" y="1248" on="0"/>
        <pt x="1481" y="1237" on="1"/>
        <pt x="1460" y="1202" on="0"/>
        <pt x="1436" y="1189" on="1"/>
        <pt x="1398" y="1168" on="0"/>
        <pt x="1326" y="1145" on="1"/>
        <pt x="1258" y="1124" on="0"/>
        <pt x="1238" y="1124" on="1"/>
        <pt x="1166" y="1124" on="0"/>
        <pt x="1166" y="1206" on="1"/>
        <pt x="1166" y="1252" on="0"/>
        <pt x="1222" y="1308" on="1"/>
        <pt x="1229" y="1285" on="0"/>
        <pt x="1234" y="1262" on="1"/>
        <pt x="1244" y="1226" on="0"/>
        <pt x="1273" y="1226" on="1"/>
        <pt x="1311" y="1226" on="0"/>
        <pt x="1364" y="1348" on="0"/>
        <pt x="1390" y="1348" on="1"/>
        <pt x="1390" y="1295" on="1"/>
        <pt x="1409" y="1277" on="0"/>
        <pt x="1425" y="1277" on="1"/>
        <pt x="1440" y="1293" on="0"/>
        <pt x="1485" y="1364" on="0"/>
        <pt x="1500" y="1380" on="1"/>
      </contour>
      <contour>
        <pt x="2886" y="229" on="1"/>
        <pt x="2886" y="196" on="0"/>
        <pt x="2787" y="120" on="0"/>
        <pt x="2758" y="120" on="1"/>
        <pt x="2747" y="120" on="0"/>
        <pt x="2575" y="131" on="0"/>
        <pt x="2563" y="131" on="1"/>
        <pt x="2476" y="131" on="0"/>
        <pt x="1930" y="-22" on="0"/>
        <pt x="1821" y="-22" on="1"/>
        <pt x="1759" y="-22" on="0"/>
        <pt x="1623" y="70" on="0"/>
        <pt x="1621" y="70" on="1"/>
        <pt x="1610" y="70" on="0"/>
        <pt x="1575" y="49" on="1"/>
        <pt x="1534" y="25" on="0"/>
        <pt x="1520" y="21" on="1"/>
        <pt x="1352" y="-32" on="0"/>
        <pt x="1320" y="-32" on="1"/>
        <pt x="1161" y="-32" on="1"/>
        <pt x="1043" y="-32" on="0"/>
        <pt x="985" y="20" on="1"/>
        <pt x="919" y="79" on="0"/>
        <pt x="891" y="234" on="1"/>
        <pt x="888" y="234" on="0"/>
        <pt x="873" y="243" on="0"/>
        <pt x="858" y="243" on="1"/>
        <pt x="847" y="243" on="0"/>
        <pt x="804" y="211" on="1"/>
        <pt x="755" y="173" on="0"/>
        <pt x="732" y="165" on="1"/>
        <pt x="696" y="152" on="0"/>
        <pt x="587" y="152" on="1"/>
        <pt x="450" y="152" on="0"/>
        <pt x="409" y="184" on="1"/>
        <pt x="408" y="288" on="0"/>
        <pt x="562" y="385" on="1"/>
        <pt x="688" y="461" on="0"/>
        <pt x="814" y="537" on="1"/>
        <pt x="816" y="548" on="0"/>
        <pt x="814" y="679" on="1"/>
        <pt x="813" y="763" on="0"/>
        <pt x="840" y="816" on="1"/>
        <pt x="890" y="818" on="0"/>
        <pt x="906" y="690" on="1"/>
        <pt x="936" y="455" on="0"/>
        <pt x="949" y="393" on="1"/>
        <pt x="986" y="217" on="0"/>
        <pt x="1114" y="111" on="0"/>
        <pt x="1161" y="111" on="1"/>
        <pt x="1263" y="111" on="1"/>
        <pt x="1324" y="111" on="0"/>
        <pt x="1516" y="145" on="0"/>
        <pt x="1547" y="164" on="1"/>
        <pt x="1585" y="203" on="0"/>
        <pt x="1680" y="294" on="1"/>
        <pt x="1672" y="265" on="0"/>
        <pt x="1680" y="179" on="1"/>
        <pt x="1690" y="160" on="0"/>
        <pt x="1767" y="134" on="1"/>
        <pt x="1837" y="111" on="0"/>
        <pt x="1862" y="111" on="1"/>
        <pt x="1985" y="111" on="0"/>
        <pt x="2180" y="189" on="1"/>
        <pt x="2165" y="213" on="0"/>
        <pt x="2090" y="234" on="1"/>
        <pt x="2013" y="256" on="0"/>
        <pt x="1940" y="256" on="1"/>
        <pt x="1917" y="256" on="0"/>
        <pt x="1896" y="254" on="1"/>
        <pt x="1882" y="268" on="0"/>
        <pt x="1882" y="284" on="1"/>
        <pt x="1882" y="374" on="0"/>
        <pt x="2072" y="402" on="1"/>
        <pt x="2179" y="411" on="0"/>
        <pt x="2285" y="419" on="1"/>
        <pt x="2333" y="437" on="0"/>
        <pt x="2333" y="489" on="1"/>
        <pt x="2333" y="618" on="0"/>
        <pt x="2258" y="1046" on="1"/>
        <pt x="2255" y="1058" on="0"/>
        <pt x="2226" y="1101" on="1"/>
        <pt x="2200" y="1140" on="0"/>
        <pt x="2200" y="1170" on="1"/>
        <pt x="2200" y="1233" on="0"/>
        <pt x="2307" y="1380" on="1"/>
        <pt x="2324" y="1361" on="0"/>
        <pt x="2340" y="1272" on="1"/>
        <pt x="2352" y="1210" on="0"/>
        <pt x="2425" y="1194" on="1"/>
        <pt x="2425" y="1149" on="1"/>
        <pt x="2425" y="1136" on="0"/>
        <pt x="2405" y="1101" on="1"/>
        <pt x="2380" y="1058" on="0"/>
        <pt x="2376" y="1045" on="1"/>
        <pt x="2374" y="1040" on="0"/>
        <pt x="2374" y="965" on="1"/>
        <pt x="2374" y="953" on="0"/>
        <pt x="2435" y="492" on="0"/>
        <pt x="2435" y="479" on="1"/>
        <pt x="2435" y="454" on="0"/>
        <pt x="2395" y="358" on="0"/>
        <pt x="2384" y="349" on="1"/>
        <pt x="2384" y="331" on="0"/>
        <pt x="2402" y="317" on="1"/>
        <pt x="2636" y="256" on="0"/>
        <pt x="2874" y="263" on="1"/>
        <pt x="2874" y="260" on="0"/>
        <pt x="2886" y="242" on="0"/>
      </contour>
      <contour>
        <pt x="2558" y="-150" on="1"/>
        <pt x="2535" y="-178" on="0"/>
        <pt x="2512" y="-206" on="1"/>
        <pt x="2482" y="-237" on="0"/>
        <pt x="2451" y="-237" on="1"/>
        <pt x="2424" y="-237" on="0"/>
        <pt x="2385" y="-214" on="1"/>
        <pt x="2343" y="-189" on="0"/>
        <pt x="2343" y="-166" on="1"/>
        <pt x="2343" y="-133" on="0"/>
        <pt x="2387" y="-96" on="1"/>
        <pt x="2426" y="-63" on="0"/>
        <pt x="2445" y="-63" on="1"/>
        <pt x="2471" y="-63" on="0"/>
      </contour>
      <contour>
        <pt x="1586" y="632" on="1"/>
        <pt x="1586" y="602" on="0"/>
        <pt x="1513" y="530" on="0"/>
        <pt x="1493" y="530" on="1"/>
        <pt x="1464" y="530" on="0"/>
        <pt x="1381" y="596" on="0"/>
        <pt x="1381" y="617" on="1"/>
        <pt x="1381" y="635" on="0"/>
        <pt x="1458" y="714" on="0"/>
        <pt x="1478" y="714" on="1"/>
        <pt x="1498" y="714" on="0"/>
        <pt x="1586" y="647" on="0"/>
      </contour>
      <contour>
        <pt x="849" y="1094" on="1"/>
        <pt x="849" y="1058" on="0"/>
        <pt x="804" y="1026" on="1"/>
        <pt x="770" y="1001" on="0"/>
        <pt x="756" y="1001" on="1"/>
        <pt x="744" y="1001" on="0"/>
        <pt x="682" y="1032" on="0"/>
        <pt x="669" y="1032" on="1"/>
        <pt x="659" y="1032" on="0"/>
        <pt x="586" y="960" on="0"/>
        <pt x="572" y="960" on="1"/>
        <pt x="543" y="960" on="0"/>
        <pt x="504" y="999" on="1"/>
        <pt x="469" y="1033" on="0"/>
        <pt x="469" y="1042" on="1"/>
        <pt x="469" y="1078" on="0"/>
        <pt x="514" y="1109" on="1"/>
        <pt x="550" y="1135" on="0"/>
        <pt x="567" y="1135" on="1"/>
        <pt x="578" y="1135" on="0"/>
        <pt x="651" y="1103" on="0"/>
        <pt x="664" y="1103" on="1"/>
        <pt x="675" y="1103" on="0"/>
        <pt x="749" y="1176" on="0"/>
        <pt x="762" y="1176" on="1"/>
        <pt x="808" y="1176" on="0"/>
      </contour>
      <contour>
        <pt x="878" y="-69" on="1"/>
        <pt x="879" y="-108" on="0"/>
        <pt x="620" y="-199" on="1"/>
        <pt x="548" y="-226" on="0"/>
        <pt x="389" y="-277" on="1"/>
        <pt x="389" y="-230" on="1"/>
        <pt x="408" y="-210" on="0"/>
        <pt x="444" y="-181" on="1"/>
        <pt x="525" y="-137" on="0"/>
        <pt x="668" y="-84" on="1"/>
        <pt x="803" y="-32" on="0"/>
        <pt x="824" y="-33" on="1"/>
        <pt x="878" y="-33" on="1"/>
      </contour>
      <contour>
        <pt x="3182" y="1469" on="1"/>
        <pt x="3169" y="1482" on="0"/>
        <pt x="3146" y="1482" on="1"/>
        <pt x="3115" y="1470" on="0"/>
        <pt x="3092" y="1412" on="1"/>
        <pt x="3128" y="1412" on="1"/>
        <pt x="3182" y="1436" on="0"/>
      </contour>
      <contour>
        <pt x="848" y="338" on="1"/>
        <pt x="848" y="350" on="0"/>
        <pt x="837" y="392" on="0"/>
        <pt x="837" y="396" on="1"/>
        <pt x="783" y="396" on="1"/>
        <pt x="763" y="397" on="0"/>
        <pt x="631" y="329" on="0"/>
        <pt x="592" y="299" on="1"/>
        <pt x="643" y="274" on="0"/>
        <pt x="659" y="274" on="1"/>
        <pt x="739" y="274" on="0"/>
        <pt x="805" y="298" on="1"/>
        <pt x="822" y="313" on="0"/>
      </contour>
    </TTGlyph>
    <TTGlyph name="uniFB54" xMin="296" yMin="-874" xMax="2917" yMax="1614">
      <contour>
        <pt x="2917" y="1470" on="1"/>
        <pt x="2917" y="1379" on="0"/>
        <pt x="2823" y="1316" on="1"/>
        <pt x="2745" y="1266" on="0"/>
        <pt x="2672" y="1266" on="1"/>
        <pt x="2661" y="1266" on="0"/>
        <pt x="2608" y="1275" on="0"/>
        <pt x="2595" y="1275" on="1"/>
        <pt x="2585" y="1275" on="0"/>
        <pt x="2527" y="1257" on="0"/>
        <pt x="2509" y="1257" on="1"/>
        <pt x="2519" y="1294" on="0"/>
        <pt x="2546" y="1331" on="1"/>
        <pt x="2579" y="1378" on="0"/>
        <pt x="2610" y="1378" on="1"/>
        <pt x="2623" y="1378" on="0"/>
        <pt x="2623" y="1368" on="0"/>
        <pt x="2636" y="1368" on="1"/>
        <pt x="2668" y="1368" on="0"/>
        <pt x="2793" y="1552" on="0"/>
        <pt x="2845" y="1552" on="1"/>
        <pt x="2873" y="1552" on="0"/>
        <pt x="2897" y="1519" on="1"/>
        <pt x="2917" y="1491" on="0"/>
      </contour>
      <contour>
        <pt x="2405" y="1538" on="1"/>
        <pt x="2381" y="1427" on="0"/>
        <pt x="2175" y="1378" on="1"/>
        <pt x="2129" y="1392" on="1"/>
        <pt x="2161" y="1426" on="0"/>
        <pt x="2242" y="1486" on="1"/>
        <pt x="2222" y="1511" on="0"/>
        <pt x="2201" y="1511" on="1"/>
        <pt x="2157" y="1511" on="0"/>
        <pt x="2106" y="1461" on="1"/>
        <pt x="2069" y="1461" on="1"/>
        <pt x="2085" y="1516" on="0"/>
        <pt x="2194" y="1614" on="0"/>
        <pt x="2247" y="1614" on="1"/>
        <pt x="2280" y="1614" on="0"/>
      </contour>
      <contour>
        <pt x="2754" y="175" on="1"/>
        <pt x="2754" y="55" on="0"/>
        <pt x="2685" y="27" on="1"/>
        <pt x="2559" y="1025" on="1"/>
        <pt x="2559" y="1160" on="0"/>
        <pt x="2628" y="1193" on="1"/>
      </contour>
      <contour>
        <pt x="1975" y="1061" on="1"/>
        <pt x="1975" y="1022" on="0"/>
        <pt x="1776" y="913" on="1"/>
        <pt x="1628" y="834" on="0"/>
        <pt x="1481" y="754" on="1"/>
        <pt x="1444" y="754" on="1"/>
        <pt x="1444" y="788" on="1"/>
        <pt x="1443" y="821" on="0"/>
        <pt x="1664" y="946" on="1"/>
        <pt x="1876" y="1067" on="0"/>
        <pt x="1961" y="1091" on="1"/>
        <pt x="1975" y="1077" on="0"/>
      </contour>
      <contour>
        <pt x="1525" y="1148" on="1"/>
        <pt x="1525" y="1045" on="0"/>
        <pt x="1295" y="958" on="1"/>
        <pt x="1277" y="958" on="0"/>
        <pt x="1242" y="970" on="0"/>
        <pt x="1240" y="970" on="1"/>
        <pt x="1247" y="1004" on="0"/>
        <pt x="1303" y="1034" on="1"/>
        <pt x="1381" y="1077" on="0"/>
        <pt x="1392" y="1086" on="1"/>
        <pt x="1361" y="1122" on="0"/>
        <pt x="1310" y="1122" on="1"/>
        <pt x="1271" y="1122" on="0"/>
        <pt x="1223" y="1071" on="1"/>
        <pt x="1208" y="1072" on="0"/>
        <pt x="1208" y="1096" on="1"/>
        <pt x="1208" y="1136" on="0"/>
        <pt x="1322" y="1225" on="0"/>
        <pt x="1366" y="1225" on="1"/>
        <pt x="1421" y="1225" on="0"/>
        <pt x="1471" y="1203" on="1"/>
        <pt x="1525" y="1179" on="0"/>
      </contour>
      <contour>
        <pt x="2314" y="251" on="1"/>
        <pt x="2293" y="110" on="0"/>
        <pt x="2249" y="55" on="1"/>
        <pt x="2201" y="-4" on="0"/>
        <pt x="2093" y="-4" on="1"/>
        <pt x="2031" y="-4" on="0"/>
        <pt x="1865" y="67" on="0"/>
        <pt x="1863" y="67" on="1"/>
        <pt x="1850" y="67" on="0"/>
        <pt x="1812" y="44" on="1"/>
        <pt x="1762" y="15" on="0"/>
        <pt x="1734" y="3" on="0"/>
        <pt x="1584" y="-37" on="1"/>
        <pt x="1549" y="-105" on="0"/>
        <pt x="1458" y="-237" on="1"/>
        <pt x="1390" y="-318" on="0"/>
        <pt x="1379" y="-330" on="1"/>
        <pt x="1327" y="-388" on="0"/>
        <pt x="1277" y="-420" on="1"/>
        <pt x="1248" y="-439" on="0"/>
        <pt x="1135" y="-463" on="1"/>
        <pt x="1034" y="-485" on="0"/>
        <pt x="1008" y="-485" on="1"/>
        <pt x="921" y="-485" on="1"/>
        <pt x="862" y="-485" on="0"/>
        <pt x="771" y="-462" on="1"/>
        <pt x="688" y="-440" on="0"/>
        <pt x="656" y="-421" on="1"/>
        <pt x="656" y="-391" on="0"/>
        <pt x="678" y="-376" on="1"/>
        <pt x="690" y="-372" on="0"/>
        <pt x="716" y="-372" on="1"/>
        <pt x="727" y="-372" on="0"/>
        <pt x="882" y="-403" on="0"/>
        <pt x="896" y="-403" on="1"/>
        <pt x="1186" y="-403" on="0"/>
        <pt x="1443" y="-81" on="1"/>
        <pt x="1407" y="-59" on="0"/>
        <pt x="1354" y="-58" on="1"/>
        <pt x="1277" y="-55" on="0"/>
        <pt x="1263" y="-52" on="1"/>
        <pt x="1213" y="-42" on="0"/>
        <pt x="1182" y="10" on="1"/>
        <pt x="1156" y="54" on="0"/>
        <pt x="1156" y="98" on="1"/>
        <pt x="1156" y="157" on="0"/>
        <pt x="1295" y="365" on="0"/>
        <pt x="1340" y="365" on="1"/>
        <pt x="1408" y="365" on="0"/>
        <pt x="1467" y="261" on="1"/>
        <pt x="1472" y="251" on="0"/>
        <pt x="1526" y="126" on="1"/>
        <pt x="1540" y="108" on="0"/>
        <pt x="1571" y="108" on="1"/>
        <pt x="1584" y="108" on="0"/>
        <pt x="1612" y="124" on="0"/>
        <pt x="1621" y="125" on="1"/>
        <pt x="1663" y="129" on="0"/>
        <pt x="1743" y="152" on="1"/>
        <pt x="1785" y="175" on="0"/>
        <pt x="1827" y="199" on="1"/>
        <pt x="1887" y="231" on="0"/>
        <pt x="1919" y="231" on="1"/>
        <pt x="1932" y="231" on="0"/>
        <pt x="2123" y="149" on="0"/>
        <pt x="2135" y="149" on="1"/>
        <pt x="2185" y="149" on="1"/>
        <pt x="2221" y="149" on="0"/>
        <pt x="2221" y="201" on="1"/>
        <pt x="2221" y="211" on="0"/>
        <pt x="2179" y="492" on="1"/>
        <pt x="2130" y="817" on="0"/>
        <pt x="2115" y="932" on="1"/>
        <pt x="2113" y="948" on="0"/>
        <pt x="2090" y="1004" on="1"/>
        <pt x="2068" y="1058" on="0"/>
        <pt x="2068" y="1071" on="1"/>
        <pt x="2068" y="1099" on="0"/>
        <pt x="2144" y="1266" on="0"/>
        <pt x="2165" y="1275" on="1"/>
        <pt x="2186" y="1266" on="0"/>
        <pt x="2188" y="1224" on="1"/>
        <pt x="2191" y="1173" on="0"/>
        <pt x="2192" y="1171" on="1"/>
        <pt x="2201" y="1157" on="0"/>
        <pt x="2292" y="1099" on="1"/>
        <pt x="2271" y="1052" on="0"/>
        <pt x="2249" y="1004" on="1"/>
        <pt x="2221" y="940" on="0"/>
        <pt x="2221" y="902" on="1"/>
      </contour>
      <contour>
        <pt x="972" y="1316" on="1"/>
        <pt x="972" y="1279" on="0"/>
        <pt x="939" y="1258" on="1"/>
        <pt x="779" y="1175" on="0"/>
        <pt x="466" y="1000" on="1"/>
        <pt x="420" y="1000" on="1"/>
        <pt x="420" y="1034" on="1"/>
        <pt x="420" y="1067" on="0"/>
        <pt x="637" y="1189" on="1"/>
        <pt x="781" y="1268" on="0"/>
        <pt x="924" y="1347" on="1"/>
        <pt x="959" y="1347" on="1"/>
        <pt x="972" y="1334" on="0"/>
      </contour>
      <contour>
        <pt x="2129" y="-388" on="1"/>
        <pt x="2129" y="-422" on="0"/>
        <pt x="2086" y="-456" on="1"/>
        <pt x="2048" y="-485" on="0"/>
        <pt x="2027" y="-485" on="1"/>
        <pt x="2011" y="-485" on="0"/>
        <pt x="1943" y="-444" on="0"/>
        <pt x="1934" y="-444" on="1"/>
        <pt x="1922" y="-444" on="0"/>
        <pt x="1845" y="-516" on="0"/>
        <pt x="1832" y="-516" on="1"/>
        <pt x="1807" y="-516" on="0"/>
        <pt x="1720" y="-457" on="0"/>
        <pt x="1720" y="-439" on="1"/>
        <pt x="1720" y="-419" on="0"/>
        <pt x="1787" y="-331" on="0"/>
        <pt x="1807" y="-331" on="1"/>
        <pt x="1819" y="-331" on="0"/>
        <pt x="1905" y="-383" on="0"/>
        <pt x="1919" y="-383" on="1"/>
        <pt x="1931" y="-383" on="0"/>
        <pt x="2006" y="-301" on="0"/>
        <pt x="2016" y="-301" on="1"/>
        <pt x="2039" y="-301" on="0"/>
        <pt x="2129" y="-373" on="0"/>
      </contour>
      <contour>
        <pt x="839" y="196" on="1"/>
        <pt x="839" y="145" on="0"/>
        <pt x="833" y="131" on="1"/>
        <pt x="819" y="98" on="0"/>
        <pt x="764" y="80" on="1"/>
        <pt x="665" y="75" on="0"/>
        <pt x="466" y="53" on="1"/>
        <pt x="410" y="45" on="0"/>
        <pt x="390" y="18" on="1"/>
        <pt x="375" y="-1" on="0"/>
        <pt x="378" y="-65" on="1"/>
        <pt x="470" y="-737" on="1"/>
        <pt x="463" y="-770" on="0"/>
        <pt x="456" y="-803" on="1"/>
        <pt x="442" y="-851" on="0"/>
        <pt x="402" y="-874" on="1"/>
        <pt x="296" y="-131" on="1"/>
        <pt x="319" y="-38" on="0"/>
        <pt x="342" y="55" on="1"/>
        <pt x="383" y="171" on="0"/>
        <pt x="464" y="197" on="1"/>
        <pt x="513" y="206" on="0"/>
        <pt x="615" y="238" on="1"/>
        <pt x="611" y="260" on="0"/>
        <pt x="566" y="303" on="0"/>
        <pt x="547" y="303" on="1"/>
        <pt x="535" y="303" on="0"/>
        <pt x="435" y="203" on="1"/>
        <pt x="428" y="204" on="0"/>
        <pt x="399" y="220" on="1"/>
        <pt x="484" y="456" on="0"/>
        <pt x="588" y="456" on="1"/>
        <pt x="648" y="456" on="0"/>
        <pt x="839" y="252" on="0"/>
      </contour>
      <contour>
        <pt x="2825" y="1420" on="1"/>
        <pt x="2775" y="1431" on="0"/>
        <pt x="2757" y="1406" on="1"/>
        <pt x="2754" y="1396" on="0"/>
        <pt x="2756" y="1379" on="1"/>
        <pt x="2799" y="1401" on="0"/>
      </contour>
      <contour>
        <pt x="1391" y="110" on="1"/>
        <pt x="1376" y="138" on="0"/>
        <pt x="1360" y="167" on="1"/>
        <pt x="1341" y="201" on="0"/>
        <pt x="1325" y="201" on="1"/>
        <pt x="1294" y="201" on="0"/>
        <pt x="1269" y="143" on="1"/>
        <pt x="1304" y="109" on="0"/>
        <pt x="1317" y="110" on="1"/>
      </contour>
    </TTGlyph>
    <TTGlyph name="uniFB55" xMin="351" yMin="-501" xMax="1457" yMax="1177">
      <contour>
        <pt x="1087" y="1125" on="1"/>
        <pt x="1087" y="1097" on="0"/>
        <pt x="1065" y="1049" on="1"/>
        <pt x="1038" y="993" on="0"/>
        <pt x="1006" y="993" on="1"/>
        <pt x="989" y="993" on="0"/>
        <pt x="914" y="1052" on="0"/>
        <pt x="914" y="1065" on="1"/>
        <pt x="914" y="1090" on="0"/>
        <pt x="980" y="1177" on="0"/>
        <pt x="996" y="1177" on="1"/>
        <pt x="1004" y="1177" on="0"/>
      </contour>
      <contour>
        <pt x="1436" y="143" on="1"/>
        <pt x="1436" y="-6" on="0"/>
        <pt x="1140" y="-138" on="1"/>
        <pt x="897" y="-245" on="0"/>
        <pt x="776" y="-245" on="1"/>
        <pt x="709" y="-245" on="1"/>
        <pt x="580" y="-245" on="0"/>
        <pt x="472" y="-161" on="1"/>
        <pt x="351" y="-66" on="0"/>
        <pt x="351" y="77" on="1"/>
        <pt x="351" y="146" on="0"/>
        <pt x="400" y="247" on="1"/>
        <pt x="456" y="362" on="0"/>
        <pt x="534" y="419" on="1"/>
        <pt x="534" y="372" on="1"/>
        <pt x="535" y="360" on="0"/>
        <pt x="509" y="312" on="1"/>
        <pt x="475" y="250" on="0"/>
        <pt x="466" y="229" on="1"/>
        <pt x="464" y="223" on="0"/>
        <pt x="464" y="169" on="1"/>
        <pt x="464" y="-92" on="0"/>
        <pt x="822" y="-92" on="1"/>
        <pt x="943" y="-92" on="0"/>
        <pt x="1118" y="-19" on="1"/>
        <pt x="1281" y="48" on="0"/>
        <pt x="1314" y="98" on="1"/>
        <pt x="1314" y="115" on="0"/>
        <pt x="1306" y="120" on="1"/>
        <pt x="1272" y="128" on="0"/>
        <pt x="1007" y="156" on="1"/>
        <pt x="996" y="165" on="0"/>
        <pt x="996" y="184" on="1"/>
        <pt x="996" y="229" on="0"/>
        <pt x="1041" y="242" on="1"/>
        <pt x="1314" y="321" on="0"/>
        <pt x="1314" y="394" on="1"/>
        <pt x="1314" y="407" on="0"/>
        <pt x="1299" y="428" on="1"/>
        <pt x="1278" y="457" on="0"/>
        <pt x="1277" y="460" on="1"/>
        <pt x="1230" y="424" on="0"/>
        <pt x="1184" y="388" on="1"/>
        <pt x="1169" y="378" on="0"/>
        <pt x="1124" y="378" on="1"/>
        <pt x="996" y="378" on="0"/>
        <pt x="996" y="527" on="1"/>
        <pt x="996" y="575" on="0"/>
        <pt x="1047" y="681" on="1"/>
        <pt x="1106" y="809" on="0"/>
        <pt x="1170" y="809" on="1"/>
        <pt x="1210" y="809" on="0"/>
        <pt x="1230" y="794" on="1"/>
        <pt x="1250" y="777" on="0"/>
        <pt x="1278" y="730" on="1"/>
        <pt x="1296" y="696" on="0"/>
        <pt x="1315" y="663" on="1"/>
        <pt x="1395" y="541" on="0"/>
        <pt x="1395" y="486" on="1"/>
        <pt x="1395" y="430" on="0"/>
        <pt x="1374" y="369" on="1"/>
        <pt x="1354" y="315" on="0"/>
        <pt x="1334" y="262" on="1"/>
        <pt x="1350" y="247" on="0"/>
        <pt x="1392" y="231" on="1"/>
        <pt x="1404" y="227" on="0"/>
        <pt x="1436" y="161" on="0"/>
      </contour>
      <contour>
        <pt x="1456" y="-262" on="1"/>
        <pt x="1457" y="-301" on="0"/>
        <pt x="1414" y="-324" on="1"/>
        <pt x="1316" y="-376" on="0"/>
        <pt x="1029" y="-501" on="0"/>
        <pt x="1010" y="-501" on="1"/>
        <pt x="966" y="-501" on="1"/>
        <pt x="966" y="-466" on="1"/>
        <pt x="965" y="-431" on="0"/>
        <pt x="1159" y="-341" on="1"/>
        <pt x="1284" y="-283" on="0"/>
        <pt x="1409" y="-226" on="1"/>
        <pt x="1456" y="-226" on="1"/>
      </contour>
      <contour>
        <pt x="1211" y="578" on="1"/>
        <pt x="1167" y="645" on="0"/>
        <pt x="1142" y="645" on="1"/>
        <pt x="1098" y="600" on="0"/>
        <pt x="1098" y="578" on="1"/>
        <pt x="1098" y="532" on="0"/>
        <pt x="1145" y="532" on="1"/>
        <pt x="1189" y="532" on="0"/>
      </contour>
    </TTGlyph>
    <TTGlyph name="uniFB56" xMin="-27" yMin="-1023" xMax="2645" yMax="1662">
      <contour>
        <pt x="2349" y="1361" on="1"/>
        <pt x="2349" y="1361" on="0"/>
        <pt x="2326" y="1305" on="1"/>
        <pt x="2294" y="1305" on="1"/>
        <pt x="2281" y="1304" on="0"/>
        <pt x="2233" y="1345" on="0"/>
        <pt x="2220" y="1345" on="1"/>
        <pt x="2209" y="1345" on="0"/>
        <pt x="2162" y="1302" on="1"/>
        <pt x="2106" y="1250" on="0"/>
        <pt x="2090" y="1239" on="1"/>
        <pt x="1965" y="1162" on="0"/>
        <pt x="1924" y="1162" on="1"/>
        <pt x="1910" y="1162" on="0"/>
        <pt x="1898" y="1165" on="1"/>
        <pt x="1901" y="1167" on="0"/>
        <pt x="2133" y="1371" on="1"/>
        <pt x="2088" y="1414" on="0"/>
        <pt x="2079" y="1431" on="1"/>
        <pt x="2072" y="1444" on="0"/>
        <pt x="2072" y="1478" on="1"/>
        <pt x="2072" y="1517" on="0"/>
        <pt x="2116" y="1585" on="1"/>
        <pt x="2166" y="1662" on="0"/>
        <pt x="2215" y="1662" on="1"/>
        <pt x="2248" y="1662" on="0"/>
        <pt x="2262" y="1639" on="1"/>
        <pt x="2268" y="1618" on="0"/>
        <pt x="2268" y="1573" on="1"/>
        <pt x="2268" y="1555" on="1"/>
        <pt x="2268" y="1496" on="0"/>
        <pt x="2279" y="1465" on="1"/>
        <pt x="2286" y="1446" on="0"/>
        <pt x="2318" y="1407" on="1"/>
        <pt x="2349" y="1374" on="0"/>
      </contour>
      <contour>
        <pt x="2226" y="905" on="1"/>
        <pt x="2226" y="856" on="0"/>
        <pt x="2139" y="803" on="1"/>
        <pt x="2117" y="803" on="0"/>
        <pt x="2075" y="836" on="1"/>
        <pt x="2031" y="871" on="0"/>
        <pt x="2031" y="895" on="1"/>
        <pt x="2031" y="921" on="0"/>
        <pt x="2096" y="987" on="0"/>
        <pt x="2128" y="987" on="1"/>
        <pt x="2157" y="987" on="0"/>
        <pt x="2226" y="922" on="0"/>
      </contour>
      <contour>
        <pt x="2328" y="741" on="1"/>
        <pt x="2328" y="723" on="0"/>
        <pt x="2241" y="639" on="0"/>
        <pt x="2220" y="639" on="1"/>
        <pt x="2216" y="639" on="0"/>
        <pt x="2139" y="690" on="1"/>
        <pt x="2057" y="608" on="0"/>
        <pt x="2037" y="608" on="1"/>
        <pt x="2011" y="608" on="0"/>
        <pt x="1928" y="673" on="0"/>
        <pt x="1928" y="695" on="1"/>
        <pt x="1928" y="713" on="0"/>
        <pt x="2007" y="792" on="0"/>
        <pt x="2026" y="792" on="1"/>
        <pt x="2037" y="792" on="0"/>
        <pt x="2110" y="751" on="0"/>
        <pt x="2123" y="751" on="1"/>
        <pt x="2136" y="751" on="0"/>
        <pt x="2209" y="833" on="0"/>
        <pt x="2226" y="833" on="1"/>
        <pt x="2245" y="833" on="0"/>
        <pt x="2328" y="760" on="0"/>
      </contour>
      <contour>
        <pt x="1519" y="1294" on="1"/>
        <pt x="1519" y="1283" on="0"/>
        <pt x="1507" y="1244" on="0"/>
        <pt x="1507" y="1234" on="1"/>
        <pt x="1504" y="1234" on="0"/>
        <pt x="1493" y="1222" on="0"/>
        <pt x="1478" y="1222" on="1"/>
        <pt x="1466" y="1222" on="0"/>
        <pt x="1414" y="1263" on="0"/>
        <pt x="1402" y="1263" on="1"/>
        <pt x="1389" y="1263" on="0"/>
        <pt x="1327" y="1208" on="1"/>
        <pt x="1253" y="1143" on="0"/>
        <pt x="1220" y="1123" on="1"/>
        <pt x="1218" y="1122" on="0"/>
        <pt x="1085" y="1060" on="1"/>
        <pt x="1049" y="1060" on="1"/>
        <pt x="1063" y="1094" on="0"/>
        <pt x="1162" y="1167" on="1"/>
        <pt x="1276" y="1253" on="0"/>
        <pt x="1314" y="1299" on="1"/>
        <pt x="1253" y="1386" on="0"/>
        <pt x="1253" y="1411" on="1"/>
        <pt x="1253" y="1456" on="0"/>
        <pt x="1306" y="1520" on="1"/>
        <pt x="1365" y="1593" on="0"/>
        <pt x="1424" y="1590" on="1"/>
        <pt x="1456" y="1555" on="0"/>
        <pt x="1456" y="1490" on="1"/>
        <pt x="1457" y="1398" on="0"/>
        <pt x="1464" y="1367" on="0"/>
        <pt x="1493" y="1336" on="1"/>
        <pt x="1519" y="1307" on="0"/>
      </contour>
      <contour>
        <pt x="1345" y="756" on="1"/>
        <pt x="1345" y="733" on="0"/>
        <pt x="1271" y="659" on="0"/>
        <pt x="1253" y="659" on="1"/>
        <pt x="1228" y="659" on="0"/>
        <pt x="1198" y="695" on="1"/>
        <pt x="1171" y="727" on="0"/>
        <pt x="1171" y="741" on="1"/>
        <pt x="1171" y="758" on="0"/>
        <pt x="1237" y="844" on="0"/>
        <pt x="1253" y="844" on="1"/>
        <pt x="1279" y="844" on="0"/>
        <pt x="1345" y="778" on="0"/>
      </contour>
      <contour>
        <pt x="2645" y="270" on="1"/>
        <pt x="2645" y="152" on="0"/>
        <pt x="2612" y="99" on="1"/>
        <pt x="2572" y="34" on="0"/>
        <pt x="2472" y="34" on="1"/>
        <pt x="2454" y="34" on="0"/>
        <pt x="2313" y="75" on="0"/>
        <pt x="2302" y="75" on="1"/>
        <pt x="2291" y="75" on="0"/>
        <pt x="2251" y="49" on="1"/>
        <pt x="2208" y="21" on="0"/>
        <pt x="2191" y="17" on="1"/>
        <pt x="2139" y="4" on="0"/>
        <pt x="2098" y="4" on="1"/>
        <pt x="2085" y="4" on="0"/>
        <pt x="1946" y="34" on="0"/>
        <pt x="1934" y="34" on="1"/>
        <pt x="1924" y="34" on="0"/>
        <pt x="1895" y="20" on="1"/>
        <pt x="1858" y="2" on="0"/>
        <pt x="1843" y="-3" on="1"/>
        <pt x="1806" y="-16" on="0"/>
        <pt x="1688" y="-16" on="1"/>
        <pt x="1598" y="-16" on="0"/>
        <pt x="1584" y="-13" on="1"/>
        <pt x="1551" y="-7" on="0"/>
        <pt x="1471" y="35" on="1"/>
        <pt x="1397" y="75" on="0"/>
        <pt x="1386" y="75" on="1"/>
        <pt x="1374" y="75" on="0"/>
        <pt x="1331" y="52" on="1"/>
        <pt x="1280" y="25" on="0"/>
        <pt x="1260" y="17" on="1"/>
        <pt x="1166" y="-16" on="0"/>
        <pt x="1033" y="-16" on="1"/>
        <pt x="949" y="-16" on="0"/>
        <pt x="930" y="-13" on="1"/>
        <pt x="915" y="-12" on="0"/>
        <pt x="846" y="25" on="0"/>
        <pt x="833" y="25" on="1"/>
        <pt x="814" y="25" on="0"/>
        <pt x="795" y="-2" on="1"/>
        <pt x="803" y="-46" on="0"/>
        <pt x="803" y="-89" on="1"/>
        <pt x="803" y="-284" on="0"/>
        <pt x="642" y="-404" on="1"/>
        <pt x="505" y="-507" on="0"/>
        <pt x="337" y="-507" on="1"/>
        <pt x="203" y="-507" on="0"/>
        <pt x="98" y="-444" on="1"/>
        <pt x="-27" y="-366" on="0"/>
        <pt x="-27" y="-231" on="1"/>
        <pt x="-27" y="-97" on="0"/>
        <pt x="120" y="54" on="1"/>
        <pt x="157" y="54" on="1"/>
        <pt x="157" y="18" on="1"/>
        <pt x="157" y="6" on="0"/>
        <pt x="131" y="-24" on="1"/>
        <pt x="103" y="-58" on="0"/>
        <pt x="98" y="-74" on="1"/>
        <pt x="86" y="-115" on="0"/>
        <pt x="86" y="-159" on="1"/>
        <pt x="86" y="-264" on="0"/>
        <pt x="215" y="-323" on="1"/>
        <pt x="306" y="-364" on="0"/>
        <pt x="383" y="-364" on="1"/>
        <pt x="442" y="-364" on="0"/>
        <pt x="567" y="-308" on="1"/>
        <pt x="696" y="-251" on="0"/>
        <pt x="707" y="-214" on="1"/>
        <pt x="710" y="-203" on="0"/>
        <pt x="710" y="-149" on="1"/>
        <pt x="598" y="910" on="1"/>
        <pt x="598" y="991" on="0"/>
        <pt x="655" y="1049" on="1"/>
        <pt x="662" y="1041" on="0"/>
        <pt x="675" y="1024" on="1"/>
        <pt x="698" y="791" on="0"/>
        <pt x="774" y="328" on="1"/>
        <pt x="795" y="241" on="0"/>
        <pt x="890" y="185" on="1"/>
        <pt x="972" y="137" on="0"/>
        <pt x="1048" y="137" on="1"/>
        <pt x="1145" y="137" on="0"/>
        <pt x="1216" y="160" on="1"/>
        <pt x="1230" y="161" on="0"/>
        <pt x="1244" y="163" on="1"/>
        <pt x="1263" y="167" on="0"/>
        <pt x="1263" y="183" on="1"/>
        <pt x="1263" y="211" on="1"/>
        <pt x="1241" y="230" on="0"/>
        <pt x="1195" y="251" on="1"/>
        <pt x="1090" y="251" on="1"/>
        <pt x="1090" y="284" on="1"/>
        <pt x="1090" y="316" on="0"/>
        <pt x="1160" y="374" on="1"/>
        <pt x="1224" y="428" on="0"/>
        <pt x="1247" y="430" on="1"/>
        <pt x="1369" y="444" on="0"/>
        <pt x="1381" y="444" on="1"/>
        <pt x="1452" y="444" on="0"/>
        <pt x="1527" y="414" on="1"/>
        <pt x="1632" y="371" on="0"/>
        <pt x="1632" y="296" on="1"/>
        <pt x="1632" y="251" on="0"/>
        <pt x="1539" y="173" on="1"/>
        <pt x="1548" y="159" on="0"/>
        <pt x="1577" y="139" on="1"/>
        <pt x="1661" y="116" on="0"/>
        <pt x="1734" y="116" on="1"/>
        <pt x="1861" y="116" on="0"/>
        <pt x="1931" y="159" on="1"/>
        <pt x="1959" y="176" on="0"/>
        <pt x="1990" y="221" on="1"/>
        <pt x="2041" y="296" on="0"/>
        <pt x="2044" y="300" on="1"/>
        <pt x="2091" y="300" on="1"/>
        <pt x="2091" y="243" on="1"/>
        <pt x="2092" y="230" on="0"/>
        <pt x="2076" y="202" on="1"/>
        <pt x="2055" y="165" on="0"/>
        <pt x="2051" y="154" on="1"/>
        <pt x="2069" y="137" on="0"/>
        <pt x="2103" y="137" on="1"/>
        <pt x="2227" y="137" on="0"/>
        <pt x="2275" y="202" on="1"/>
        <pt x="2329" y="297" on="0"/>
        <pt x="2384" y="393" on="1"/>
        <pt x="2399" y="379" on="0"/>
        <pt x="2399" y="340" on="1"/>
        <pt x="2399" y="322" on="0"/>
        <pt x="2395" y="278" on="1"/>
        <pt x="2390" y="240" on="0"/>
        <pt x="2391" y="226" on="1"/>
        <pt x="2404" y="217" on="0"/>
        <pt x="2427" y="201" on="1"/>
        <pt x="2440" y="201" on="0"/>
        <pt x="2499" y="188" on="0"/>
        <pt x="2513" y="188" on="1"/>
        <pt x="2528" y="188" on="0"/>
        <pt x="2564" y="206" on="1"/>
        <pt x="2563" y="220" on="0"/>
        <pt x="2549" y="274" on="1"/>
        <pt x="2538" y="324" on="0"/>
        <pt x="2538" y="356" on="1"/>
        <pt x="2538" y="426" on="0"/>
        <pt x="2590" y="475" on="1"/>
        <pt x="2645" y="396" on="0"/>
      </contour>
      <contour>
        <pt x="690" y="-597" on="1"/>
        <pt x="587" y="-673" on="0"/>
        <pt x="305" y="-794" on="1"/>
        <pt x="291" y="-779" on="0"/>
        <pt x="291" y="-764" on="1"/>
        <pt x="291" y="-730" on="0"/>
        <pt x="362" y="-686" on="1"/>
        <pt x="414" y="-654" on="0"/>
        <pt x="458" y="-638" on="1"/>
        <pt x="532" y="-604" on="0"/>
        <pt x="677" y="-539" on="1"/>
      </contour>
      <contour>
        <pt x="515" y="-842" on="1"/>
        <pt x="515" y="-870" on="0"/>
        <pt x="434" y="-908" on="1"/>
        <pt x="392" y="-924" on="0"/>
        <pt x="349" y="-941" on="1"/>
        <pt x="167" y="-1023" on="0"/>
        <pt x="76" y="-1017" on="1"/>
        <pt x="97" y="-952" on="0"/>
        <pt x="120" y="-942" on="1"/>
        <pt x="421" y="-804" on="0"/>
        <pt x="451" y="-806" on="1"/>
        <pt x="515" y="-806" on="1"/>
      </contour>
      <contour>
        <pt x="2188" y="1511" on="1"/>
        <pt x="2188" y="1548" on="1"/>
        <pt x="2170" y="1548" on="1"/>
        <pt x="2170" y="1511" on="1"/>
      </contour>
      <contour>
        <pt x="1384" y="1428" on="1"/>
        <pt x="1384" y="1454" on="0"/>
        <pt x="1361" y="1478" on="1"/>
        <pt x="1335" y="1452" on="1"/>
        <pt x="1345" y="1442" on="0"/>
        <pt x="1348" y="1428" on="1"/>
      </contour>
    </TTGlyph>
    <TTGlyph name="uniFB57" xMin="245" yMin="-417" xMax="4248" yMax="1619">
      <contour>
        <pt x="4115" y="1328" on="1"/>
        <pt x="4115" y="1311" on="0"/>
        <pt x="4085" y="1260" on="0"/>
        <pt x="4071" y="1254" on="1"/>
        <pt x="3901" y="1186" on="0"/>
        <pt x="3558" y="1047" on="1"/>
        <pt x="3522" y="1047" on="1"/>
        <pt x="3522" y="1085" on="1"/>
        <pt x="3544" y="1115" on="0"/>
        <pt x="3586" y="1154" on="1"/>
        <pt x="3802" y="1254" on="0"/>
        <pt x="4068" y="1352" on="1"/>
        <pt x="4103" y="1352" on="1"/>
        <pt x="4115" y="1352" on="0"/>
      </contour>
      <contour>
        <pt x="4022" y="871" on="1"/>
        <pt x="4023" y="835" on="0"/>
        <pt x="3997" y="794" on="1"/>
        <pt x="3969" y="750" on="0"/>
        <pt x="3935" y="750" on="1"/>
        <pt x="3910" y="750" on="0"/>
        <pt x="3828" y="817" on="0"/>
        <pt x="3828" y="836" on="1"/>
        <pt x="3828" y="865" on="0"/>
        <pt x="3872" y="902" on="1"/>
        <pt x="3909" y="934" on="0"/>
        <pt x="3920" y="934" on="1"/>
        <pt x="3935" y="934" on="0"/>
        <pt x="3969" y="909" on="1"/>
        <pt x="3995" y="890" on="0"/>
      </contour>
      <contour>
        <pt x="3490" y="483" on="1"/>
        <pt x="3490" y="456" on="0"/>
        <pt x="3470" y="409" on="1"/>
        <pt x="3450" y="359" on="0"/>
        <pt x="3432" y="351" on="1"/>
        <pt x="3419" y="478" on="0"/>
        <pt x="3374" y="568" on="1"/>
        <pt x="3371" y="574" on="0"/>
        <pt x="3335" y="625" on="1"/>
        <pt x="3306" y="666" on="0"/>
        <pt x="3306" y="682" on="1"/>
        <pt x="3306" y="714" on="0"/>
        <pt x="3341" y="750" on="1"/>
        <pt x="3394" y="731" on="0"/>
        <pt x="3444" y="637" on="1"/>
        <pt x="3490" y="548" on="0"/>
      </contour>
      <contour>
        <pt x="4248" y="299" on="1"/>
        <pt x="4248" y="304" on="0"/>
        <pt x="4209" y="139" on="1"/>
        <pt x="4193" y="70" on="0"/>
        <pt x="4163" y="57" on="1"/>
        <pt x="4080" y="19" on="0"/>
        <pt x="3926" y="-1" on="1"/>
        <pt x="3645" y="-39" on="0"/>
        <pt x="3485" y="-39" on="1"/>
        <pt x="3324" y="-39" on="0"/>
        <pt x="3227" y="2" on="1"/>
        <pt x="3159" y="30" on="0"/>
        <pt x="3051" y="120" on="1"/>
        <pt x="2903" y="242" on="0"/>
        <pt x="2801" y="310" on="1"/>
        <pt x="2800" y="308" on="0"/>
        <pt x="2776" y="169" on="1"/>
        <pt x="2765" y="102" on="0"/>
        <pt x="2710" y="66" on="1"/>
        <pt x="2690" y="54" on="0"/>
        <pt x="2648" y="49" on="1"/>
        <pt x="2596" y="43" on="0"/>
        <pt x="2585" y="39" on="1"/>
        <pt x="2477" y="4" on="0"/>
        <pt x="2320" y="11" on="1"/>
        <pt x="2151" y="20" on="0"/>
        <pt x="2087" y="4" on="1"/>
        <pt x="2088" y="0" on="0"/>
        <pt x="2122" y="-83" on="1"/>
        <pt x="2149" y="-150" on="0"/>
        <pt x="2149" y="-172" on="1"/>
        <pt x="2149" y="-241" on="0"/>
        <pt x="2112" y="-299" on="1"/>
        <pt x="2069" y="-367" on="0"/>
        <pt x="2001" y="-367" on="1"/>
        <pt x="1988" y="-367" on="0"/>
        <pt x="1987" y="-371" on="1"/>
        <pt x="1987" y="-371" on="1"/>
        <pt x="1987" y="-376" on="0"/>
        <pt x="1975" y="-376" on="1"/>
        <pt x="1924" y="-376" on="0"/>
        <pt x="1860" y="-328" on="1"/>
        <pt x="1801" y="-283" on="0"/>
        <pt x="1783" y="-240" on="1"/>
        <pt x="1754" y="-172" on="0"/>
        <pt x="1746" y="-106" on="1"/>
        <pt x="1742" y="-75" on="0"/>
        <pt x="1692" y="-46" on="1"/>
        <pt x="1689" y="10" on="0"/>
        <pt x="1679" y="18" on="1"/>
        <pt x="1675" y="22" on="0"/>
        <pt x="1632" y="22" on="1"/>
        <pt x="1567" y="22" on="0"/>
        <pt x="1547" y="-15" on="1"/>
        <pt x="1336" y="-417" on="0"/>
        <pt x="1038" y="-417" on="1"/>
        <pt x="1027" y="-417" on="0"/>
        <pt x="912" y="-397" on="0"/>
        <pt x="900" y="-397" on="1"/>
        <pt x="792" y="-397" on="0"/>
        <pt x="644" y="-343" on="1"/>
        <pt x="671" y="-294" on="0"/>
        <pt x="705" y="-294" on="1"/>
        <pt x="718" y="-294" on="0"/>
        <pt x="928" y="-326" on="0"/>
        <pt x="941" y="-326" on="1"/>
        <pt x="953" y="-326" on="0"/>
        <pt x="999" y="-314" on="1"/>
        <pt x="1049" y="-301" on="0"/>
        <pt x="1068" y="-299" on="1"/>
        <pt x="1284" y="-271" on="0"/>
        <pt x="1453" y="-4" on="1"/>
        <pt x="1433" y="11" on="0"/>
        <pt x="1372" y="16" on="1"/>
        <pt x="1294" y="25" on="0"/>
        <pt x="1293" y="25" on="1"/>
        <pt x="1197" y="48" on="0"/>
        <pt x="1197" y="140" on="1"/>
        <pt x="1197" y="200" on="0"/>
        <pt x="1243" y="306" on="1"/>
        <pt x="1298" y="432" on="0"/>
        <pt x="1356" y="432" on="1"/>
        <pt x="1423" y="432" on="0"/>
        <pt x="1548" y="165" on="0"/>
        <pt x="1591" y="165" on="1"/>
        <pt x="1721" y="165" on="0"/>
        <pt x="1752" y="197" on="1"/>
        <pt x="1811" y="313" on="0"/>
        <pt x="1872" y="429" on="1"/>
        <pt x="1998" y="647" on="0"/>
        <pt x="2087" y="647" on="1"/>
        <pt x="2150" y="647" on="0"/>
        <pt x="2159" y="458" on="1"/>
        <pt x="2159" y="369" on="0"/>
        <pt x="2125" y="306" on="1"/>
        <pt x="2081" y="238" on="0"/>
        <pt x="2037" y="170" on="1"/>
        <pt x="2050" y="133" on="0"/>
        <pt x="2125" y="125" on="1"/>
        <pt x="2132" y="125" on="0"/>
        <pt x="2232" y="125" on="1"/>
        <pt x="2337" y="125" on="1"/>
        <pt x="2346" y="125" on="0"/>
        <pt x="2441" y="139" on="1"/>
        <pt x="2542" y="156" on="0"/>
        <pt x="2584" y="158" on="1"/>
        <pt x="2635" y="161" on="0"/>
        <pt x="2692" y="202" on="1"/>
        <pt x="2677" y="351" on="0"/>
        <pt x="2522" y="537" on="1"/>
        <pt x="2374" y="715" on="0"/>
        <pt x="2374" y="821" on="1"/>
        <pt x="2374" y="917" on="0"/>
        <pt x="2549" y="1036" on="1"/>
        <pt x="2673" y="1108" on="0"/>
        <pt x="2797" y="1181" on="1"/>
        <pt x="3350" y="1507" on="0"/>
        <pt x="3754" y="1619" on="1"/>
        <pt x="3767" y="1618" on="0"/>
        <pt x="3767" y="1594" on="1"/>
        <pt x="3767" y="1581" on="0"/>
        <pt x="3756" y="1556" on="1"/>
        <pt x="3744" y="1527" on="0"/>
        <pt x="3742" y="1521" on="1"/>
        <pt x="3736" y="1497" on="0"/>
        <pt x="3691" y="1479" on="1"/>
        <pt x="3604" y="1448" on="0"/>
        <pt x="3426" y="1380" on="1"/>
        <pt x="3411" y="1375" on="0"/>
        <pt x="3313" y="1330" on="1"/>
        <pt x="3049" y="1208" on="0"/>
        <pt x="2812" y="1060" on="1"/>
        <pt x="2754" y="1040" on="0"/>
        <pt x="2638" y="981" on="1"/>
        <pt x="2467" y="874" on="0"/>
        <pt x="2467" y="831" on="1"/>
        <pt x="2467" y="791" on="0"/>
        <pt x="2659" y="628" on="1"/>
        <pt x="2796" y="501" on="0"/>
        <pt x="2932" y="374" on="1"/>
        <pt x="3099" y="224" on="0"/>
        <pt x="3242" y="157" on="1"/>
        <pt x="3281" y="139" on="0"/>
        <pt x="3393" y="125" on="1"/>
        <pt x="3480" y="115" on="0"/>
        <pt x="3516" y="115" on="1"/>
        <pt x="3618" y="115" on="1"/>
        <pt x="3765" y="115" on="0"/>
        <pt x="4099" y="168" on="1"/>
        <pt x="4124" y="172" on="0"/>
        <pt x="4156" y="202" on="1"/>
        <pt x="4156" y="299" on="0"/>
        <pt x="4120" y="299" on="1"/>
        <pt x="4107" y="299" on="0"/>
        <pt x="3999" y="227" on="0"/>
        <pt x="3987" y="227" on="1"/>
        <pt x="3920" y="227" on="0"/>
        <pt x="3882" y="278" on="1"/>
        <pt x="3849" y="323" on="0"/>
        <pt x="3849" y="391" on="1"/>
        <pt x="3849" y="446" on="0"/>
        <pt x="3899" y="539" on="1"/>
        <pt x="3957" y="647" on="0"/>
        <pt x="4017" y="647" on="1"/>
        <pt x="4066" y="647" on="0"/>
        <pt x="4090" y="621" on="1"/>
        <pt x="4132" y="573" on="0"/>
        <pt x="4186" y="472" on="1"/>
        <pt x="4248" y="356" on="0"/>
      </contour>
      <contour>
        <pt x="1985" y="1112" on="1"/>
        <pt x="1985" y="1099" on="0"/>
        <pt x="1977" y="1085" on="1"/>
        <pt x="1965" y="1065" on="0"/>
        <pt x="1963" y="1057" on="1"/>
        <pt x="1910" y="1057" on="1"/>
        <pt x="1897" y="1057" on="0"/>
        <pt x="1860" y="1087" on="0"/>
        <pt x="1847" y="1087" on="1"/>
        <pt x="1835" y="1087" on="0"/>
        <pt x="1802" y="1051" on="1"/>
        <pt x="1756" y="1000" on="0"/>
        <pt x="1752" y="997" on="0"/>
        <pt x="1520" y="831" on="1"/>
        <pt x="1474" y="845" on="1"/>
        <pt x="1500" y="883" on="0"/>
        <pt x="1597" y="960" on="1"/>
        <pt x="1703" y="1045" on="0"/>
        <pt x="1760" y="1113" on="1"/>
        <pt x="1759" y="1116" on="0"/>
        <pt x="1717" y="1170" on="1"/>
        <pt x="1688" y="1207" on="0"/>
        <pt x="1688" y="1226" on="1"/>
        <pt x="1688" y="1261" on="0"/>
        <pt x="1728" y="1330" on="1"/>
        <pt x="1778" y="1415" on="0"/>
        <pt x="1837" y="1415" on="1"/>
        <pt x="1906" y="1415" on="0"/>
        <pt x="1906" y="1197" on="1"/>
        <pt x="1909" y="1193" on="0"/>
        <pt x="1956" y="1157" on="1"/>
        <pt x="1985" y="1134" on="0"/>
      </contour>
      <contour>
        <pt x="3131" y="-142" on="1"/>
        <pt x="3126" y="-166" on="0"/>
        <pt x="3117" y="-199" on="1"/>
        <pt x="3079" y="-250" on="0"/>
        <pt x="3047" y="-261" on="1"/>
        <pt x="2933" y="-299" on="0"/>
        <pt x="2823" y="-351" on="1"/>
        <pt x="2771" y="-376" on="0"/>
        <pt x="2712" y="-374" on="1"/>
        <pt x="2717" y="-347" on="0"/>
        <pt x="2738" y="-309" on="1"/>
        <pt x="2796" y="-271" on="0"/>
        <pt x="3084" y="-142" on="1"/>
      </contour>
      <contour>
        <pt x="961" y="1431" on="1"/>
        <pt x="941" y="1385" on="0"/>
        <pt x="908" y="1366" on="1"/>
        <pt x="688" y="1246" on="0"/>
        <pt x="645" y="1224" on="1"/>
        <pt x="490" y="1144" on="0"/>
        <pt x="401" y="1118" on="1"/>
        <pt x="388" y="1120" on="0"/>
        <pt x="388" y="1144" on="1"/>
        <pt x="388" y="1190" on="0"/>
        <pt x="432" y="1216" on="1"/>
        <pt x="463" y="1235" on="0"/>
        <pt x="927" y="1466" on="1"/>
      </contour>
      <contour>
        <pt x="664" y="816" on="1"/>
        <pt x="664" y="782" on="0"/>
        <pt x="621" y="752" on="1"/>
        <pt x="587" y="729" on="0"/>
        <pt x="573" y="729" on="1"/>
        <pt x="551" y="729" on="0"/>
        <pt x="514" y="752" on="1"/>
        <pt x="470" y="779" on="0"/>
        <pt x="470" y="805" on="1"/>
        <pt x="470" y="824" on="0"/>
        <pt x="544" y="913" on="0"/>
        <pt x="562" y="913" on="1"/>
        <pt x="592" y="913" on="0"/>
        <pt x="629" y="871" on="1"/>
        <pt x="664" y="832" on="0"/>
      </contour>
      <contour>
        <pt x="1013" y="274" on="1"/>
        <pt x="1013" y="0" on="0"/>
        <pt x="773" y="-83" on="1"/>
        <pt x="606" y="-141" on="0"/>
        <pt x="557" y="-141" on="1"/>
        <pt x="506" y="-141" on="1"/>
        <pt x="491" y="-141" on="0"/>
        <pt x="412" y="-117" on="1"/>
        <pt x="348" y="-99" on="0"/>
        <pt x="300" y="-45" on="1"/>
        <pt x="245" y="16" on="0"/>
        <pt x="245" y="120" on="1"/>
        <pt x="245" y="194" on="0"/>
        <pt x="279" y="255" on="1"/>
        <pt x="288" y="271" on="0"/>
        <pt x="386" y="411" on="1"/>
        <pt x="386" y="343" on="1"/>
        <pt x="388" y="333" on="0"/>
        <pt x="372" y="307" on="1"/>
        <pt x="353" y="278" on="0"/>
        <pt x="347" y="249" on="0"/>
        <pt x="347" y="121" on="1"/>
        <pt x="375" y="95" on="0"/>
        <pt x="436" y="55" on="1"/>
        <pt x="539" y="12" on="0"/>
        <pt x="573" y="12" on="1"/>
        <pt x="628" y="12" on="1"/>
        <pt x="705" y="12" on="0"/>
        <pt x="810" y="67" on="1"/>
        <pt x="931" y="129" on="0"/>
        <pt x="931" y="202" on="1"/>
        <pt x="931" y="244" on="0"/>
        <pt x="917" y="303" on="1"/>
        <pt x="915" y="310" on="0"/>
        <pt x="845" y="414" on="1"/>
        <pt x="777" y="514" on="0"/>
        <pt x="777" y="529" on="1"/>
        <pt x="777" y="537" on="0"/>
        <pt x="810" y="636" on="1"/>
        <pt x="846" y="636" on="1"/>
        <pt x="1013" y="435" on="0"/>
      </contour>
      <contour>
        <pt x="4053" y="416" on="1"/>
        <pt x="4043" y="442" on="0"/>
        <pt x="4020" y="493" on="0"/>
        <pt x="3992" y="493" on="1"/>
        <pt x="3975" y="493" on="0"/>
        <pt x="3951" y="470" on="1"/>
        <pt x="3951" y="425" on="1"/>
        <pt x="3972" y="406" on="0"/>
        <pt x="4006" y="404" on="1"/>
        <pt x="4038" y="402" on="0"/>
      </contour>
      <contour>
        <pt x="1830" y="1242" on="1"/>
        <pt x="1830" y="1248" on="0"/>
        <pt x="1820" y="1285" on="0"/>
        <pt x="1820" y="1290" on="1"/>
        <pt x="1781" y="1290" on="1"/>
        <pt x="1797" y="1242" on="0"/>
      </contour>
      <contour>
        <pt x="2067" y="376" on="1"/>
        <pt x="2067" y="425" on="0"/>
        <pt x="2010" y="463" on="1"/>
        <pt x="1984" y="442" on="0"/>
        <pt x="1919" y="364" on="1"/>
        <pt x="1842" y="270" on="0"/>
        <pt x="1842" y="238" on="1"/>
        <pt x="1842" y="221" on="0"/>
        <pt x="1856" y="206" on="1"/>
        <pt x="1895" y="219" on="0"/>
        <pt x="1971" y="270" on="1"/>
        <pt x="2067" y="333" on="0"/>
      </contour>
      <contour>
        <pt x="2046" y="-176" on="1"/>
        <pt x="1972" y="-63" on="0"/>
        <pt x="1845" y="-59" on="1"/>
        <pt x="1844" y="-60" on="0"/>
        <pt x="1843" y="-61" on="1"/>
        <pt x="1832" y="-71" on="0"/>
        <pt x="1832" y="-85" on="1"/>
        <pt x="1832" y="-117" on="0"/>
        <pt x="1960" y="-212" on="0"/>
        <pt x="2001" y="-212" on="1"/>
        <pt x="2046" y="-212" on="0"/>
      </contour>
      <contour>
        <pt x="1390" y="183" on="1"/>
        <pt x="1390" y="204" on="0"/>
        <pt x="1370" y="233" on="1"/>
        <pt x="1350" y="261" on="0"/>
        <pt x="1335" y="268" on="1"/>
        <pt x="1324" y="261" on="0"/>
        <pt x="1313" y="253" on="1"/>
        <pt x="1299" y="242" on="0"/>
        <pt x="1299" y="227" on="1"/>
        <pt x="1299" y="212" on="0"/>
        <pt x="1310" y="202" on="0"/>
        <pt x="1310" y="199" on="1"/>
        <pt x="1355" y="176" on="0"/>
      </contour>
    </TTGlyph>
    <TTGlyph name="uniFB58" xMin="2" yMin="-574" xMax="2546" yMax="1785">
      <contour>
        <pt x="2404" y="1042" on="1"/>
        <pt x="2364" y="1018" on="1"/>
        <pt x="2364" y="1029" on="0"/>
        <pt x="2351" y="1055" on="1"/>
        <pt x="2332" y="1080" on="0"/>
        <pt x="2188" y="1203" on="0"/>
        <pt x="2172" y="1226" on="1"/>
        <pt x="2094" y="1335" on="0"/>
        <pt x="2087" y="1449" on="1"/>
        <pt x="2002" y="1431" on="0"/>
        <pt x="2002" y="1248" on="1"/>
        <pt x="2002" y="1160" on="0"/>
        <pt x="2022" y="1110" on="1"/>
        <pt x="1997" y="1131" on="0"/>
        <pt x="1971" y="1153" on="1"/>
        <pt x="1962" y="1201" on="0"/>
        <pt x="1962" y="1248" on="1"/>
        <pt x="1962" y="1351" on="0"/>
        <pt x="2046" y="1502" on="0"/>
        <pt x="2118" y="1523" on="1"/>
        <pt x="2121" y="1372" on="0"/>
        <pt x="2209" y="1254" on="1"/>
        <pt x="2226" y="1230" on="0"/>
        <pt x="2310" y="1158" on="1"/>
        <pt x="2383" y="1094" on="0"/>
        <pt x="2397" y="1063" on="1"/>
        <pt x="2404" y="1033" on="0"/>
      </contour>
      <contour>
        <pt x="2181" y="576" on="1"/>
        <pt x="2181" y="202" on="0"/>
        <pt x="1649" y="-330" on="0"/>
        <pt x="1274" y="-330" on="1"/>
        <pt x="900" y="-330" on="0"/>
        <pt x="367" y="202" on="0"/>
        <pt x="367" y="576" on="1"/>
        <pt x="367" y="939" on="0"/>
        <pt x="623" y="1202" on="1"/>
        <pt x="838" y="1423" on="0"/>
        <pt x="1086" y="1461" on="1"/>
        <pt x="1139" y="1469" on="0"/>
        <pt x="1182" y="1505" on="1"/>
        <pt x="1232" y="1547" on="0"/>
        <pt x="1232" y="1602" on="1"/>
        <pt x="1232" y="1662" on="0"/>
        <pt x="1146" y="1748" on="0"/>
        <pt x="1086" y="1748" on="1"/>
        <pt x="1027" y="1748" on="0"/>
        <pt x="938" y="1662" on="0"/>
        <pt x="938" y="1602" on="1"/>
        <pt x="938" y="1534" on="0"/>
        <pt x="994" y="1488" on="1"/>
        <pt x="882" y="1475" on="0"/>
        <pt x="745" y="1418" on="1"/>
        <pt x="652" y="1380" on="0"/>
        <pt x="584" y="1315" on="1"/>
        <pt x="539" y="1321" on="1"/>
        <pt x="602" y="1394" on="0"/>
        <pt x="739" y="1457" on="1"/>
        <pt x="806" y="1487" on="0"/>
        <pt x="931" y="1512" on="1"/>
        <pt x="901" y="1556" on="0"/>
        <pt x="901" y="1614" on="1"/>
        <pt x="901" y="1688" on="0"/>
        <pt x="960" y="1738" on="1"/>
        <pt x="1015" y="1785" on="0"/>
        <pt x="1086" y="1785" on="1"/>
        <pt x="1160" y="1785" on="0"/>
        <pt x="1216" y="1736" on="1"/>
        <pt x="1274" y="1684" on="0"/>
        <pt x="1274" y="1610" on="1"/>
        <pt x="1274" y="1531" on="0"/>
        <pt x="1214" y="1479" on="1"/>
        <pt x="1236" y="1481" on="0"/>
        <pt x="1274" y="1481" on="1"/>
        <pt x="1314" y="1481" on="0"/>
        <pt x="1335" y="1479" on="1"/>
        <pt x="1274" y="1531" on="0"/>
        <pt x="1274" y="1610" on="1"/>
        <pt x="1274" y="1684" on="0"/>
        <pt x="1332" y="1736" on="1"/>
        <pt x="1387" y="1785" on="0"/>
        <pt x="1462" y="1785" on="1"/>
        <pt x="1534" y="1785" on="0"/>
        <pt x="1589" y="1738" on="1"/>
        <pt x="1649" y="1689" on="0"/>
        <pt x="1649" y="1614" on="1"/>
        <pt x="1649" y="1556" on="0"/>
        <pt x="1619" y="1512" on="1"/>
        <pt x="1740" y="1488" on="0"/>
        <pt x="1808" y="1457" on="1"/>
        <pt x="1944" y="1396" on="0"/>
        <pt x="2010" y="1321" on="1"/>
        <pt x="1966" y="1315" on="1"/>
        <pt x="1892" y="1382" on="0"/>
        <pt x="1803" y="1418" on="1"/>
        <pt x="1663" y="1476" on="0"/>
        <pt x="1554" y="1488" on="1"/>
        <pt x="1608" y="1532" on="0"/>
        <pt x="1608" y="1602" on="1"/>
        <pt x="1608" y="1662" on="0"/>
        <pt x="1522" y="1748" on="0"/>
        <pt x="1462" y="1748" on="1"/>
        <pt x="1403" y="1748" on="0"/>
        <pt x="1317" y="1662" on="0"/>
        <pt x="1317" y="1602" on="1"/>
        <pt x="1317" y="1547" on="0"/>
        <pt x="1367" y="1505" on="1"/>
        <pt x="1409" y="1469" on="0"/>
        <pt x="1462" y="1461" on="1"/>
        <pt x="1712" y="1423" on="0"/>
        <pt x="1926" y="1202" on="1"/>
        <pt x="2181" y="940" on="0"/>
      </contour>
      <contour>
        <pt x="580" y="1153" on="1"/>
        <pt x="524" y="1105" on="0"/>
        <pt x="525" y="1110" on="1"/>
        <pt x="546" y="1161" on="0"/>
        <pt x="546" y="1249" on="1"/>
        <pt x="546" y="1431" on="0"/>
        <pt x="463" y="1449" on="1"/>
        <pt x="456" y="1333" on="0"/>
        <pt x="378" y="1226" on="1"/>
        <pt x="362" y="1203" on="0"/>
        <pt x="217" y="1081" on="0"/>
        <pt x="198" y="1055" on="1"/>
        <pt x="185" y="1029" on="0"/>
        <pt x="185" y="1018" on="1"/>
        <pt x="146" y="1042" on="1"/>
        <pt x="146" y="1053" on="0"/>
        <pt x="154" y="1063" on="1"/>
        <pt x="167" y="1094" on="0"/>
        <pt x="240" y="1158" on="1"/>
        <pt x="324" y="1230" on="0"/>
        <pt x="341" y="1254" on="1"/>
        <pt x="426" y="1368" on="0"/>
        <pt x="432" y="1523" on="1"/>
        <pt x="503" y="1502" on="0"/>
        <pt x="589" y="1350" on="0"/>
        <pt x="589" y="1247" on="1"/>
        <pt x="589" y="1200" on="0"/>
      </contour>
      <contour>
        <pt x="2546" y="1105" on="1"/>
        <pt x="2478" y="1004" on="0"/>
        <pt x="2485" y="819" on="1"/>
        <pt x="2487" y="784" on="0"/>
        <pt x="2532" y="637" on="0"/>
        <pt x="2533" y="605" on="1"/>
        <pt x="2535" y="569" on="0"/>
        <pt x="2472" y="496" on="0"/>
        <pt x="2439" y="496" on="1"/>
        <pt x="2391" y="496" on="0"/>
        <pt x="2369" y="520" on="1"/>
        <pt x="2369" y="67" on="0"/>
        <pt x="1729" y="-574" on="0"/>
        <pt x="1274" y="-574" on="1"/>
        <pt x="820" y="-574" on="0"/>
        <pt x="179" y="67" on="0"/>
        <pt x="179" y="520" on="1"/>
        <pt x="158" y="496" on="0"/>
        <pt x="111" y="496" on="1"/>
        <pt x="78" y="496" on="0"/>
        <pt x="13" y="569" on="0"/>
        <pt x="15" y="605" on="1"/>
        <pt x="17" y="637" on="0"/>
        <pt x="62" y="785" on="0"/>
        <pt x="63" y="819" on="1"/>
        <pt x="71" y="1004" on="0"/>
        <pt x="2" y="1105" on="1"/>
        <pt x="202" y="1092" on="0"/>
        <pt x="263" y="945" on="1"/>
        <pt x="258" y="822" on="1"/>
        <pt x="253" y="895" on="0"/>
        <pt x="209" y="962" on="1"/>
        <pt x="154" y="1046" on="0"/>
        <pt x="67" y="1049" on="1"/>
        <pt x="105" y="992" on="0"/>
        <pt x="105" y="819" on="1"/>
        <pt x="105" y="787" on="0"/>
        <pt x="85" y="718" on="1"/>
        <pt x="63" y="646" on="0"/>
        <pt x="61" y="618" on="1"/>
        <pt x="58" y="542" on="0"/>
        <pt x="131" y="542" on="1"/>
        <pt x="170" y="542" on="0"/>
        <pt x="204" y="594" on="1"/>
        <pt x="214" y="609" on="0"/>
        <pt x="226" y="623" on="1"/>
        <pt x="220" y="561" on="0"/>
        <pt x="220" y="520" on="1"/>
        <pt x="220" y="91" on="0"/>
        <pt x="842" y="-521" on="0"/>
        <pt x="1274" y="-521" on="1"/>
        <pt x="1707" y="-521" on="0"/>
        <pt x="2330" y="91" on="0"/>
        <pt x="2330" y="520" on="1"/>
        <pt x="2330" y="561" on="0"/>
        <pt x="2324" y="623" on="1"/>
        <pt x="2336" y="609" on="0"/>
        <pt x="2347" y="595" on="1"/>
        <pt x="2380" y="542" on="0"/>
        <pt x="2417" y="542" on="1"/>
        <pt x="2493" y="542" on="0"/>
        <pt x="2489" y="618" on="1"/>
        <pt x="2487" y="646" on="0"/>
        <pt x="2465" y="718" on="1"/>
        <pt x="2442" y="787" on="0"/>
        <pt x="2442" y="819" on="1"/>
        <pt x="2442" y="990" on="0"/>
        <pt x="2483" y="1049" on="1"/>
        <pt x="2397" y="1046" on="0"/>
        <pt x="2340" y="962" on="1"/>
        <pt x="2295" y="895" on="0"/>
        <pt x="2290" y="822" on="1"/>
        <pt x="2288" y="945" on="1"/>
        <pt x="2348" y="1092" on="0"/>
      </contour>
      <contour>
        <pt x="2135" y="576" on="1"/>
        <pt x="2135" y="930" on="0"/>
        <pt x="1895" y="1173" on="1"/>
        <pt x="1708" y="1362" on="0"/>
        <pt x="1466" y="1418" on="1"/>
        <pt x="1386" y="1437" on="0"/>
        <pt x="1274" y="1437" on="1"/>
        <pt x="1164" y="1437" on="0"/>
        <pt x="1084" y="1418" on="1"/>
        <pt x="841" y="1362" on="0"/>
        <pt x="654" y="1173" on="1"/>
        <pt x="415" y="931" on="0"/>
        <pt x="415" y="576" on="1"/>
        <pt x="415" y="218" on="0"/>
        <pt x="916" y="-285" on="0"/>
        <pt x="1274" y="-285" on="1"/>
        <pt x="1633" y="-285" on="0"/>
        <pt x="2135" y="218" on="0"/>
      </contour>
      <contour>
        <pt x="1686" y="438" on="1"/>
        <pt x="1686" y="345" on="0"/>
        <pt x="1635" y="264" on="1"/>
        <pt x="1577" y="172" on="0"/>
        <pt x="1491" y="172" on="1"/>
        <pt x="1428" y="172" on="0"/>
        <pt x="1391" y="224" on="1"/>
        <pt x="1359" y="270" on="0"/>
        <pt x="1359" y="336" on="1"/>
        <pt x="1359" y="402" on="0"/>
        <pt x="1402" y="525" on="1"/>
        <pt x="1458" y="684" on="0"/>
        <pt x="1532" y="684" on="1"/>
        <pt x="1606" y="684" on="0"/>
        <pt x="1653" y="569" on="1"/>
        <pt x="1686" y="487" on="0"/>
      </contour>
      <contour>
        <pt x="1277" y="412" on="1"/>
        <pt x="1277" y="344" on="0"/>
        <pt x="1226" y="258" on="1"/>
        <pt x="1162" y="152" on="0"/>
        <pt x="1072" y="152" on="1"/>
        <pt x="1005" y="152" on="0"/>
        <pt x="968" y="206" on="1"/>
        <pt x="939" y="248" on="0"/>
        <pt x="939" y="300" on="1"/>
        <pt x="939" y="368" on="0"/>
        <pt x="985" y="496" on="1"/>
        <pt x="1046" y="664" on="0"/>
        <pt x="1128" y="664" on="1"/>
        <pt x="1192" y="664" on="0"/>
        <pt x="1240" y="551" on="1"/>
        <pt x="1277" y="463" on="0"/>
      </contour>
      <contour>
        <pt x="1604" y="358" on="1"/>
        <pt x="1608" y="409" on="0"/>
        <pt x="1586" y="464" on="1"/>
        <pt x="1561" y="530" on="0"/>
        <pt x="1518" y="530" on="1"/>
        <pt x="1491" y="530" on="0"/>
        <pt x="1459" y="474" on="1"/>
        <pt x="1430" y="424" on="0"/>
        <pt x="1430" y="397" on="1"/>
        <pt x="1430" y="367" on="0"/>
        <pt x="1480" y="305" on="0"/>
        <pt x="1507" y="305" on="1"/>
        <pt x="1554" y="305" on="0"/>
      </contour>
      <contour>
        <pt x="1194" y="338" on="1"/>
        <pt x="1196" y="379" on="0"/>
        <pt x="1172" y="435" on="1"/>
        <pt x="1144" y="500" on="0"/>
        <pt x="1108" y="500" on="1"/>
        <pt x="1069" y="500" on="0"/>
        <pt x="1037" y="434" on="1"/>
        <pt x="1010" y="383" on="0"/>
        <pt x="1010" y="356" on="1"/>
        <pt x="1010" y="337" on="0"/>
        <pt x="1079" y="284" on="0"/>
        <pt x="1097" y="284" on="1"/>
        <pt x="1134" y="284" on="0"/>
      </contour>
    </TTGlyph>
</ttFont>
